<svg xmlns="http://www.w3.org/2000/svg" width="292.529" height="251.949" viewBox="0 0 292.529 251.949">
  <g id="Group_90" data-name="Group 90" transform="translate(3710.529 -6842.497)">
    <path id="Intersection_6" data-name="Intersection 6" d="M-5670.876,168.724l-21.785-33.546a30,30,0,0,1,8.821-41.5l86.778-56.354V156.56l-32.314,20.985a29.863,29.863,0,0,1-16.311,4.843A29.975,29.975,0,0,1-5670.876,168.724Z" transform="translate(2179.063 6912.058)" fill="#dedede"/>
    <path id="Exclusion_1" data-name="Exclusion 1" d="M-5581.034-598h-124.933a4.96,4.96,0,0,1-4.3-2.447,4.958,4.958,0,0,1-.091-4.946l62.468-114.586a4.932,4.932,0,0,1,4.389-2.606,4.934,4.934,0,0,1,4.39,2.606l62.466,114.586a4.957,4.957,0,0,1-.091,4.946A4.957,4.957,0,0,1-5581.034-598Zm-61.423-106.648h0l-48.017,92.314h96.036l-48.019-92.314Z" transform="translate(-4308.529 12553.471) rotate(90)" fill="#dedede"/>
  </g>
</svg>
