<?xml version="1.0" encoding="UTF-8"?>
<!DOCTYPE svg PUBLIC "-//W3C//DTD SVG 1.1//EN" "http://www.w3.org/Graphics/SVG/1.1/DTD/svg11.dtd">
<!-- Creator: CorelDRAW X7 -->
<svg xmlns="http://www.w3.org/2000/svg" xml:space="preserve" width="259.276mm" height="147.862mm" version="1.1" style="shape-rendering:geometricPrecision; text-rendering:geometricPrecision; image-rendering:optimizeQuality; fill-rule:evenodd; clip-rule:evenodd"
viewBox="0 0 25315 14437"
 xmlns:xlink="http://www.w3.org/1999/xlink">
 <defs>
  <style type="text/css">
   <![CDATA[
    .str0 {stroke:#94BE44;stroke-width:7.43991}
    .fil11 {fill:#102D4B}
    .fil1 {fill:#384B62}
    .fil5 {fill:#47C4D2}
    .fil2 {fill:#59A392}
    .fil7 {fill:#648931}
    .fil3 {fill:#73B5A5}
    .fil9 {fill:#94BE44}
    .fil15 {fill:#D1E2CE}
    .fil10 {fill:#D3AB5C}
    .fil8 {fill:#DBEEE9}
    .fil4 {fill:#E78C63}
    .fil0 {fill:#EBC46B}
    .fil6 {fill:#ED7642}
    .fil12 {fill:#EDCD84}
    .fil14 {fill:#FBF4DC}
    .fil13 {fill:#FEFEFD}
   ]]>
  </style>
 </defs>
 <g id="Layer_x0020_1">
  <metadata id="CorelCorpID_0Corel-Layer"/>
  <g id="_2130334070400">
   <g>
    <path class="fil0" d="M16577 8875c-15,-255 -64,-334 200,-341 977,-29 2068,20 3038,-3 508,-12 1256,-125 1140,288 -3,12 -8,22 -12,33 -82,184 -511,106 -845,111 -584,8 -3336,72 -3521,-88zm43 -1088c-3,-108 -29,-182 9,-231 39,-50 141,-74 395,-83 64,-3 117,0 168,4 51,3 101,7 156,7l790 -11 789 -10c82,-2 130,4 174,10 45,6 85,12 151,11l716 -4 717 -5c140,-7 209,12 241,67 33,55 28,144 18,276 -160,34 -596,46 -1043,47 -447,1 -904,-10 -1107,-21 -22,-1 -143,-1 -265,0 -122,1 -245,3 -270,5l-442 -1 -443 -1c-16,-1 -32,-2 -47,-2 -14,-1 -28,-1 -41,-1 -118,2 -170,24 -250,28 -80,3 -188,-12 -416,-85zm4088 3143c-1,157 -10,67 -26,211l117 148 0 2978c821,-249 296,-273 590,-10 45,-646 33,-892 32,-1555l-3 -4757c0,-465 54,-1042 -31,-1422 -535,-69 -3158,-21 -4039,-17 -269,2 -992,-83 -1170,55 -62,1433 84,3026 -41,4426l686 6c46,-1 61,-137 279,-135l1178 16 2428 56z"/>
   </g>
   <path class="fil1" d="M10228 13708c18,-691 1394,-781 1381,2l-1014 2 -81 2 -286 -6zm-1658 -1c-22,-718 1370,-738 1378,4l-1378 -4zm-1695 -2c15,-538 945,-834 1323,-264 177,268 83,270 -232,270l-1091 -6zm-4964 -13c27,-742 1294,-760 1312,1l-1312 -1zm20172 -1674c265,-13 412,-79 412,194 1,275 -148,218 -424,195l12 -389zm1482 -534c-4,182 -45,203 -232,205 -188,2 -232,-19 -238,-205 -7,-222 33,-224 238,-225 201,0 238,12 232,225zm-1081 154c-347,177 -511,21 -417,-367 341,-43 547,-47 417,367zm613 -962c13,-179 79,-172 278,-160 191,11 210,64 187,280 -18,164 -104,147 -269,147 -194,0 -212,-63 -196,-267zm-1002 232c-86,-60 -51,-239 -45,-368l435 10c13,165 30,217 -25,343 -101,50 -288,69 -365,15zm-288 -1115c-2,-94 -25,-67 -12,-211 330,-25 1785,-56 1991,31l24 415 -2010 -7 7 -228zm-166 2964c29,-58 79,-66 232,-75 108,-7 213,-8 316,21 194,55 229,171 389,236 15,-125 16,-141 148,-154 122,-12 198,-6 275,51 83,136 -33,249 115,485 67,106 157,204 144,355 -488,95 -2038,19 -2636,19 -441,0 -896,11 -1335,-4 -634,-21 -566,21 -973,30l-249 -40c-5,-12 -18,-9 -26,-15l-129 1c-103,84 -486,52 -725,50 -243,-1 -484,-10 -728,-11 -561,0 -4128,14 -4377,-29l-37 -556c-132,-47 -156,-81 -250,-165 -148,-132 -87,-87 -184,-219l-764 -2c-192,59 -1746,59 -1944,6l-380 3c-188,58 -3538,17 -4277,21 -249,2 -390,61 -498,-116 -70,-117 17,24 -66,-78 -47,-58 -17,-7 -62,-80 -67,-19 -250,-128 -306,-170l-272 -69c-106,59 -41,18 -163,57 -76,24 -111,35 -177,60 -164,41 -241,185 -341,270 -59,98 73,46 -139,105 -50,14 -110,3 -163,1 -170,51 -343,9 -480,32l-65 19c-193,55 -87,590 -112,868l-1402 41 0 732 25315 0 0 -741 -413 -2 -1010 -22 -2 -606c-65,-186 -108,-143 -186,-287l-95 -280c-4,-9 -13,-15 -16,-35 -3,-20 -10,-24 -17,-35 -150,6 -324,42 -433,-29l-13 -25c-58,-108 -55,-227 -7,-371 264,-38 319,-33 438,64 8,7 17,17 24,23l60 46c6,-9 21,17 34,23 61,-150 177,-259 239,-384 11,-377 8,-805 -1,-1181 -8,-366 49,-809 -68,-1087l-1461 1c-208,-9 -512,-39 -672,36 -162,358 98,2866 -75,3212z"/>
   <path class="fil2" d="M12576 7948l3 507 -1612 -7c-19,-45 -4,48 -32,-115 -8,-44 -10,-76 -11,-121 -3,-80 4,-188 6,-265l1646 1zm598 -3403l-428 31c-82,17 -45,6 -89,35 -135,243 -5,2722 -50,3276l-1651 -1c-51,157 -43,469 11,616l1642 6 -5 347 -1665 18 -10 525 252 -28c-95,-204 11,-20 -111,-106 -52,-37 -133,-27 -116,-169l46 -158c161,-60 563,-37 768,-37 268,1 537,-2 806,2l-1 318 -239 37c-136,14 -32,-42 -167,44 57,137 23,86 200,84 253,-2 158,-3 208,78 -116,254 -299,-4 -432,202 122,85 36,33 194,49 332,34 148,-77 238,113 -55,106 89,-32 -54,53l-66 33c-54,16 -202,-11 -301,52 56,115 47,68 181,81 292,28 186,-9 240,104 -25,54 76,2 -85,81l-195 20c-133,11 -115,-20 -143,101 331,157 414,-218 420,203 -11,6 -27,8 -38,10l-80 15c-16,1 -24,1 -41,2 -255,14 -219,-58 -259,94 321,186 406,-239 419,202 -81,49 -5,16 -118,32 -218,31 -163,-56 -305,49 58,169 38,58 345,98l78 23c-9,356 20,143 -196,168 -213,25 -135,-108 -199,117 67,11 167,1 198,6 268,37 107,-82 199,114 -102,208 53,69 -200,97 -108,13 -97,-52 -184,38 -109,113 131,170 -336,223l-86 -913c66,101 30,13 49,161 -124,-6 -741,-35 -850,3 -124,43 -7,-48 -87,54l834 4c56,268 29,610 4,876l48 -50c16,-16 56,-58 69,-68 231,-188 948,-184 1099,359 238,25 403,-35 580,53 146,73 286,138 400,246 262,248 210,588 654,636 45,-1042 229,-2593 230,-3727 650,-385 22,73 264,-192l-86 -4689c-164,-60 -674,-31 -904,-31 -288,0 -756,-78 -899,-20z"/>
   <path class="fil3" d="M2305 7696c173,0 779,-70 846,80 39,86 27,248 -52,296 -66,41 -775,21 -956,21 -200,0 -270,24 -264,-207 6,-232 72,-191 426,-190zm40 -757c614,-1 849,-87 828,219 -16,219 -87,175 -302,175l-728 -1c-200,0 -278,20 -266,-216 12,-232 63,-177 468,-177zm-283 -382c-153,0 -203,-66 -167,-245 33,-163 65,-124 248,-125l984 6 -9 359 -1056 5zm-160 -772c-54,-446 -51,-371 646,-369 483,2 659,-137 601,379 -415,10 -834,35 -1247,-10zm1220 -1098c64,58 63,272 -1,331 -84,77 -660,32 -816,33 -351,3 -511,61 -390,-384 116,-13 1129,-52 1207,20zm-2272 6787c10,-6 24,-27 30,-19 0,1 59,-66 216,-81 373,-35 663,180 780,215 61,-197 972,-100 1179,-87l1 -383c-205,31 -421,14 -630,15 -270,1 -530,88 -549,-175 -21,-308 231,-220 509,-218 222,2 451,-18 670,17l1 -404c-228,37 -1075,41 -1136,-24 -48,-50 -47,-267 5,-317 199,-85 866,-59 1130,-21l-1 -384c-244,18 -503,6 -750,8 -366,3 -496,62 -393,-384l1144 -4 -1 -384c-221,20 -447,8 -669,9 -274,1 -507,87 -507,-199 -1,-382 506,-120 1168,-207 65,-100 36,-109 86,-211 188,-5 373,-18 514,-28 182,-13 331,15 536,-12 -14,-540 69,-3290 -59,-3541 -54,-38 17,-11 -90,-36 -151,-36 -237,17 -309,-52 -101,-152 11,-306 -86,-402 -91,-89 -199,12 -363,-85 -127,-477 172,-414 -526,-417 -1200,-5 -863,-33 -948,375 -25,121 -58,95 -186,111 -302,40 -168,18 -217,489 -189,55 -398,1 -492,70 -128,170 1,5954 -57,6766z"/>
   <path class="fil4" d="M4754 8182c-37,677 16,1580 16,2292 0,663 54,1580 -5,2213 -309,36 -758,63 -1017,-38 108,177 249,118 498,116 739,-4 4089,37 4277,-21l-4 -1343c-3,-214 -37,-288 175,-301 297,-18 207,176 210,708 1,311 3,623 -1,933 198,53 1752,53 1944,-6 -4,-285 -75,-1451 34,-1587 80,-102 -37,-11 87,-54 109,-38 726,-9 850,-3 -19,-148 17,-60 -49,-161l-63 -57 14 142c-1271,-11 -899,-163 -950,1711l-1786 -18c-11,-284 -4,-574 -7,-859 -1,-203 90,-703 -106,-794 -60,-11 -106,-19 -178,-16l-161 29c-8,-12 -27,7 -40,13 -43,130 -30,310 -29,444l-11 1173 -1739 0c-125,-671 42,-3522 19,-4513 -105,-125 -55,-973 -38,-1189 154,-111 226,35 232,-164 5,-164 -62,-98 -194,-172 -23,-188 15,-277 -180,-300l-1328 1c-175,-1 -272,-20 -420,41l-35 281 -225 70c-4,266 41,114 229,243 20,230 37,993 -19,1186z"/>
   <path class="fil5" d="M22388 9509l1461 -1c117,278 60,721 68,1087 9,376 12,804 1,1181 285,2 445,-77 685,56 139,77 334,214 357,372 -47,-186 -94,-15 -108,-309 -6,-121 3,-283 3,-410l-1 -5381c1,-45 2,-150 -6,-189 -35,-160 -22,-79 -72,-125 -129,-70 -2150,-69 -2277,1 -113,88 -63,779 -63,922l-48 2796z"/>
   <path class="fil6" d="M16024 11370l354 -20 3 361c-381,32 -383,20 -357,-341zm-557 300c-166,57 -207,48 -377,14 -17,-239 -68,-363 196,-357 238,6 197,128 181,343zm925 -818c-180,41 -346,78 -379,-97 -43,-230 19,-268 203,-269 243,0 214,130 176,366zm-1306 -55c-124,-421 335,-357 381,-228 142,398 -343,359 -381,228zm930 -970c0,-412 610,-106 362,163 -45,49 -199,62 -277,34 -110,-39 -85,-54 -85,-197zm-590 -178c76,179 125,379 -140,386 -259,7 -238,-150 -178,-390l318 4zm-768 3690l153 318 691 11c-22,-427 -68,-972 269,-1087 326,81 247,774 231,1087l943 2 -27 -891 -8 -330 -28 -1652c-16,-291 55,-455 13,-809 -33,-270 28,-566 20,-867l-2292 10c-10,561 -73,3963 35,4208z"/>
   <path class="fil6" d="M10316 12407c-59,-2053 -41,-4742 -14,-6866 258,-17 299,-58 299,201l0 6471c0,247 -50,208 -285,194zm-564 -73l-4 -6349c0,-104 -27,-343 25,-420 59,-88 270,-89 314,30l-7 6757c-62,111 -299,99 -328,-18zm-192 58c-448,116 -338,-125 -337,-503 2,-938 -44,-6267 42,-6346 70,-65 255,-55 295,52l0 6797zm-612 -7208l0 5421c-178,-8 -105,-25 -261,-53 -136,179 -162,134 -247,205l-2 340 433 -42c196,91 105,591 106,794 3,285 -4,575 7,859l1786 18c51,-1874 -321,-1722 950,-1711l-14 -142 -109 -109c17,-15 32,-33 37,-25l153 -120c-68,-7 -161,-6 -220,-17 -189,-37 -90,-46 -182,-63 -178,-31 -115,75 -304,32 -113,-26 -43,0 -115,-57 57,-269 11,-53 203,-202 -136,-93 -164,-16 -229,-162 61,-139 143,-63 205,-162 -100,-185 -220,116 -218,-242 126,-96 116,-21 246,-81 -35,-95 -97,-52 -245,-85l1 -182 10 -525c-17,-163 -54,-233 28,-371 -54,-147 -62,-459 -11,-616 -154,-317 82,-2374 -69,-2696 -202,-28 -304,-63 -492,-64 -161,-1 -326,5 -487,5 -383,0 -616,35 -960,53z"/>
   <path class="fil3" d="M18554 9108l-5 520 1 390 -1 538 0 392 7 535c585,-267 1103,36 1270,520 313,907 -652,1070 -716,1099 -42,170 -55,439 18,563 166,-49 57,-45 157,-237 238,-456 431,-26 572,-560 107,-406 598,-599 942,-621l0 -3146 6 -216 -2254 10 3 213z"/>
   <path class="fil7" d="M18556 11483c-71,131 -7,40 -95,79l10 32c-83,135 -109,127 -144,295 394,324 407,491 283,1048l229 116c191,41 185,212 124,427l-78 176 -288 -4 -83 20 -473 -6c8,6 21,3 26,15l249 40c407,-9 339,-51 973,-30 439,15 894,4 1335,4 598,0 2148,76 2636,-19 13,-151 -77,-249 -144,-355 -148,-236 -32,-349 -115,-485l8 337c-105,-8 -185,-27 -282,-43 -154,-26 -142,-25 -149,-191 -160,-65 -195,-181 -389,-236 -103,-29 -208,-28 -316,-21 -153,9 -203,17 -232,75l-161 20 -65 -159c-133,-57 -173,-146 -281,-227 -103,-77 -202,-101 -335,-144 -344,22 -835,215 -942,621 -141,534 -334,104 -572,560 -100,192 9,188 -157,237 -73,-124 -60,-393 -18,-563 64,-29 1029,-192 716,-1099 -167,-484 -685,-787 -1270,-520z"/>
   <path class="fil0" d="M6917 12131c199,-36 265,1 433,-9 174,-10 222,-9 424,1 292,13 555,-148 407,383l-781 -5c-421,-15 -545,171 -483,-370zm-18 -565c-131,-461 234,-338 542,-345 544,-12 744,-72 773,144 50,379 -132,236 -575,268 -196,14 -236,-29 -382,-13 -119,12 -323,66 -358,-54zm33 -809c-197,-435 30,-427 387,-422 235,3 722,-39 890,36 137,554 -271,396 -1277,386zm-5 -902c-193,-531 176,-360 425,-371 185,-8 239,-8 421,3 95,5 244,-30 417,-20l-22 395 -1241 -7zm3 -1223c101,-114 280,-33 390,-33l827 -5c95,57 81,293 27,350 -70,75 -732,32 -855,33 -77,1 -307,71 -389,-13 -63,-64 -51,-274 0,-332zm-198 -447c23,991 -144,3842 -19,4513l1739 0 11 -1173c-1,-134 -14,-314 29,-444 13,-6 32,-25 40,-13l161 -29c72,-3 118,5 178,16l-433 42 2 -340c85,-71 111,-26 247,-205 156,28 83,45 261,53l0 -5421c-65,75 -52,187 -51,314 8,1077 40,4504 -12,5048 -260,-75 -149,-20 -348,47 -33,-462 59,-2075 -44,-2343 -206,-133 -1380,15 -1761,-65z"/>
   <path class="fil5" d="M7675 8146c19,-389 65,-3142 -43,-3272 -313,-55 -826,-22 -1162,-24 -218,-1 -388,-40 -600,-15 -453,54 -248,-19 -491,42 -13,3 -27,10 -37,13 -11,3 -26,8 -38,14 -85,301 -30,1029 -27,1398 380,17 771,1 1153,4 438,4 960,-80 930,124 -97,3 -186,1 -281,1 -26,0 -146,4 -166,9 -176,41 -74,7 -158,71 50,254 -4,67 95,156 145,129 406,84 526,147 -88,136 -336,33 -527,138 -191,105 -83,-98 -136,165 38,218 481,8 662,162 -133,124 -362,25 -504,58 -151,36 -159,8 -156,266 257,173 555,-34 662,142 -83,43 -170,43 -298,41 -36,0 -135,-4 -165,0l-191 59 -10 202c173,126 322,62 524,75 235,14 173,146 438,24z"/>
   <path class="fil0" d="M4599 11600c-131,33 -1165,34 -1283,-5 -180,-598 486,-352 890,-356 326,-3 449,-163 393,361zm-16 -1219c70,68 74,278 -8,341 -78,98 -457,47 -612,47 -140,0 -519,15 -627,-12 -195,-446 24,-424 384,-422 184,1 776,-53 863,46zm-4 -887c79,67 75,276 0,341 -94,112 -561,50 -737,46 -318,-8 -555,122 -556,-216 -1,-329 242,-212 556,-218 177,-3 643,-63 737,47zm-1264 -515c-113,-553 169,-381 405,-378 91,1 116,-25 243,-25 152,0 161,30 273,22 71,-4 199,-45 284,-16 148,51 133,367 -5,410 -43,14 -1139,3 -1200,-13zm-268 -532l8 397 1 384 -1 380 1 384 1 362 -1 404 0 361 -1 383 -17 381 4 369 272 69 0 -191c154,-26 1151,-24 1287,7 60,587 -37,315 -981,354 45,73 15,22 62,80 83,102 -4,-39 66,78 259,101 708,74 1017,38 59,-633 5,-1550 5,-2213 0,-712 -53,-1615 -16,-2292l-571 14c-205,27 -354,-1 -536,12 -141,10 -326,23 -514,28 -50,102 -21,111 -86,211z"/>
   <path class="fil8" d="M5663 1212c335,37 1881,267 1839,-154 -11,-115 -866,-284 -1012,-275 -1014,66 -2050,-865 -3790,-510 -160,33 -253,46 -389,98 -297,113 -1020,318 -936,680 214,0 271,-68 471,-101 1999,-324 2132,75 3817,262z"/>
   <path class="fil1" d="M10929 9398l-1 182c148,33 210,-10 245,85 -130,60 -120,-15 -246,81 -2,358 118,57 218,242 -62,99 -144,23 -205,162 65,146 93,69 229,162 -192,149 -146,-67 -203,202 72,57 2,31 115,57 189,43 126,-63 304,-32 92,17 -7,26 182,63 59,11 152,10 220,17l-153 120c-5,-8 -20,10 -37,25l109 109 63 57 86 913c467,-53 227,-110 336,-223 87,-90 76,-25 184,-38 253,-28 98,111 200,-97 -92,-196 69,-77 -199,-114 -31,-5 -131,5 -198,-6 64,-225 -14,-92 199,-117 216,-25 187,188 196,-168l-78 -23c-307,-40 -287,71 -345,-98 142,-105 87,-18 305,-49 113,-16 37,17 118,-32 -13,-441 -98,-16 -419,-202 40,-152 4,-80 259,-94 17,-1 25,-1 41,-2l80 -15c11,-2 27,-4 38,-10 -6,-421 -89,-46 -420,-203 28,-121 10,-90 143,-101l195 -20c161,-79 60,-27 85,-81 -54,-113 52,-76 -240,-104 -134,-13 -125,34 -181,-81 99,-63 247,-36 301,-52l66 -33c143,-85 -1,53 54,-53 -90,-190 94,-79 -238,-113 -158,-16 -72,36 -194,-49 133,-206 316,52 432,-202 -50,-81 45,-80 -208,-78 -177,2 -143,53 -200,-84 135,-86 31,-30 167,-44l239 -37 1 -318c-269,-4 -538,-1 -806,-2 -205,0 -607,-23 -768,37l-46 158c-17,142 64,132 116,169 122,86 16,-98 111,106l-252 28z"/>
   <path class="fil8" d="M16095 485c0,343 412,41 1577,41 222,0 673,99 967,125 922,79 855,228 2083,175 462,-99 257,-64 616,-193 193,-69 359,-202 378,-431 -506,-118 -179,81 -1213,81 -218,0 -474,-15 -670,-58l-1999 -225c-394,0 -1106,89 -1417,241 -105,52 -322,118 -322,244z"/>
   <path class="fil7" d="M850 11474c-243,140 -408,429 -380,780 27,344 170,447 303,602 241,280 1,250 -168,484 -75,102 -108,234 -149,341l-456 4 0 20 1402 -41c25,-278 -81,-813 112,-868l65 -19c137,-23 310,19 480,-32 -16,-229 70,-348 56,-572 -13,-209 -105,-261 -168,-432l-71 -152c-117,-35 -407,-250 -780,-215 -157,15 -216,82 -216,81 -6,-8 -20,13 -30,19z"/>
   <path class="fil7" d="M12045 13121l37 556c249,43 3816,29 4377,29 244,1 485,10 728,11 239,2 622,34 725,-50l-967 3 -943 -2 -500 0 -691 -11 -153 -318 -89 -135c-444,-48 -392,-388 -654,-636 -114,-108 -254,-173 -400,-246 -177,-88 -342,-28 -580,-53 54,212 75,496 -67,683 -85,112 -287,281 -496,242 -94,-303 57,-748 -79,-960 -192,211 3,720 -114,960 -93,-71 -12,-26 -134,-73z"/>
   <path class="fil8" d="M11165 2021c146,83 511,-39 926,-39 1145,0 2453,810 3264,392 177,-91 366,-413 52,-440 -111,-9 -403,128 -647,128 -152,0 -876,-262 -1060,-315 -221,-63 -345,-99 -595,-132 -684,-90 -770,-135 -1508,34 -82,19 -303,67 -355,91 -9,5 -20,10 -28,15 -249,147 -174,145 -49,266z"/>
   <path class="fil8" d="M6025 3073l-461 146c-323,102 -224,41 -347,299 211,101 690,81 930,81l664 189c399,30 1739,68 1883,-472 -189,-258 -548,0 -728,0 -162,89 -388,75 -564,39l-635 -174c-440,-141 -162,-108 -742,-108z"/>
   <path class="fil9" d="M23130 12375l11 -350c256,-26 408,-80 409,187 0,270 -155,228 -407,188 109,71 283,35 433,29 7,11 14,15 17,35 3,20 12,26 16,35l95 280c78,144 121,101 186,287 196,1 305,125 422,141 142,19 338,-93 486,-129 193,-272 261,-472 162,-874 -23,-158 -218,-295 -357,-372 -240,-133 -400,-54 -685,-56 -62,125 -178,234 -239,384 -13,-6 -28,-32 -34,-23l-60 -46c-7,-6 -16,-16 -24,-23 -119,-97 -174,-102 -438,-64 -48,144 -51,263 7,371z"/>
   <path class="fil9" d="M18271 11799c-75,133 -827,-179 -940,499 -38,231 21,479 122,614 116,154 277,193 438,287l21 468 129 -1 10 -443c24,-6 474,-169 477,-170l-14 619 83 -20 -16 -651c175,9 119,12 258,52l-229 -116c124,-557 111,-724 -283,-1048 35,-168 61,-160 144,-295 -159,65 -120,24 -200,205z"/>
   <path class="fil8" d="M20314 3288c-17,301 1028,-209 1505,37 476,245 1838,278 1838,-292 -95,-22 -61,-16 -115,-14 -643,137 -498,449 -1257,132 -544,-141 -537,-166 -1049,-168 -213,-1 -905,58 -922,305z"/>
   <path class="fil0" d="M9214 5114c-23,4 -112,6 -120,8 -125,26 44,-22 -64,16 -126,45 -16,-29 -82,46 344,-18 577,-53 960,-53 161,0 326,-6 487,-5 188,1 290,36 492,64 -259,-358 -61,512 -534,-979 -88,-278 -250,-983 -405,-1034 -247,348 -503,1654 -734,1937z"/>
   <path class="fil9" d="M11719 12028c-162,358 -124,246 -108,709 97,132 36,87 184,219 94,84 118,118 250,165 122,47 41,2 134,73 117,-240 -78,-749 114,-960 136,212 -15,657 79,960 209,39 411,-130 496,-242 142,-187 121,-471 67,-683 -151,-543 -868,-547 -1099,-359 -13,10 -53,52 -69,68l-48 50z"/>
   <path class="fil5" d="M10847 12735l764 2c-16,-463 -54,-351 108,-709 25,-266 52,-608 -4,-876l-834 -4c-109,136 -38,1302 -34,1587z"/>
   <path class="fil10" d="M21800 10021l2010 7 -24 -415c-206,-87 -1661,-56 -1991,-31 -13,144 10,117 12,211l-7 228z"/>
   <path class="fil1" d="M10930 7947c-2,77 -9,185 -6,265 1,45 3,77 11,121 28,163 13,70 32,115l1612 7 -3 -507 -1646 -1z"/>
   <path class="fil11" d="M6875 13705l1091 6c315,0 409,-2 232,-270 -378,-570 -1308,-274 -1323,264z"/>
   <path class="fil3" d="M8523 12744l380 -3c4,-310 2,-622 1,-933 -3,-532 87,-726 -210,-708 -212,13 -178,87 -175,301l4 1343z"/>
   <path class="fil11" d="M10228 13708l286 6 81 -2 1014 -2c13,-783 -1363,-693 -1381,-2z"/>
   <path class="fil11" d="M8570 13707l1378 4c-8,-742 -1400,-722 -1378,-4z"/>
   <path class="fil12" d="M10939 8873l1665 -18 5 -347 -1642 -6c-82,138 -45,208 -28,371z"/>
   <path class="fil11" d="M1911 13692l1312 1c-18,-761 -1285,-743 -1312,-1z"/>
   <path class="fil9 str0" d="M24902 13694l-89 -581c-2,-20 -8,-24 -15,-35 -148,36 -344,148 -486,129 -117,-16 -226,-140 -422,-141l2 606 1010 22z"/>
   <path class="fil0" d="M15502 13668l500 0c16,-313 95,-1006 -231,-1087 -337,115 -291,660 -269,1087z"/>
   <path class="fil3" d="M2059 12745c53,2 113,13 163,-1 212,-59 80,-7 139,-105l-246 13c-4,-405 66,-411 396,-399 232,9 170,-22 191,116 66,-25 101,-36 177,-60 122,-39 57,2 163,-57l-4 -369c-202,21 -409,11 -612,13 -442,4 -321,-27 -479,-155 63,171 155,223 168,432 14,224 -72,343 -56,572z"/>
   <path class="fil0" d="M18041 13666l473 6 14 -619c-3,1 -453,164 -477,170l-10 443z"/>
   <path class="fil3" d="M18597 13652l288 4 78 -176c61,-215 67,-386 -124,-427 -139,-40 -83,-43 -258,-52l16 651z"/>
   <path class="fil8" d="M23333 11259c-205,1 -245,3 -238,225 6,186 50,207 238,205 187,-2 228,-23 232,-205 6,-213 -31,-225 -232,-225z"/>
   <path class="fil8" d="M22484 11638c130,-414 -76,-410 -417,-367 -94,388 70,544 417,367z"/>
   <path class="fil8" d="M23293 10943c165,0 251,17 269,-147 23,-216 4,-269 -187,-280 -199,-12 -265,-19 -278,160 -16,204 2,267 196,267z"/>
   <path class="fil8" d="M22460 10893c55,-126 38,-178 25,-343l-435 -10c-6,129 -41,308 45,368 77,54 264,35 365,-15z"/>
   <path class="fil13" d="M22071 12407c276,23 425,80 424,-195 0,-273 -147,-207 -412,-194l-12 389z"/>
   <path class="fil8" d="M23087 12204l6 114 50 82c70,31 315,122 433,29 32,-25 53,-75 53,-137 0,-21 -8,-148 -1,-169 0,-177 -178,-124 -293,-141 -76,-11 -126,10 -212,22l-35 90 -1 110z"/>
   <path class="fil14" d="M16910 12449l8 330c426,113 450,-27 323,-380 -150,-19 -239,0 -331,50z"/>
   <path class="fil14" d="M15086 10797c38,131 523,170 381,-228 -46,-129 -505,-193 -381,228z"/>
   <path class="fil14" d="M16392 10852c38,-236 67,-366 -176,-366 -184,1 -246,39 -203,269 33,175 199,138 379,97z"/>
   <path class="fil14" d="M16016 9827c0,143 -25,158 85,197 78,28 232,15 277,-34 248,-269 -362,-575 -362,-163z"/>
   <path class="fil14" d="M15246 9827l12 12c-1,-1 -17,-8 -12,-12zm180 -178l-318 -4c-60,240 -81,397 178,390 265,-7 216,-207 140,-386z"/>
   <path class="fil15" d="M22578 12939c7,166 -5,165 149,191 97,16 177,35 282,43l-8 -337c-77,-57 -153,-63 -275,-51 -132,13 -133,29 -148,154z"/>
   <path class="fil14" d="M15246 11485l12 12c-1,-1 -17,-8 -12,-12zm221 185c16,-215 57,-337 -181,-343 -264,-6 -213,118 -196,357 170,34 211,43 377,-14z"/>
   <path class="fil14" d="M16024 11370c-26,361 -24,373 357,341l-3 -361 -354 20z"/>
   <path class="fil0" d="M14569 13204l89 135c-108,-245 -45,-3647 -35,-4208l2292 -10c8,301 -53,597 -20,867 42,354 -29,518 -13,809l28 1652c92,-50 181,-69 331,-50 127,353 103,493 -323,380l27 891 967 -3 -21 -468c-161,-94 -322,-133 -438,-287 -101,-135 -160,-383 -122,-614 113,-678 865,-366 940,-499 -199,26 -266,-53 -475,-9 -216,45 -128,67 -405,69 -267,2 -625,141 -416,-395l1484 1 2 97c88,-39 24,52 95,-79l-7 -535 -1600 -27c-19,-165 -39,-221 29,-385l1571 20 1 -538c-163,-14 -635,-23 -780,-11l-823 4 8 -379 817 5c145,17 638,-52 777,-9l5 -520c-502,-49 -296,1 -556,-15 -1891,128 -2896,-23 -3235,37 -86,15 0,0 -140,1 -9,0 0,22 0,31 -23,300 59,1415 -54,4042z"/>
  </g>
 </g>
</svg>
