<svg id="Layer_x0020_1" xmlns="http://www.w3.org/2000/svg" width="25315" height="14437" viewBox="0 0 25315 14437">
  <g id="_2130334070400">
    <g id="Group_23" data-name="Group 23">
      <path id="Path_91" data-name="Path 91" d="M16577,8875c-15-255-64-334,200-341,977-29,2068,20,3038-3,508-12,1256-125,1140,288-3,12-8,22-12,33-82,184-511,106-845,111C19514,8971,16762,9035,16577,8875Zm43-1088c-3-108-29-182,9-231,39-50,141-74,395-83,64-3,117,0,168,4,51,3,101,7,156,7l790-11,789-10c82-2,130,4,174,10,45,6,85,12,151,11l716-4,717-5c140-7,209,12,241,67,33,55,28,144,18,276-160,34-596,46-1043,47s-904-10-1107-21c-22-1-143-1-265,0s-245,3-270,5l-442-1-443-1c-16-1-32-2-47-2-14-1-28-1-41-1-118,2-170,24-250,28C16956,7875,16848,7860,16620,7787Zm4088,3143c-1,157-10,67-26,211l117,148v2978c821-249,296-273,590-10,45-646,33-892,32-1555l-3-4757c0-465,54-1042-31-1422-535-69-3158-21-4039-17-269,2-992-83-1170,55-62,1433,84,3026-41,4426l686,6c46-1,61-137,279-135l1178,16Z" fill="#ebc46b" fill-rule="evenodd"/>
    </g>
    <path id="Path_92" data-name="Path 92" d="M10228,13708c18-691,1394-781,1381,2l-1014,2-81,2Zm-1658-1c-22-718,1370-738,1378,4Zm-1695-2c15-538,945-834,1323-264,177,268,83,270-232,270Zm-4964-13c27-742,1294-760,1312,1Zm20172-1674c265-13,412-79,412,194,1,275-148,218-424,195Zm1482-534c-4,182-45,203-232,205-188,2-232-19-238-205-7-222,33-224,238-225C23534,11259,23571,11271,23565,11484Zm-1081,154c-347,177-511,21-417-367C22408,11228,22614,11224,22484,11638Zm613-962c13-179,79-172,278-160,191,11,210,64,187,280-18,164-104,147-269,147C23099,10943,23081,10880,23097,10676Zm-1002,232c-86-60-51-239-45-368l435,10c13,165,30,217-25,343C22359,10943,22172,10962,22095,10908Zm-288-1115c-2-94-25-67-12-211,330-25,1785-56,1991,31l24,415-2010-7Zm-166,2964c29-58,79-66,232-75,108-7,213-8,316,21,194,55,229,171,389,236,15-125,16-141,148-154,122-12,198-6,275,51,83,136-33,249,115,485,67,106,157,204,144,355-488,95-2038,19-2636,19-441,0-896,11-1335-4-634-21-566,21-973,30l-249-40c-5-12-18-9-26-15l-129,1c-103,84-486,52-725,50-243-1-484-10-728-11-561,0-4128,14-4377-29l-37-556c-132-47-156-81-250-165-148-132-87-87-184-219l-764-2c-192,59-1746,59-1944,6l-380,3c-188,58-3538,17-4277,21-249,2-390,61-498-116-70-117,17,24-66-78-47-58-17-7-62-80-67-19-250-128-306-170l-272-69c-106,59-41,18-163,57-76,24-111,35-177,60-164,41-241,185-341,270-59,98,73,46-139,105-50,14-110,3-163,1-170,51-343,9-480,32l-65,19c-193,55-87,590-112,868L0,13705v732H25315v-741l-413-2-1010-22-2-606c-65-186-108-143-186-287l-95-280c-4-9-13-15-16-35s-10-24-17-35c-150,6-324,42-433-29l-13-25c-58-108-55-227-7-371,264-38,319-33,438,64,8,7,17,17,24,23l60,46c6-9,21,17,34,23,61-150,177-259,239-384,11-377,8-805-1-1181-8-366,49-809-68-1087l-1461,1c-208-9-512-39-672,36C21554,9903,21814,12411,21641,12757Z" fill="#384b62" fill-rule="evenodd"/>
    <path id="Path_93" data-name="Path 93" d="M12576,7948l3,507-1612-7c-19-45-4,48-32-115-8-44-10-76-11-121-3-80,4-188,6-265Zm598-3403-428,31c-82,17-45,6-89,35-135,243-5,2722-50,3276l-1651-1c-51,157-43,469,11,616l1642,6-5,347-1665,18-10,525,252-28c-95-204,11-20-111-106-52-37-133-27-116-169l46-158c161-60,563-37,768-37,268,1,537-2,806,2l-1,318-239,37c-136,14-32-42-167,44,57,137,23,86,200,84,253-2,158-3,208,78-116,254-299-4-432,202,122,85,36,33,194,49,332,34,148-77,238,113-55,106,89-32-54,53l-66,33c-54,16-202-11-301,52,56,115,47,68,181,81,292,28,186-9,240,104-25,54,76,2-85,81l-195,20c-133,11-115-20-143,101,331,157,414-218,420,203-11,6-27,8-38,10l-80,15c-16,1-24,1-41,2-255,14-219-58-259,94,321,186,406-239,419,202-81,49-5,16-118,32-218,31-163-56-305,49,58,169,38,58,345,98l78,23c-9,356,20,143-196,168-213,25-135-108-199,117,67,11,167,1,198,6,268,37,107-82,199,114-102,208,53,69-200,97-108,13-97-52-184,38-109,113,131,170-336,223l-86-913c66,101,30,13,49,161-124-6-741-35-850,3-124,43-7-48-87,54l834,4c56,268,29,610,4,876l48-50c16-16,56-58,69-68,231-188,948-184,1099,359,238,25,403-35,580,53,146,73,286,138,400,246,262,248,210,588,654,636,45-1042,229-2593,230-3727,650-385,22,73,264-192l-86-4689c-164-60-674-31-904-31C13785,4565,13317,4487,13174,4545Z" fill="#59a392" fill-rule="evenodd"/>
    <path id="Path_94" data-name="Path 94" d="M2305,7696c173,0,779-70,846,80,39,86,27,248-52,296-66,41-775,21-956,21-200,0-270,24-264-207C1885,7654,1951,7695,2305,7696Zm40-757c614-1,849-87,828,219-16,219-87,175-302,175l-728-1c-200,0-278,20-266-216C1889,6884,1940,6939,2345,6939Zm-283-382c-153,0-203-66-167-245,33-163,65-124,248-125l984,6-9,359Zm-160-772c-54-446-51-371,646-369,483,2,659-137,601,379C2734,5805,2315,5830,1902,5785ZM3122,4687c64,58,63,272-1,331-84,77-660,32-816,33-351,3-511,61-390-384C2031,4654,3044,4615,3122,4687ZM850,11474c10-6,24-27,30-19,0,1,59-66,216-81,373-35,663,180,780,215,61-197,972-100,1179-87l1-383c-205,31-421,14-630,15-270,1-530,88-549-175-21-308,231-220,509-218,222,2,451-18,670,17l1-404c-228,37-1075,41-1136-24-48-50-47-267,5-317,199-85,866-59,1130-21l-1-384c-244,18-503,6-750,8-366,3-496,62-393-384l1144-4-1-384c-221,20-447,8-669,9-274,1-507,87-507-199-1-382,506-120,1168-207,65-100,36-109,86-211,188-5,373-18,514-28,182-13,331,15,536-12-14-540,69-3290-59-3541-54-38,17-11-90-36-151-36-237,17-309-52-101-152,11-306-86-402-91-89-199,12-363-85-127-477,172-414-526-417-1200-5-863-33-948,375-25,121-58,95-186,111-302,40-168,18-217,489-189,55-398,1-492,70C779,4878,908,10662,850,11474Z" fill="#73b5a5" fill-rule="evenodd"/>
    <path id="Path_95" data-name="Path 95" d="M4754,8182c-37,677,16,1580,16,2292,0,663,54,1580-5,2213-309,36-758,63-1017-38,108,177,249,118,498,116,739-4,4089,37,4277-21l-4-1343c-3-214-37-288,175-301,297-18,207,176,210,708,1,311,3,623-1,933,198,53,1752,53,1944-6-4-285-75-1451,34-1587,80-102-37-11,87-54,109-38,726-9,850-3-19-148,17-60-49-161l-63-57,14,142c-1271-11-899-163-950,1711l-1786-18c-11-284-4-574-7-859-1-203,90-703-106-794-60-11-106-19-178-16l-161,29c-8-12-27,7-40,13-43,130-30,310-29,444l-11,1173H6713c-125-671,42-3522,19-4513-105-125-55-973-38-1189,154-111,226,35,232-164,5-164-62-98-194-172-23-188,15-277-180-300l-1328,1c-175-1-272-20-420,41l-35,281-225,70c-4,266,41,114,229,243C4793,7226,4810,7989,4754,8182Z" fill="#e78c63" fill-rule="evenodd"/>
    <path id="Path_96" data-name="Path 96" d="M22388,9509l1461-1c117,278,60,721,68,1087,9,376,12,804,1,1181,285,2,445-77,685,56,139,77,334,214,357,372-47-186-94-15-108-309-6-121,3-283,3-410l-1-5381c1-45,2-150-6-189-35-160-22-79-72-125-129-70-2150-69-2277,1-113,88-63,779-63,922Z" fill="#47c4d2" fill-rule="evenodd"/>
    <path id="Path_97" data-name="Path 97" d="M16024,11370l354-20,3,361C16000,11743,15998,11731,16024,11370Zm-557,300c-166,57-207,48-377,14-17-239-68-363,196-357C15524,11333,15483,11455,15467,11670Zm925-818c-180,41-346,78-379-97-43-230,19-268,203-269C16459,10486,16430,10616,16392,10852Zm-1306-55c-124-421,335-357,381-228C15609,10967,15124,10928,15086,10797Zm930-970c0-412,610-106,362,163-45,49-199,62-277,34C15991,9985,16016,9970,16016,9827Zm-590-178c76,179,125,379-140,386-259,7-238-150-178-390Zm-768,3690,153,318,691,11c-22-427-68-972,269-1087,326,81,247,774,231,1087l943,2-27-891-8-330-28-1652c-16-291,55-455,13-809-33-270,28-566,20-867l-2292,10C14613,9692,14550,13094,14658,13339Z" fill="#ed7642" fill-rule="evenodd"/>
    <path id="Path_98" data-name="Path 98" d="M10316,12407c-59-2053-41-4742-14-6866,258-17,299-58,299,201v6471C10601,12460,10551,12421,10316,12407Zm-564-73-4-6349c0-104-27-343,25-420,59-88,270-89,314,30l-7,6757C10018,12463,9781,12451,9752,12334Zm-192,58c-448,116-338-125-337-503,2-938-44-6267,42-6346,70-65,255-55,295,52ZM8948,5184v5421c-178-8-105-25-261-53-136,179-162,134-247,205l-2,340,433-42c196,91,105,591,106,794,3,285-4,575,7,859l1786,18c51-1874-321-1722,950-1711l-14-142-109-109c17-15,32-33,37-25l153-120c-68-7-161-6-220-17-189-37-90-46-182-63-178-31-115,75-304,32-113-26-43,0-115-57,57-269,11-53,203-202-136-93-164-16-229-162,61-139,143-63,205-162-100-185-220,116-218-242,126-96,116-21,246-81-35-95-97-52-245-85l1-182,10-525c-17-163-54-233,28-371-54-147-62-459-11-616-154-317,82-2374-69-2696-202-28-304-63-492-64-161-1-326,5-487,5C9525,5131,9292,5166,8948,5184Z" fill="#ed7642" fill-rule="evenodd"/>
    <path id="Path_99" data-name="Path 99" d="M18554,9108l-5,520,1,390-1,538v392l7,535c585-267,1103,36,1270,520,313,907-652,1070-716,1099-42,170-55,439,18,563,166-49,57-45,157-237,238-456,431-26,572-560,107-406,598-599,942-621V9101l6-216-2254,10Z" fill="#73b5a5" fill-rule="evenodd"/>
    <path id="Path_100" data-name="Path 100" d="M18556,11483c-71,131-7,40-95,79l10,32c-83,135-109,127-144,295,394,324,407,491,283,1048l229,116c191,41,185,212,124,427l-78,176-288-4-83,20-473-6c8,6,21,3,26,15l249,40c407-9,339-51,973-30,439,15,894,4,1335,4,598,0,2148,76,2636-19,13-151-77-249-144-355-148-236-32-349-115-485l8,337c-105-8-185-27-282-43-154-26-142-25-149-191-160-65-195-181-389-236-103-29-208-28-316-21-153,9-203,17-232,75l-161,20-65-159c-133-57-173-146-281-227-103-77-202-101-335-144-344,22-835,215-942,621-141,534-334,104-572,560-100,192,9,188-157,237-73-124-60-393-18-563,64-29,1029-192,716-1099C19659,11519,19141,11216,18556,11483Z" fill="#648931" fill-rule="evenodd"/>
    <path id="Path_101" data-name="Path 101" d="M6917,12131c199-36,265,1,433-9,174-10,222-9,424,1,292,13,555-148,407,383l-781-5C6979,12486,6855,12672,6917,12131Zm-18-565c-131-461,234-338,542-345,544-12,744-72,773,144,50,379-132,236-575,268-196,14-236-29-382-13C7138,11632,6934,11686,6899,11566Zm33-809c-197-435,30-427,387-422,235,3,722-39,890,36C8346,10925,7938,10767,6932,10757Zm-5-902c-193-531,176-360,425-371,185-8,239-8,421,3,95,5,244-30,417-20l-22,395Zm3-1223c101-114,280-33,390-33l827-5c95,57,81,293,27,350-70,75-732,32-855,33-77,1-307,71-389-13C6867,8900,6879,8690,6930,8632Zm-198-447c23,991-144,3842-19,4513H8452l11-1173c-1-134-14-314,29-444,13-6,32-25,40-13l161-29c72-3,118,5,178,16l-433,42,2-340c85-71,111-26,247-205,156,28,83,45,261,53V5184c-65,75-52,187-51,314,8,1077,40,4504-12,5048-260-75-149-20-348,47-33-462,59-2075-44-2343C8287,8117,7113,8265,6732,8185Z" fill="#ebc46b" fill-rule="evenodd"/>
    <path id="Path_102" data-name="Path 102" d="M7675,8146c19-389,65-3142-43-3272-313-55-826-22-1162-24-218-1-388-40-600-15-453,54-248-19-491,42-13,3-27,10-37,13-11,3-26,8-38,14-85,301-30,1029-27,1398,380,17,771,1,1153,4,438,4,960-80,930,124-97,3-186,1-281,1-26,0-146,4-166,9-176,41-74,7-158,71,50,254-4,67,95,156,145,129,406,84,526,147-88,136-336,33-527,138s-83-98-136,165c38,218,481,8,662,162-133,124-362,25-504,58-151,36-159,8-156,266,257,173,555-34,662,142-83,43-170,43-298,41-36,0-135-4-165,0l-191,59-10,202c173,126,322,62,524,75C7472,8136,7410,8268,7675,8146Z" fill="#47c4d2" fill-rule="evenodd"/>
    <path id="Path_103" data-name="Path 103" d="M4599,11600c-131,33-1165,34-1283-5-180-598,486-352,890-356C4532,11236,4655,11076,4599,11600Zm-16-1219c70,68,74,278-8,341-78,98-457,47-612,47-140,0-519,15-627-12-195-446,24-424,384-422C3904,10336,4496,10282,4583,10381Zm-4-887c79,67,75,276,0,341-94,112-561,50-737,46-318-8-555,122-556-216-1-329,242-212,556-218C4019,9444,4485,9384,4579,9494ZM3315,8979c-113-553,169-381,405-378,91,1,116-25,243-25,152,0,161,30,273,22,71-4,199-45,284-16,148,51,133,367-5,410C4472,9006,3376,8995,3315,8979Zm-268-532,8,397,1,384-1,380,1,384,1,362-1,404v361l-1,383-17,381,4,369,272,69v-191c154-26,1151-24,1287,7,60,587-37,315-981,354,45,73,15,22,62,80,83,102-4-39,66,78,259,101,708,74,1017,38,59-633,5-1550,5-2213,0-712-53-1615-16-2292l-571,14c-205,27-354-1-536,12-141,10-326,23-514,28C3083,8338,3112,8347,3047,8447Z" fill="#ebc46b" fill-rule="evenodd"/>
    <path id="Path_104" data-name="Path 104" d="M5663,1212c335,37,1881,267,1839-154-11-115-866-284-1012-275C5476,849,4440-82,2700,273c-160,33-253,46-389,98-297,113-1020,318-936,680,214,0,271-68,471-101C3845,626,3978,1025,5663,1212Z" fill="#dbeee9" fill-rule="evenodd"/>
    <path id="Path_105" data-name="Path 105" d="M10929,9398l-1,182c148,33,210-10,245,85-130,60-120-15-246,81-2,358,118,57,218,242-62,99-144,23-205,162,65,146,93,69,229,162-192,149-146-67-203,202,72,57,2,31,115,57,189,43,126-63,304-32,92,17-7,26,182,63,59,11,152,10,220,17l-153,120c-5-8-20,10-37,25l109,109,63,57,86,913c467-53,227-110,336-223,87-90,76-25,184-38,253-28,98,111,200-97-92-196,69-77-199-114-31-5-131,5-198-6,64-225-14-92,199-117,216-25,187,188,196-168l-78-23c-307-40-287,71-345-98,142-105,87-18,305-49,113-16,37,17,118-32-13-441-98-16-419-202,40-152,4-80,259-94,17-1,25-1,41-2l80-15c11-2,27-4,38-10-6-421-89-46-420-203,28-121,10-90,143-101l195-20c161-79,60-27,85-81-54-113,52-76-240-104-134-13-125,34-181-81,99-63,247-36,301-52l66-33c143-85-1,53,54-53-90-190,94-79-238-113-158-16-72,36-194-49,133-206,316,52,432-202-50-81,45-80-208-78-177,2-143,53-200-84,135-86,31-30,167-44l239-37,1-318c-269-4-538-1-806-2-205,0-607-23-768,37l-46,158c-17,142,64,132,116,169,122,86,16-98,111,106Z" fill="#384b62" fill-rule="evenodd"/>
    <path id="Path_106" data-name="Path 106" d="M16095,485c0,343,412,41,1577,41,222,0,673,99,967,125,922,79,855,228,2083,175,462-99,257-64,616-193,193-69,359-202,378-431-506-118-179,81-1213,81-218,0-474-15-670-58L17834,0c-394,0-1106,89-1417,241C16312,293,16095,359,16095,485Z" fill="#dbeee9" fill-rule="evenodd"/>
    <path id="Path_107" data-name="Path 107" d="M850,11474c-243,140-408,429-380,780,27,344,170,447,303,602,241,280,1,250-168,484-75,102-108,234-149,341l-456,4v20l1402-41c25-278-81-813,112-868l65-19c137-23,310,19,480-32-16-229,70-348,56-572-13-209-105-261-168-432l-71-152c-117-35-407-250-780-215-157,15-216,82-216,81C874,11447,860,11468,850,11474Z" fill="#648931" fill-rule="evenodd"/>
    <path id="Path_108" data-name="Path 108" d="M12045,13121l37,556c249,43,3816,29,4377,29,244,1,485,10,728,11,239,2,622,34,725-50l-967,3-943-2h-500l-691-11-153-318-89-135c-444-48-392-388-654-636-114-108-254-173-400-246-177-88-342-28-580-53,54,212,75,496-67,683-85,112-287,281-496,242-94-303,57-748-79-960-192,211,3,720-114,960C12086,13123,12167,13168,12045,13121Z" fill="#648931" fill-rule="evenodd"/>
    <path id="Path_109" data-name="Path 109" d="M11165,2021c146,83,511-39,926-39,1145,0,2453,810,3264,392,177-91,366-413,52-440-111-9-403,128-647,128-152,0-876-262-1060-315-221-63-345-99-595-132-684-90-770-135-1508,34-82,19-303,67-355,91-9,5-20,10-28,15C10965,1902,11040,1900,11165,2021Z" fill="#dbeee9" fill-rule="evenodd"/>
    <path id="Path_110" data-name="Path 110" d="M6025,3073l-461,146c-323,102-224,41-347,299,211,101,690,81,930,81l664,189c399,30,1739,68,1883-472-189-258-548,0-728,0-162,89-388,75-564,39l-635-174C6327,3040,6605,3073,6025,3073Z" fill="#dbeee9" fill-rule="evenodd"/>
    <path id="Path_111" data-name="Path 111" d="M23130,12375l11-350c256-26,408-80,409,187,0,270-155,228-407,188,109,71,283,35,433,29,7,11,14,15,17,35s12,26,16,35l95,280c78,144,121,101,186,287,196,1,305,125,422,141,142,19,338-93,486-129,193-272,261-472,162-874-23-158-218-295-357-372-240-133-400-54-685-56-62,125-178,234-239,384-13-6-28-32-34-23l-60-46c-7-6-16-16-24-23-119-97-174-102-438-64C23075,12148,23072,12267,23130,12375Z" fill="#94be44" fill-rule="evenodd"/>
    <path id="Path_112" data-name="Path 112" d="M18271,11799c-75,133-827-179-940,499-38,231,21,479,122,614,116,154,277,193,438,287l21,468,129-1,10-443c24-6,474-169,477-170l-14,619,83-20-16-651c175,9,119,12,258,52l-229-116c124-557,111-724-283-1048,35-168,61-160,144-295C18312,11659,18351,11618,18271,11799Z" fill="#94be44" fill-rule="evenodd"/>
    <path id="Path_113" data-name="Path 113" d="M20314,3288c-17,301,1028-209,1505,37,476,245,1838,278,1838-292-95-22-61-16-115-14-643,137-498,449-1257,132-544-141-537-166-1049-168C21023,2982,20331,3041,20314,3288Z" fill="#dbeee9" fill-rule="evenodd"/>
    <path id="Path_114" data-name="Path 114" d="M9214,5114c-23,4-112,6-120,8-125,26,44-22-64,16-126,45-16-29-82,46,344-18,577-53,960-53,161,0,326-6,487-5,188,1,290,36,492,64-259-358-61,512-534-979-88-278-250-983-405-1034C9701,3525,9445,4831,9214,5114Z" fill="#ebc46b" fill-rule="evenodd"/>
    <path id="Path_115" data-name="Path 115" d="M11719,12028c-162,358-124,246-108,709,97,132,36,87,184,219,94,84,118,118,250,165,122,47,41,2,134,73,117-240-78-749,114-960,136,212-15,657,79,960,209,39,411-130,496-242,142-187,121-471,67-683-151-543-868-547-1099-359-13,10-53,52-69,68Z" fill="#94be44" fill-rule="evenodd"/>
    <path id="Path_116" data-name="Path 116" d="M10847,12735l764,2c-16-463-54-351,108-709,25-266,52-608-4-876l-834-4C10772,11284,10843,12450,10847,12735Z" fill="#47c4d2" fill-rule="evenodd"/>
    <path id="Path_117" data-name="Path 117" d="M21800,10021l2010,7-24-415c-206-87-1661-56-1991-31-13,144,10,117,12,211Z" fill="#d3ab5c" fill-rule="evenodd"/>
    <path id="Path_118" data-name="Path 118" d="M10930,7947c-2,77-9,185-6,265,1,45,3,77,11,121,28,163,13,70,32,115l1612,7-3-507Z" fill="#384b62" fill-rule="evenodd"/>
    <path id="Path_119" data-name="Path 119" d="M6875,13705l1091,6c315,0,409-2,232-270C7820,12871,6890,13167,6875,13705Z" fill="#102d4b" fill-rule="evenodd"/>
    <path id="Path_120" data-name="Path 120" d="M8523,12744l380-3c4-310,2-622,1-933-3-532,87-726-210-708-212,13-178,87-175,301Z" fill="#73b5a5" fill-rule="evenodd"/>
    <path id="Path_121" data-name="Path 121" d="M10228,13708l286,6,81-2,1014-2C11622,12927,10246,13017,10228,13708Z" fill="#102d4b" fill-rule="evenodd"/>
    <path id="Path_122" data-name="Path 122" d="M8570,13707l1378,4C9940,12969,8548,12989,8570,13707Z" fill="#102d4b" fill-rule="evenodd"/>
    <path id="Path_123" data-name="Path 123" d="M10939,8873l1665-18,5-347-1642-6C10885,8640,10922,8710,10939,8873Z" fill="#edcd84" fill-rule="evenodd"/>
    <path id="Path_124" data-name="Path 124" d="M1911,13692l1312,1C3205,12932,1938,12950,1911,13692Z" fill="#102d4b" fill-rule="evenodd"/>
    <path id="Path_125" data-name="Path 125" d="M24902,13694l-89-581c-2-20-8-24-15-35-148,36-344,148-486,129-117-16-226-140-422-141l2,606Z" fill="#94be44" stroke="#94be44" stroke-width="7.44" fill-rule="evenodd"/>
    <path id="Path_126" data-name="Path 126" d="M15502,13668h500c16-313,95-1006-231-1087C15434,12696,15480,13241,15502,13668Z" fill="#ebc46b" fill-rule="evenodd"/>
    <path id="Path_127" data-name="Path 127" d="M2059,12745c53,2,113,13,163-1,212-59,80-7,139-105l-246,13c-4-405,66-411,396-399,232,9,170-22,191,116,66-25,101-36,177-60,122-39,57,2,163-57l-4-369c-202,21-409,11-612,13-442,4-321-27-479-155,63,171,155,223,168,432C2129,12397,2043,12516,2059,12745Z" fill="#73b5a5" fill-rule="evenodd"/>
    <path id="Path_128" data-name="Path 128" d="M18041,13666l473,6,14-619c-3,1-453,164-477,170Z" fill="#ebc46b" fill-rule="evenodd"/>
    <path id="Path_129" data-name="Path 129" d="M18597,13652l288,4,78-176c61-215,67-386-124-427-139-40-83-43-258-52Z" fill="#73b5a5" fill-rule="evenodd"/>
    <path id="Path_130" data-name="Path 130" d="M23333,11259c-205,1-245,3-238,225,6,186,50,207,238,205,187-2,228-23,232-205C23571,11271,23534,11259,23333,11259Z" fill="#dbeee9" fill-rule="evenodd"/>
    <path id="Path_131" data-name="Path 131" d="M22484,11638c130-414-76-410-417-367C21973,11659,22137,11815,22484,11638Z" fill="#dbeee9" fill-rule="evenodd"/>
    <path id="Path_132" data-name="Path 132" d="M23293,10943c165,0,251,17,269-147,23-216,4-269-187-280-199-12-265-19-278,160C23081,10880,23099,10943,23293,10943Z" fill="#dbeee9" fill-rule="evenodd"/>
    <path id="Path_133" data-name="Path 133" d="M22460,10893c55-126,38-178,25-343l-435-10c-6,129-41,308,45,368C22172,10962,22359,10943,22460,10893Z" fill="#dbeee9" fill-rule="evenodd"/>
    <path id="Path_134" data-name="Path 134" d="M22071,12407c276,23,425,80,424-195,0-273-147-207-412-194Z" fill="#fefefd" fill-rule="evenodd"/>
    <path id="Path_135" data-name="Path 135" d="M23087,12204l6,114,50,82c70,31,315,122,433,29,32-25,53-75,53-137,0-21-8-148-1-169,0-177-178-124-293-141-76-11-126,10-212,22l-35,90Z" fill="#dbeee9" fill-rule="evenodd"/>
    <path id="Path_136" data-name="Path 136" d="M16910,12449l8,330c426,113,450-27,323-380C17091,12380,17002,12399,16910,12449Z" fill="#fbf4dc" fill-rule="evenodd"/>
    <path id="Path_137" data-name="Path 137" d="M15086,10797c38,131,523,170,381-228C15421,10440,14962,10376,15086,10797Z" fill="#fbf4dc" fill-rule="evenodd"/>
    <path id="Path_138" data-name="Path 138" d="M16392,10852c38-236,67-366-176-366-184,1-246,39-203,269C16046,10930,16212,10893,16392,10852Z" fill="#fbf4dc" fill-rule="evenodd"/>
    <path id="Path_139" data-name="Path 139" d="M16016,9827c0,143-25,158,85,197,78,28,232,15,277-34C16626,9721,16016,9415,16016,9827Z" fill="#fbf4dc" fill-rule="evenodd"/>
    <path id="Path_140" data-name="Path 140" d="M15246,9827l12,12C15257,9838,15241,9831,15246,9827Zm180-178-318-4c-60,240-81,397,178,390C15551,10028,15502,9828,15426,9649Z" fill="#fbf4dc" fill-rule="evenodd"/>
    <path id="Path_141" data-name="Path 141" d="M22578,12939c7,166-5,165,149,191,97,16,177,35,282,43l-8-337c-77-57-153-63-275-51C22594,12798,22593,12814,22578,12939Z" fill="#d1e2ce" fill-rule="evenodd"/>
    <path id="Path_142" data-name="Path 142" d="M15246,11485l12,12C15257,11496,15241,11489,15246,11485Zm221,185c16-215,57-337-181-343-264-6-213,118-196,357C15260,11718,15301,11727,15467,11670Z" fill="#fbf4dc" fill-rule="evenodd"/>
    <path id="Path_143" data-name="Path 143" d="M16024,11370c-26,361-24,373,357,341l-3-361Z" fill="#fbf4dc" fill-rule="evenodd"/>
    <path id="Path_144" data-name="Path 144" d="M14569,13204l89,135c-108-245-45-3647-35-4208l2292-10c8,301-53,597-20,867,42,354-29,518-13,809l28,1652c92-50,181-69,331-50,127,353,103,493-323,380l27,891,967-3-21-468c-161-94-322-133-438-287-101-135-160-383-122-614,113-678,865-366,940-499-199,26-266-53-475-9-216,45-128,67-405,69-267,2-625,141-416-395l1484,1,2,97c88-39,24,52,95-79l-7-535-1600-27c-19-165-39-221,29-385l1571,20,1-538c-163-14-635-23-780-11l-823,4,8-379,817,5c145,17,638-52,777-9l5-520c-502-49-296,1-556-15-1891,128-2896-23-3235,37-86,15,0,0-140,1-9,0,0,22,0,31C14600,9462,14682,10577,14569,13204Z" fill="#ebc46b" fill-rule="evenodd"/>
  </g>
</svg>
