<?xml version="1.0" encoding="UTF-8" ?>
<!DOCTYPE svg PUBLIC "-//W3C//DTD SVG 1.1//EN" "http://www.w3.org/Graphics/SVG/1.1/DTD/svg11.dtd">
<svg width="626pt" height="481pt" viewBox="0 0 626 481" version="1.1" xmlns="http://www.w3.org/2000/svg">
<g id="#ffffffff">
<path fill="#ffffff" opacity="1.00" d=" M 262.42 170.72 C 264.38 170.69 264.85 174.34 262.44 173.41 C 262.44 172.74 262.43 171.39 262.42 170.72 Z" />
<path fill="#ffffff" opacity="1.00" d=" M 307.90 176.98 C 305.64 177.96 308.08 171.67 310.22 174.26 C 309.61 175.30 308.67 176.07 307.90 176.98 Z" />
<path fill="#ffffff" opacity="1.00" d=" M 419.36 184.42 C 422.15 184.94 421.75 181.73 422.54 179.94 L 422.68 179.54 C 423.44 181.04 424.59 182.88 423.46 184.53 C 422.09 184.74 420.72 184.49 419.36 184.42 Z" />
<path fill="#ffffff" opacity="1.00" d=" M 433.38 180.47 C 434.02 181.59 434.60 182.74 435.08 183.94 C 433.24 184.91 431.12 184.69 429.12 184.88 C 429.21 184.45 429.38 183.61 429.47 183.18 C 430.42 184.42 431.52 184.66 432.77 183.90 C 432.92 183.05 433.23 181.33 433.38 180.47 Z" />
</g>
<g id="#4c4e4dff">
<path fill="#4c4e4d" opacity="1.00" d=" M 357.50 124.86 C 365.50 121.33 374.44 121.02 383.04 120.59 C 407.42 120.14 431.84 122.17 455.87 126.26 C 461.88 127.60 468.63 128.14 473.35 132.55 C 479.58 138.10 483.76 145.49 487.58 152.80 C 482.22 150.32 475.39 150.26 471.36 145.50 C 468.34 141.59 465.18 137.78 461.80 134.17 C 459.53 131.70 456.19 130.76 453.06 129.95 C 446.31 128.28 439.39 127.51 432.49 126.84 C 415.03 125.53 397.52 125.27 380.02 124.81 C 376.48 124.56 373.06 125.70 370.26 127.82 C 368.86 127.83 367.46 127.89 366.07 127.99 C 360.58 128.38 357.37 134.29 359.02 139.31 C 353.93 140.99 349.04 143.22 344.34 145.80 C 344.72 140.59 347.45 135.92 350.16 131.58 C 350.98 130.42 351.88 129.32 352.82 128.24 C 354.28 126.99 355.87 125.88 357.50 124.86 Z" />
</g>
<g id="#252525ff">
<path fill="#252525" opacity="1.00" d=" M 260.16 127.28 C 268.65 123.94 277.87 123.19 286.88 122.51 C 310.42 121.19 334.11 121.89 357.50 124.86 C 355.87 125.88 354.28 126.99 352.82 128.24 C 336.66 125.68 320.26 126.32 303.97 126.53 C 295.01 126.78 286.03 126.76 277.10 127.55 C 270.49 129.15 267.26 135.94 264.42 141.48 C 258.56 142.88 252.70 144.34 246.92 146.06 C 248.79 138.55 252.54 130.37 260.16 127.28 Z" />
</g>
<g id="#5d1b00ff">
<path fill="#5d1b00" opacity="1.00" d=" M 359.02 139.31 C 357.37 134.29 360.58 128.38 366.07 127.99 C 365.11 130.58 362.72 133.65 364.68 136.34 C 368.46 140.61 375.19 138.88 379.30 142.63 C 373.48 142.59 367.66 142.03 361.84 142.23 C 361.33 143.34 360.89 144.48 360.51 145.65 C 359.99 143.54 359.47 141.43 359.02 139.31 Z" />
</g>
<g id="#752700ff">
<path fill="#752700" opacity="1.00" d=" M 366.07 127.99 C 367.46 127.89 368.86 127.83 370.26 127.82 C 373.96 128.28 377.33 129.91 380.57 131.66 C 383.85 134.65 386.48 138.64 386.37 143.25 C 386.06 146.06 385.70 148.86 385.60 151.69 C 385.30 151.98 384.70 152.56 384.39 152.85 C 383.50 152.95 381.70 153.15 380.80 153.26 C 380.72 150.03 380.65 146.80 380.61 143.57 C 380.28 143.33 379.63 142.87 379.30 142.63 C 375.19 138.88 368.46 140.61 364.68 136.34 C 362.72 133.65 365.11 130.58 366.07 127.99 Z" />
</g>
<g id="#fe6c53ff">
<path fill="#fe6c53" opacity="1.00" d=" M 310.91 133.35 C 323.92 131.68 337.06 131.67 350.16 131.58 C 347.45 135.92 344.72 140.59 344.34 145.80 C 349.04 143.22 353.93 140.99 359.02 139.31 C 359.47 141.43 359.99 143.54 360.51 145.65 C 360.22 146.53 359.94 147.41 359.68 148.30 C 359.29 148.38 358.51 148.53 358.12 148.61 C 345.98 154.73 338.60 167.04 333.80 179.29 C 332.74 178.12 331.69 176.96 330.63 175.80 C 330.64 177.10 330.65 178.41 330.67 179.73 C 330.32 179.40 329.62 178.74 329.28 178.41 C 329.06 179.05 328.64 180.33 328.43 180.97 C 325.11 179.41 325.29 175.63 324.88 172.52 C 328.06 165.48 331.43 158.51 335.74 152.08 C 300.92 148.29 265.46 146.67 230.82 152.94 C 235.65 149.57 241.39 147.90 246.92 146.06 C 252.70 144.34 258.56 142.88 264.42 141.48 C 279.77 137.98 295.30 135.31 310.91 133.35 Z" />
<path fill="#fe6c53" opacity="1.00" d=" M 380.57 131.66 C 390.06 131.75 399.55 131.68 409.04 131.78 C 430.44 132.53 451.34 138.21 471.36 145.50 C 475.39 150.26 482.22 150.32 487.58 152.80 C 490.45 158.54 493.30 164.30 496.00 170.13 C 495.51 171.94 495.03 173.75 494.57 175.57 C 492.76 175.43 490.96 175.24 489.18 174.98 C 488.13 175.81 487.07 176.63 486.05 177.47 C 485.69 173.00 485.86 168.45 484.88 164.05 C 480.46 161.82 475.55 160.77 470.93 159.03 C 443.65 150.11 415.43 141.39 386.37 143.25 C 386.48 138.64 383.85 134.65 380.57 131.66 Z" />
</g>
<g id="#ffbc8fff">
<path fill="#ffbc8f" opacity="1.00" d=" M 360.51 145.65 C 360.89 144.48 361.33 143.34 361.84 142.23 C 367.66 142.03 373.48 142.59 379.30 142.63 C 379.63 142.87 380.28 143.33 380.61 143.57 C 380.65 146.80 380.72 150.03 380.80 153.26 C 378.14 153.84 375.40 154.12 372.76 153.25 C 370.88 153.39 368.62 154.52 367.31 152.55 C 367.51 153.22 367.89 154.55 368.09 155.22 C 365.37 152.80 361.93 152.34 358.48 153.09 L 358.74 151.04 L 359.16 150.79 C 361.40 150.70 363.64 150.74 365.88 150.76 C 365.80 150.11 365.64 148.80 365.56 148.15 C 363.59 148.17 361.63 148.19 359.68 148.30 C 359.94 147.41 360.22 146.53 360.51 145.65 M 370.15 148.12 C 370.15 148.82 370.15 150.21 370.14 150.91 C 372.36 151.20 374.58 151.48 376.80 151.75 C 376.82 151.17 376.86 150.00 376.88 149.42 C 374.67 148.83 372.42 148.38 370.15 148.12 Z" />
<path fill="#ffbc8f" opacity="1.00" d=" M 358.85 157.28 C 358.75 155.72 359.35 154.39 360.45 153.32 C 360.72 156.52 364.29 155.36 366.26 155.70 C 365.02 158.64 361.28 156.90 358.85 157.28 Z" />
</g>
<g id="#4f504fff">
<path fill="#4f504f" opacity="1.00" d=" M 386.37 143.25 C 415.43 141.39 443.65 150.11 470.93 159.03 C 475.55 160.77 480.46 161.82 484.88 164.05 C 485.86 168.45 485.69 173.00 486.05 177.47 C 486.61 187.77 486.84 198.08 487.26 208.38 C 487.01 210.11 486.75 211.84 486.49 213.57 C 480.12 214.30 473.70 214.33 467.31 214.79 C 467.79 216.50 468.28 218.22 468.76 219.94 C 468.20 218.25 467.65 216.55 467.11 214.86 C 446.60 215.82 426.10 217.07 405.60 218.20 C 405.21 218.23 404.43 218.28 404.04 218.30 C 402.69 218.39 401.35 218.48 400.02 218.57 L 399.90 217.53 C 399.99 215.04 398.90 212.85 397.55 210.84 C 394.76 204.33 392.80 197.50 390.24 190.90 C 388.95 187.52 385.52 185.81 382.81 183.73 C 382.42 182.42 382.03 181.10 381.66 179.79 C 383.94 180.09 386.25 180.18 388.55 180.26 C 388.02 174.10 387.02 167.99 386.04 161.88 C 388.62 159.25 390.05 153.07 385.60 151.69 C 385.70 148.86 386.06 146.06 386.37 143.25 M 390.22 145.40 C 390.42 146.42 390.64 147.44 390.86 148.46 C 393.16 158.86 394.82 169.41 397.23 179.79 C 400.49 180.45 403.90 180.19 407.20 179.92 C 405.51 182.08 404.19 185.19 405.17 187.90 C 406.08 190.28 409.02 189.55 410.99 189.80 C 412.31 192.05 413.54 194.37 414.34 196.86 C 414.00 196.88 413.32 196.93 412.97 196.95 C 410.46 195.15 406.58 194.44 405.20 197.95 L 405.00 197.53 C 403.03 197.73 401.07 197.94 399.11 198.17 C 399.37 203.51 400.42 208.77 401.07 214.07 C 401.13 215.13 401.63 215.93 402.57 216.46 C 404.75 216.41 406.94 216.31 409.09 215.84 C 409.62 215.76 410.68 215.62 411.21 215.54 C 413.06 215.52 414.91 215.44 416.76 215.37 C 419.24 215.26 421.71 215.09 424.18 214.86 L 424.17 214.62 C 424.88 214.66 426.32 214.76 427.03 214.81 C 429.11 214.65 431.20 214.51 433.29 214.37 C 434.79 214.28 436.30 214.20 437.82 214.13 C 440.02 214.05 442.23 213.88 444.42 213.59 C 448.86 213.41 453.36 213.55 457.68 212.33 C 456.37 206.32 454.05 200.51 450.87 195.24 C 449.49 192.59 445.98 194.16 443.67 194.16 C 442.81 193.57 441.93 193.00 441.03 192.47 C 439.45 193.19 437.92 194.01 436.50 195.01 C 436.06 195.00 435.17 194.99 434.72 194.99 C 435.02 194.48 435.63 193.47 435.93 192.97 C 436.55 191.17 437.42 189.47 438.51 187.91 C 438.66 184.77 437.66 181.72 435.08 179.81 C 438.09 180.01 441.11 180.10 444.13 180.07 C 442.66 172.87 440.10 165.95 438.23 158.85 C 437.58 157.15 437.58 154.62 435.34 154.28 C 435.24 153.06 435.24 151.80 434.65 150.69 L 432.97 151.67 L 433.13 150.57 C 419.15 146.97 404.67 145.01 390.22 145.40 M 442.21 153.05 C 442.76 154.36 442.66 156.41 443.75 157.25 C 445.99 162.70 447.97 168.27 450.52 173.58 L 450.43 173.82 C 451.28 175.94 452.13 178.06 452.99 180.17 C 455.47 185.61 457.02 191.48 460.07 196.64 C 461.90 191.19 463.02 185.53 464.74 180.04 C 466.85 180.11 468.98 180.12 471.10 179.98 C 468.43 187.56 466.46 195.36 463.99 203.00 C 462.58 206.25 464.94 209.32 465.89 212.32 C 468.72 212.35 471.55 212.19 474.35 211.74 C 477.25 202.43 480.32 193.17 483.70 184.03 C 484.19 181.99 483.73 179.88 483.59 177.83 C 483.45 173.71 483.22 169.60 482.73 165.51 C 480.62 164.87 478.52 164.18 476.47 163.39 C 474.02 162.60 471.57 161.80 469.15 160.97 C 464.66 159.52 460.14 158.19 455.71 156.62 C 451.18 155.53 446.79 153.93 442.21 153.05 Z" />
<path fill="#4f504f" opacity="1.00" d=" M 90.90 285.01 C 92.25 283.55 94.37 282.68 96.23 283.79 C 99.76 286.26 100.55 291.12 99.90 295.11 C 99.47 297.98 98.07 301.30 94.95 302.04 C 93.40 302.82 92.15 301.09 90.95 300.37 C 92.78 300.44 95.14 301.26 96.39 299.37 C 99.40 295.61 99.40 289.49 96.26 285.80 C 94.92 284.14 92.69 284.76 90.90 285.01 Z" />
<path fill="#4f504f" opacity="1.00" d=" M 185.09 290.09 C 185.91 284.48 193.62 281.21 198.11 284.85 C 203.61 288.61 203.24 298.18 197.19 301.19 C 193.16 303.56 187.61 301.29 185.95 297.04 C 186.34 297.51 187.10 298.44 187.48 298.91 C 190.34 301.40 195.05 301.53 197.60 298.53 C 200.82 295.27 200.29 289.78 197.48 286.43 C 193.38 283.03 186.52 284.84 185.09 290.09 Z" />
</g>
<g id="#617d80ff">
<path fill="#617d80" opacity="1.00" d=" M 390.22 145.40 C 404.67 145.01 419.15 146.97 433.13 150.57 C 431.78 151.57 430.46 152.59 429.14 153.62 L 428.93 153.55 C 416.55 150.22 403.65 148.97 390.86 148.46 C 390.64 147.44 390.42 146.42 390.22 145.40 Z" />
</g>
<g id="#6e2000ff">
<path fill="#6e2000" opacity="1.00" d=" M 358.12 148.61 C 358.51 148.53 359.29 148.38 359.68 148.30 C 361.63 148.19 363.59 148.17 365.56 148.15 C 365.64 148.80 365.80 150.11 365.88 150.76 C 363.64 150.74 361.40 150.70 359.16 150.79 C 358.90 150.25 358.38 149.16 358.12 148.61 Z" />
</g>
<g id="#702000ff">
<path fill="#702000" opacity="1.00" d=" M 370.15 148.12 C 372.42 148.38 374.67 148.83 376.88 149.42 C 376.86 150.00 376.82 151.17 376.80 151.75 C 374.58 151.48 372.36 151.20 370.14 150.91 C 370.15 150.21 370.15 148.82 370.15 148.12 Z" />
</g>
<g id="#494e4dff">
<path fill="#494e4d" opacity="1.00" d=" M 230.82 152.94 C 265.46 146.67 300.92 148.29 335.74 152.08 C 331.43 158.51 328.06 165.48 324.88 172.52 C 320.36 181.84 316.41 191.44 311.61 200.62 C 309.20 205.04 306.41 210.23 300.94 211.16 C 299.44 211.36 297.92 211.48 296.42 211.64 C 269.84 213.89 243.15 215.15 216.47 214.67 C 211.06 214.54 205.64 214.33 200.24 213.97 C 192.55 213.42 184.92 212.31 177.35 210.87 C 177.96 210.02 178.58 209.17 179.20 208.33 L 179.42 208.36 C 184.25 209.24 189.12 209.92 193.97 210.74 C 194.65 210.23 195.33 209.72 196.00 209.20 C 195.86 209.57 195.57 210.33 195.42 210.70 C 200.61 211.22 205.82 211.69 211.03 211.40 C 214.59 212.71 218.34 211.85 222.00 211.82 C 225.64 211.76 229.27 211.92 232.91 211.85 C 238.70 211.40 244.76 212.46 250.37 210.66 C 252.76 211.78 255.43 211.25 257.95 211.12 C 269.53 210.57 281.05 209.31 292.61 208.50 C 296.84 208.08 301.58 208.07 304.81 204.86 C 305.98 203.48 307.04 202.00 308.01 200.46 C 308.83 199.05 309.62 197.63 310.40 196.20 C 311.20 194.72 311.97 193.22 312.72 191.72 C 314.77 187.41 316.95 183.13 318.46 178.59 C 318.63 178.27 318.97 177.63 319.14 177.31 C 323.25 169.79 326.30 161.73 330.51 154.26 C 329.99 154.23 328.97 154.16 328.45 154.13 C 316.19 152.75 303.88 151.69 291.55 151.38 C 290.47 151.36 289.40 151.37 288.34 151.39 C 283.77 151.40 279.21 151.01 274.65 151.06 C 269.28 151.12 263.92 151.25 258.56 151.54 C 251.13 151.98 243.68 152.50 236.36 153.91 C 233.72 154.41 231.04 154.63 228.36 154.57 C 228.98 154.16 230.20 153.35 230.82 152.94 Z" />
</g>
<g id="#505150ff">
<path fill="#505150" opacity="1.00" d=" M 333.80 179.29 C 338.60 167.04 345.98 154.73 358.12 148.61 C 358.38 149.16 358.90 150.25 359.16 150.79 L 358.74 151.04 C 347.50 157.02 340.58 168.57 336.20 180.14 C 343.03 180.05 349.86 180.09 356.70 180.08 C 354.54 180.69 352.42 181.41 350.29 182.09 C 342.04 181.68 333.92 186.78 331.63 194.88 C 331.12 196.29 330.65 197.71 330.27 199.16 C 329.23 203.39 328.67 207.72 327.87 212.01 C 327.27 212.11 326.07 212.30 325.47 212.40 C 327.10 201.12 329.65 189.92 333.80 179.29 Z" />
</g>
<g id="#a2ecf5ff">
<path fill="#a2ecf5" opacity="1.00" d=" M 390.86 148.46 C 403.65 148.97 416.55 150.22 428.93 153.55 C 426.19 155.13 423.28 156.61 420.05 156.72 C 415.73 156.92 410.85 158.44 408.62 162.43 C 407.77 168.07 408.45 173.86 408.20 179.57 L 407.20 179.92 C 403.90 180.19 400.49 180.45 397.23 179.79 C 394.82 169.41 393.16 158.86 390.86 148.46 Z" />
<path fill="#a2ecf5" opacity="1.00" d=" M 236.36 153.91 C 243.68 152.50 251.13 151.98 258.56 151.54 C 257.53 152.35 256.50 153.16 255.46 153.95 C 248.85 157.16 243.56 162.33 237.74 166.69 C 233.19 170.06 229.41 174.32 225.01 177.88 C 220.22 181.79 216.46 186.74 212.01 191.01 C 207.71 195.14 204.28 200.07 199.95 204.17 C 197.79 204.09 195.63 204.18 193.48 204.32 C 206.60 186.57 220.84 169.62 236.36 153.91 Z" />
<path fill="#a2ecf5" opacity="1.00" d=" M 336.20 180.14 C 340.58 168.57 347.50 157.02 358.74 151.04 L 358.48 153.09 C 358.40 154.79 358.48 156.49 358.56 158.19 C 358.59 158.72 358.64 159.80 358.67 160.33 C 358.23 165.28 357.83 170.26 358.48 175.20 C 359.48 176.93 361.30 177.71 363.12 178.30 C 361.69 178.83 360.26 179.33 358.83 179.81 C 358.29 179.88 357.23 180.01 356.70 180.08 C 349.86 180.09 343.03 180.05 336.20 180.14 Z" />
</g>
<g id="#d2997bff">
<path fill="#d2997b" opacity="1.00" d=" M 258.56 151.54 C 263.92 151.25 269.28 151.12 274.65 151.06 C 276.78 152.72 278.88 154.47 280.54 156.62 C 277.42 158.79 273.35 160.03 271.23 163.36 C 268.53 164.25 265.79 165.04 263.08 165.87 C 263.45 166.29 264.19 167.13 264.56 167.55 C 264.46 167.91 264.27 168.62 264.17 168.98 C 263.60 168.76 262.46 168.31 261.90 168.08 C 258.39 167.44 255.24 169.65 252.00 170.64 C 252.18 172.17 252.35 173.71 252.61 175.25 L 253.01 175.74 C 251.42 176.65 249.83 177.55 248.23 178.44 C 248.92 169.95 250.04 160.88 255.46 153.95 C 256.50 153.16 257.53 152.35 258.56 151.54 Z" />
</g>
<g id="#c3f5fcff">
<path fill="#c3f5fc" opacity="1.00" d=" M 274.65 151.06 C 279.21 151.01 283.77 151.40 288.34 151.39 C 284.80 152.31 282.29 155.04 282.26 158.82 C 281.99 158.49 281.46 157.83 281.20 157.50 L 280.54 156.62 C 278.88 154.47 276.78 152.72 274.65 151.06 Z" />
</g>
<g id="#667d80ff">
<path fill="#667d80" opacity="1.00" d=" M 288.34 151.39 C 289.40 151.37 290.47 151.36 291.55 151.38 C 291.39 152.03 291.06 153.33 290.90 153.97 C 288.47 156.15 285.79 158.04 283.18 159.98 C 282.95 159.69 282.49 159.11 282.26 158.82 C 282.29 155.04 284.80 152.31 288.34 151.39 Z" />
</g>
<g id="#923100ff">
<path fill="#923100" opacity="1.00" d=" M 433.13 150.57 L 432.97 151.67 C 432.57 156.51 429.89 161.12 425.57 163.44 C 422.26 164.78 417.99 164.37 415.68 167.56 C 413.00 171.53 411.76 176.30 411.57 181.05 C 410.46 180.52 409.32 180.04 408.20 179.57 C 408.45 173.86 407.77 168.07 408.62 162.43 C 410.85 158.44 415.73 156.92 420.05 156.72 C 423.28 156.61 426.19 155.13 428.93 153.55 L 429.14 153.62 C 430.46 152.59 431.78 151.57 433.13 150.57 Z" />
<path fill="#923100" opacity="1.00" d=" M 269.58 168.47 C 270.63 168.00 271.69 167.52 272.74 167.03 C 273.04 167.27 273.64 167.74 273.94 167.97 C 274.45 168.37 275.48 169.17 275.99 169.57 C 275.04 169.36 274.08 169.14 273.13 168.97 C 272.24 168.84 270.47 168.59 269.58 168.47 Z" />
<path fill="#923100" opacity="1.00" d=" M 427.93 174.78 C 430.18 172.45 433.34 174.18 435.98 174.57 C 435.87 175.30 435.75 176.03 435.63 176.77 C 433.05 176.14 430.47 175.53 427.93 174.78 Z" />
<path fill="#923100" opacity="1.00" d=" M 278.88 187.45 C 280.57 186.25 282.30 185.11 284.04 183.98 C 284.03 184.42 283.99 185.31 283.97 185.75 C 280.01 187.77 275.27 190.18 275.05 195.28 C 273.48 194.80 271.92 194.31 270.34 193.89 C 273.20 191.76 275.96 189.50 278.88 187.45 Z" />
</g>
<g id="#7e2500ff">
<path fill="#7e2500" opacity="1.00" d=" M 432.97 151.67 L 434.65 150.69 C 433.64 157.76 438.04 164.27 436.32 171.38 C 435.73 169.64 435.08 167.92 434.44 166.20 C 428.60 169.16 421.92 167.41 415.68 167.56 C 417.99 164.37 422.26 164.78 425.57 163.44 C 429.89 161.12 432.57 156.51 432.97 151.67 Z" />
</g>
<g id="#a3edf7ff">
<path fill="#a3edf7" opacity="1.00" d=" M 434.65 150.69 C 435.24 151.80 435.24 153.06 435.34 154.28 C 437.58 154.62 437.58 157.15 438.23 158.85 C 440.10 165.95 442.66 172.87 444.13 180.07 C 441.11 180.10 438.09 180.01 435.08 179.81 C 435.22 179.05 435.49 177.53 435.63 176.77 C 435.75 176.03 435.87 175.30 435.98 174.57 C 436.07 173.77 436.24 172.18 436.32 171.38 C 438.04 164.27 433.64 157.76 434.65 150.69 Z" />
<path fill="#a3edf7" opacity="1.00" d=" M 233.26 191.29 C 238.19 187.57 242.35 182.75 248.02 180.10 C 247.83 181.48 247.64 182.87 247.47 184.26 C 239.83 187.96 235.70 196.58 236.48 204.89 C 230.29 204.70 224.10 204.62 217.90 204.61 L 218.08 204.46 C 223.24 200.17 227.93 195.36 233.26 191.29 Z" />
</g>
<g id="#c0f6fcff">
<path fill="#c0f6fc" opacity="1.00" d=" M 291.55 151.38 C 303.88 151.69 316.19 152.75 328.45 154.13 C 324.91 156.97 321.10 159.43 317.18 161.70 C 313.84 159.33 310.32 156.35 305.93 156.78 C 301.92 157.19 297.79 158.18 294.39 160.41 C 290.53 165.92 290.87 173.07 289.78 179.44 L 289.71 180.09 C 289.50 182.04 289.58 184.00 289.52 185.96 C 288.82 185.84 287.40 185.58 286.70 185.46 C 286.94 174.85 288.99 164.38 290.90 153.97 C 291.06 153.33 291.39 152.03 291.55 151.38 Z" />
</g>
<g id="#623f1fff">
<path fill="#623f1f" opacity="1.00" d=" M 358.48 153.09 C 361.93 152.34 365.37 152.80 368.09 155.22 C 367.89 154.55 367.51 153.22 367.31 152.55 C 368.62 154.52 370.88 153.39 372.76 153.25 C 375.40 154.12 378.14 153.84 380.80 153.26 C 381.70 153.15 383.50 152.95 384.39 152.85 C 384.03 153.17 383.29 153.82 382.93 154.14 C 382.44 154.29 381.45 154.58 380.96 154.73 C 379.44 155.08 377.91 155.41 376.39 155.76 C 376.21 156.71 376.03 157.66 375.86 158.62 C 373.72 158.64 371.58 158.68 369.45 158.71 C 371.88 157.97 375.19 158.34 376.32 155.51 C 375.20 155.70 372.95 156.08 371.82 156.28 C 371.37 155.64 370.48 154.38 370.03 153.75 C 368.85 155.16 368.41 156.83 368.72 158.75 C 368.36 158.03 367.63 156.60 367.27 155.88 L 366.47 156.89 C 365.37 157.43 364.21 157.84 363.05 158.20 C 361.55 158.21 360.05 158.21 358.56 158.19 C 358.48 156.49 358.40 154.79 358.48 153.09 M 358.85 157.28 C 361.28 156.90 365.02 158.64 366.26 155.70 C 364.29 155.36 360.72 156.52 360.45 153.32 C 359.35 154.39 358.75 155.72 358.85 157.28 Z" />
</g>
<g id="#fda774ff">
<path fill="#fda774" opacity="1.00" d=" M 384.39 152.85 C 384.70 152.56 385.30 151.98 385.60 151.69 C 390.05 153.07 388.62 159.25 386.04 161.88 C 385.44 161.84 384.25 161.76 383.65 161.72 C 383.40 159.20 383.10 156.67 382.93 154.14 C 383.29 153.82 384.03 153.17 384.39 152.85 Z" />
</g>
<g id="#637c81ff">
<path fill="#637c81" opacity="1.00" d=" M 442.21 153.05 C 446.79 153.93 451.18 155.53 455.71 156.62 C 455.03 157.43 454.35 158.23 453.67 159.03 C 453.24 159.08 452.38 159.19 451.95 159.24 C 449.28 158.32 446.54 157.61 443.75 157.25 C 442.66 156.41 442.76 154.36 442.21 153.05 Z" />
</g>
<g id="#627e81ff">
<path fill="#627e81" opacity="1.00" d=" M 228.25 154.57 L 228.36 154.57 C 231.04 154.63 233.72 154.41 236.36 153.91 C 220.84 169.62 206.60 186.57 193.48 204.32 C 191.04 204.29 188.61 204.04 186.24 203.45 C 186.82 201.69 187.40 199.92 188.09 198.20 C 200.99 183.23 213.93 168.22 228.25 154.57 Z" />
<path fill="#627e81" opacity="1.00" d=" M 270.35 171.58 C 270.47 171.47 270.72 171.27 270.85 171.17 C 271.29 171.21 272.19 171.28 272.63 171.32 C 273.06 172.29 273.48 173.26 273.88 174.25 C 272.86 174.30 271.85 174.35 270.84 174.40 C 270.72 173.70 270.47 172.28 270.35 171.58 Z" />
</g>
<g id="#c0f5fbff">
<path fill="#c0f5fb" opacity="1.00" d=" M 237.74 166.69 C 243.56 162.33 248.85 157.16 255.46 153.95 C 250.04 160.88 248.92 169.95 248.23 178.44 C 248.16 178.99 248.09 179.54 248.02 180.10 C 242.35 182.75 238.19 187.57 233.26 191.29 C 227.93 195.36 223.24 200.17 218.08 204.46 C 212.04 204.62 205.99 204.51 199.95 204.17 C 204.28 200.07 207.71 195.14 212.01 191.01 C 216.46 186.74 220.22 181.79 225.01 177.88 C 229.41 174.32 233.19 170.06 237.74 166.69 Z" />
<path fill="#c0f5fb" opacity="1.00" d=" M 454.00 159.89 C 459.00 161.34 463.96 162.90 468.90 164.56 C 467.13 169.66 466.10 174.97 464.20 180.02 C 460.46 179.90 456.72 180.04 452.99 180.17 C 452.13 178.06 451.28 175.94 450.43 173.82 L 450.52 173.58 C 452.44 169.24 453.20 164.54 454.00 159.89 Z" />
</g>
<g id="#94b9bdff">
<path fill="#94b9bd" opacity="1.00" d=" M 283.18 159.98 C 285.79 158.04 288.47 156.15 290.90 153.97 C 288.99 164.38 286.94 174.85 286.70 185.46 C 285.78 184.72 284.89 183.96 284.00 183.20 C 282.98 176.02 283.13 168.73 281.93 161.59 C 281.71 160.22 281.47 158.85 281.20 157.50 C 281.46 157.83 281.99 158.49 282.26 158.82 C 282.49 159.11 282.95 159.69 283.18 159.98 Z" />
</g>
<g id="#a2eef6ff">
<path fill="#a2eef6" opacity="1.00" d=" M 328.45 154.13 C 328.97 154.16 329.99 154.23 330.51 154.26 C 326.30 161.73 323.25 169.79 319.14 177.31 C 319.17 176.80 319.23 175.77 319.26 175.26 C 319.34 173.23 319.40 171.20 319.38 169.17 C 319.34 166.51 318.54 163.97 317.18 161.70 C 321.10 159.43 324.91 156.97 328.45 154.13 Z" />
</g>
<g id="#742600ff">
<path fill="#742600" opacity="1.00" d=" M 380.96 154.73 C 381.45 154.58 382.44 154.29 382.93 154.14 C 383.10 156.67 383.40 159.20 383.65 161.72 C 383.53 163.20 383.35 164.67 383.12 166.14 C 383.07 164.28 382.92 162.43 382.76 160.59 C 381.25 164.41 381.71 169.51 377.91 172.02 C 372.57 175.64 365.23 176.30 359.39 173.49 C 359.16 173.92 358.71 174.78 358.48 175.20 C 357.83 170.26 358.23 165.28 358.67 160.33 C 359.55 162.86 363.16 163.14 365.00 161.81 C 365.26 160.90 365.76 159.07 366.02 158.15 C 365.27 158.16 363.79 158.19 363.05 158.20 C 364.21 157.84 365.37 157.43 366.47 156.89 C 366.13 158.17 365.80 159.48 366.12 160.80 C 367.32 162.76 369.88 162.82 371.93 162.89 C 374.37 162.72 377.23 162.86 379.16 161.10 C 381.03 159.54 380.58 156.87 380.96 154.73 M 362.22 165.36 C 362.24 166.46 362.27 168.65 362.29 169.74 C 365.95 169.95 370.22 169.32 372.33 165.94 C 368.95 165.80 365.57 165.73 362.22 165.36 Z" />
</g>
<g id="#febc90ff">
<path fill="#febc90" opacity="1.00" d=" M 368.72 158.75 C 368.41 156.83 368.85 155.16 370.03 153.75 C 370.48 154.38 371.37 155.64 371.82 156.28 C 372.95 156.08 375.20 155.70 376.32 155.51 C 375.19 158.34 371.88 157.97 369.45 158.71 C 371.58 158.68 373.72 158.64 375.86 158.62 C 376.03 157.66 376.21 156.71 376.39 155.76 C 377.91 155.41 379.44 155.08 380.96 154.73 C 380.58 156.87 381.03 159.54 379.16 161.10 C 377.23 162.86 374.37 162.72 371.93 162.89 C 369.88 162.82 367.32 162.76 366.12 160.80 C 365.80 159.48 366.13 158.17 366.47 156.89 L 367.27 155.88 C 367.63 156.60 368.36 158.03 368.72 158.75 Z" />
</g>
<g id="#c14201ff">
<path fill="#c14201" opacity="1.00" d=" M 271.23 163.36 C 273.35 160.03 277.42 158.79 280.54 156.62 L 281.20 157.50 C 281.47 158.85 281.71 160.22 281.93 161.59 C 280.76 162.22 279.60 162.86 278.45 163.50 L 278.09 161.45 C 275.76 161.95 273.48 162.63 271.23 163.36 Z" />
</g>
<g id="#c6967aff">
<path fill="#c6967a" opacity="1.00" d=" M 294.39 160.41 C 297.79 158.18 301.92 157.19 305.93 156.78 C 310.32 156.35 313.84 159.33 317.18 161.70 C 314.33 163.46 311.48 165.24 308.65 167.03 L 308.29 167.27 C 307.69 166.19 307.10 165.13 306.51 164.06 C 305.05 165.72 303.76 167.59 301.96 168.90 C 300.19 169.89 298.18 170.37 296.47 171.47 C 294.90 172.97 294.44 175.21 293.73 177.18 C 293.59 177.67 293.31 178.65 293.18 179.15 L 293.09 177.78 C 291.97 178.32 290.87 178.87 289.78 179.44 C 290.87 173.07 290.53 165.92 294.39 160.41 Z" />
</g>
<g id="#a2edf5ff">
<path fill="#a2edf5" opacity="1.00" d=" M 443.75 157.25 C 446.54 157.61 449.28 158.32 451.95 159.24 C 452.46 159.40 453.49 159.73 454.00 159.89 C 453.20 164.54 452.44 169.24 450.52 173.58 C 447.97 168.27 445.99 162.70 443.75 157.25 Z" />
</g>
<g id="#95b9beff">
<path fill="#95b9be" opacity="1.00" d=" M 453.67 159.03 C 454.35 158.23 455.03 157.43 455.71 156.62 C 460.14 158.19 464.66 159.52 469.15 160.97 C 469.06 162.16 468.98 163.36 468.90 164.56 C 463.96 162.90 459.00 161.34 454.00 159.89 C 453.49 159.73 452.46 159.40 451.95 159.24 C 452.38 159.19 453.24 159.08 453.67 159.03 Z" />
</g>
<g id="#ffbb96ff">
<path fill="#ffbb96" opacity="1.00" d=" M 358.56 158.19 C 360.05 158.21 361.55 158.21 363.05 158.20 C 363.79 158.19 365.27 158.16 366.02 158.15 C 365.76 159.07 365.26 160.90 365.00 161.81 C 363.16 163.14 359.55 162.86 358.67 160.33 C 358.64 159.80 358.59 158.72 358.56 158.19 Z" />
</g>
<g id="#5d1900ff">
<path fill="#5d1900" opacity="1.00" d=" M 377.91 172.02 C 381.71 169.51 381.25 164.41 382.76 160.59 C 382.92 162.43 383.07 164.28 383.12 166.14 C 382.42 169.39 382.25 173.19 379.60 175.57 C 374.77 178.14 369.24 179.41 363.79 178.39 C 363.63 178.36 363.29 178.32 363.12 178.30 C 361.30 177.71 359.48 176.93 358.48 175.20 C 358.71 174.78 359.16 173.92 359.39 173.49 C 365.23 176.30 372.57 175.64 377.91 172.02 Z" />
</g>
<g id="#6a817fff">
<path fill="#6a817f" opacity="1.00" d=" M 469.15 160.97 C 471.57 161.80 474.02 162.60 476.47 163.39 C 475.96 164.57 475.45 165.75 474.98 166.95 C 472.95 166.15 470.93 165.35 468.90 164.56 C 468.98 163.36 469.06 162.16 469.15 160.97 Z" />
</g>
<g id="#ffb98cff">
<path fill="#ffb98c" opacity="1.00" d=" M 271.23 163.36 C 273.48 162.63 275.76 161.95 278.09 161.45 L 278.45 163.50 C 278.47 163.69 278.52 164.08 278.55 164.27 C 276.93 165.40 275.41 166.66 273.94 167.97 C 273.64 167.74 273.04 167.27 272.74 167.03 C 271.69 167.52 270.63 168.00 269.58 168.47 C 270.47 168.59 272.24 168.84 273.13 168.97 C 272.37 169.71 271.62 170.44 270.85 171.17 C 270.72 171.27 270.47 171.47 270.35 171.58 C 265.70 175.62 261.02 179.67 256.76 184.13 C 256.64 183.93 256.38 183.52 256.26 183.32 C 255.53 181.37 254.98 179.37 254.47 177.36 C 254.11 176.96 253.38 176.15 253.01 175.74 L 252.61 175.25 C 254.58 174.16 256.56 172.77 258.93 172.85 C 260.10 173.03 261.27 173.22 262.44 173.41 C 264.85 174.34 264.38 170.69 262.42 170.72 C 261.84 170.58 260.68 170.29 260.10 170.15 C 260.69 169.45 261.28 168.76 261.90 168.08 C 262.46 168.31 263.60 168.76 264.17 168.98 C 264.27 168.62 264.46 167.91 264.56 167.55 C 264.19 167.13 263.45 166.29 263.08 165.87 C 265.79 165.04 268.53 164.25 271.23 163.36 Z" />
</g>
<g id="#c7957bff">
<path fill="#c7957b" opacity="1.00" d=" M 278.45 163.50 C 279.60 162.86 280.76 162.22 281.93 161.59 C 283.13 168.73 282.98 176.02 284.00 183.20 L 284.04 183.98 C 282.30 185.11 280.57 186.25 278.88 187.45 C 277.64 186.66 276.41 185.86 275.18 185.07 C 278.76 178.82 279.33 171.30 278.55 164.27 C 278.52 164.08 278.47 163.69 278.45 163.50 Z" />
</g>
<g id="#a63801ff">
<path fill="#a63801" opacity="1.00" d=" M 308.65 167.03 C 311.48 165.24 314.33 163.46 317.18 161.70 C 318.54 163.97 319.34 166.51 319.38 169.17 C 316.84 169.94 314.19 170.25 311.58 169.67 C 310.59 168.80 309.61 167.92 308.65 167.03 Z" />
</g>
<g id="#a2eef7ff">
<path fill="#a2eef7" opacity="1.00" d=" M 383.65 161.72 C 384.25 161.76 385.44 161.84 386.04 161.88 C 387.02 167.99 388.02 174.10 388.55 180.26 C 386.25 180.18 383.94 180.09 381.66 179.79 C 380.95 179.60 380.24 179.40 379.54 179.20 C 379.56 178.29 379.59 176.48 379.60 175.57 C 382.25 173.19 382.42 169.39 383.12 166.14 C 383.35 164.67 383.53 163.20 383.65 161.72 Z" />
</g>
<g id="#fbdbc5ff">
<path fill="#fbdbc5" opacity="1.00" d=" M 306.51 164.06 C 307.10 165.13 307.69 166.19 308.29 167.27 C 306.06 168.72 303.94 170.34 301.84 171.98 C 301.86 173.40 301.88 174.83 301.91 176.26 C 301.68 176.08 301.23 175.71 301.00 175.52 C 300.78 174.67 300.33 172.97 300.11 172.12 C 298.90 173.14 297.70 174.16 296.47 175.15 C 295.56 175.84 294.65 176.51 293.73 177.18 C 294.44 175.21 294.90 172.97 296.47 171.47 C 298.18 170.37 300.19 169.89 301.96 168.90 C 303.76 167.59 305.05 165.72 306.51 164.06 Z" />
</g>
<g id="#95babdff">
<path fill="#95babd" opacity="1.00" d=" M 474.98 166.95 C 475.45 165.75 475.96 164.57 476.47 163.39 C 478.52 164.18 480.62 164.87 482.73 165.51 C 483.22 169.60 483.45 173.71 483.59 177.83 C 483.44 179.89 483.69 182.20 482.41 183.96 C 481.84 183.52 481.29 183.06 480.76 182.60 C 480.70 176.95 478.30 171.56 474.92 167.12 L 474.98 166.95 Z" />
</g>
<g id="#ffdac4ff">
<path fill="#ffdac4" opacity="1.00" d=" M 273.94 167.97 C 275.41 166.66 276.93 165.40 278.55 164.27 C 279.33 171.30 278.76 178.82 275.18 185.07 C 273.23 186.98 271.02 188.60 268.79 190.17 C 269.05 191.47 269.32 192.77 269.59 194.07 C 266.70 197.06 263.62 199.85 260.76 202.85 C 260.09 203.00 258.75 203.30 258.08 203.45 C 257.66 203.30 256.81 203.02 256.39 202.87 C 257.25 199.29 258.65 195.87 260.06 192.47 C 262.26 189.10 258.32 186.72 256.76 184.13 C 261.02 179.67 265.70 175.62 270.35 171.58 C 270.47 172.28 270.72 173.70 270.84 174.40 C 271.85 174.35 272.86 174.30 273.88 174.25 C 273.48 173.26 273.06 172.29 272.63 171.32 C 272.19 171.28 271.29 171.21 270.85 171.17 C 271.62 170.44 272.37 169.71 273.13 168.97 C 274.08 169.14 275.04 169.36 275.99 169.57 C 275.48 169.17 274.45 168.37 273.94 167.97 M 261.90 180.21 C 261.31 184.97 268.94 185.62 270.05 181.42 C 267.34 180.98 264.62 180.57 261.90 180.21 Z" />
</g>
<g id="#a2ecf6ff">
<path fill="#a2ecf6" opacity="1.00" d=" M 468.90 164.56 C 470.93 165.35 472.95 166.15 474.98 166.95 L 474.92 167.12 C 473.30 171.30 472.20 175.65 471.10 179.98 C 468.98 180.12 466.85 180.11 464.74 180.04 L 464.20 180.02 C 466.10 174.97 467.13 169.66 468.90 164.56 Z" />
</g>
<g id="#fcfdfeff">
<path fill="#fcfdfe" opacity="1.00" d=" M 362.22 165.36 C 365.57 165.73 368.95 165.80 372.33 165.94 C 370.22 169.32 365.95 169.95 362.29 169.74 C 362.27 168.65 362.24 166.46 362.22 165.36 Z" />
</g>
<g id="#feb88aff">
<path fill="#feb88a" opacity="1.00" d=" M 308.29 167.27 L 308.65 167.03 C 309.61 167.92 310.59 168.80 311.58 169.67 C 310.81 169.84 309.29 170.18 308.52 170.35 C 310.22 171.10 311.91 171.89 313.61 172.64 C 313.68 172.20 313.81 171.30 313.87 170.86 C 314.78 171.53 315.54 172.37 316.16 173.37 C 316.31 173.50 316.63 173.77 316.78 173.90 C 315.88 175.32 314.98 176.74 314.08 178.16 C 314.78 178.88 315.48 179.60 316.18 180.32 C 314.94 182.12 314.08 184.15 312.82 185.94 C 311.33 187.21 309.22 187.38 307.42 188.02 C 307.60 188.88 307.79 189.75 307.99 190.62 C 307.56 191.13 306.71 192.14 306.28 192.65 C 304.10 191.11 301.77 189.83 299.55 188.36 C 297.75 184.94 292.38 183.81 293.18 179.15 C 293.31 178.65 293.59 177.67 293.73 177.18 C 294.65 176.51 295.56 175.84 296.47 175.15 C 297.97 175.27 299.49 175.37 301.00 175.52 C 301.23 175.71 301.68 176.08 301.91 176.26 C 301.88 174.83 301.86 173.40 301.84 171.98 C 303.94 170.34 306.06 168.72 308.29 167.27 M 310.74 173.44 L 310.22 174.26 C 308.08 171.67 305.64 177.96 307.90 176.98 C 308.76 177.23 310.47 177.72 311.32 177.96 C 311.70 176.38 313.91 173.48 310.74 173.44 Z" />
</g>
<g id="#feb98cff">
<path fill="#feb98c" opacity="1.00" d=" M 415.68 167.56 C 421.92 167.41 428.60 169.16 434.44 166.20 C 435.08 167.92 435.73 169.64 436.32 171.38 C 436.24 172.18 436.07 173.77 435.98 174.57 C 433.34 174.18 430.18 172.45 427.93 174.78 C 430.47 175.53 433.05 176.14 435.63 176.77 C 435.49 177.53 435.22 179.05 435.08 179.81 C 437.66 181.72 438.66 184.77 438.51 187.91 C 437.42 189.47 436.55 191.17 435.93 192.97 C 430.31 194.04 424.08 196.30 418.69 193.23 C 413.89 191.12 412.93 185.53 411.57 181.05 C 411.76 176.30 413.00 171.53 415.68 167.56 M 416.00 174.10 C 416.14 174.51 416.42 175.34 416.57 175.75 C 418.86 175.79 421.15 175.47 423.45 175.30 C 423.52 174.79 423.66 173.78 423.73 173.27 C 421.13 173.31 418.54 173.56 416.00 174.10 M 418.63 179.38 C 418.46 181.11 418.08 182.97 419.36 184.42 C 420.72 184.49 422.09 184.74 423.46 184.53 C 424.59 182.88 423.44 181.04 422.68 179.54 L 422.54 179.94 L 422.67 179.55 C 421.42 178.38 419.90 178.24 418.63 179.38 M 429.48 180.48 C 429.48 181.15 429.47 182.51 429.47 183.18 C 429.38 183.61 429.21 184.45 429.12 184.88 C 431.12 184.69 433.24 184.91 435.08 183.94 C 434.60 182.74 434.02 181.59 433.38 180.47 C 432.41 180.47 430.46 180.48 429.48 180.48 M 419.89 189.33 C 421.89 191.40 424.69 193.15 427.69 192.57 C 428.77 192.08 428.44 190.55 428.88 189.61 C 425.88 189.71 422.88 189.59 419.89 189.33 Z" />
</g>
<g id="#fed9c8ff">
<path fill="#fed9c8" opacity="1.00" d=" M 252.00 170.64 C 255.24 169.65 258.39 167.44 261.90 168.08 C 261.28 168.76 260.69 169.45 260.10 170.15 C 259.66 171.03 259.27 171.93 258.93 172.85 C 256.56 172.77 254.58 174.16 252.61 175.25 C 252.35 173.71 252.18 172.17 252.00 170.64 Z" />
</g>
<g id="#c0f6fbff">
<path fill="#c0f6fb" opacity="1.00" d=" M 471.10 179.98 C 472.20 175.65 473.30 171.30 474.92 167.12 C 478.30 171.56 480.70 176.95 480.76 182.60 C 478.40 179.64 474.49 179.90 471.10 179.98 Z" />
</g>
<g id="#c53f2fff">
<path fill="#c53f2f" opacity="1.00" d=" M 311.58 169.67 C 314.19 170.25 316.84 169.94 319.38 169.17 C 319.40 171.20 319.34 173.23 319.26 175.26 C 318.64 174.92 317.40 174.24 316.78 173.90 C 316.63 173.77 316.31 173.50 316.16 173.37 C 315.54 172.37 314.78 171.53 313.87 170.86 C 313.81 171.30 313.68 172.20 313.61 172.64 C 311.91 171.89 310.22 171.10 308.52 170.35 C 309.29 170.18 310.81 169.84 311.58 169.67 Z" />
</g>
<g id="#1d1918ff">
<path fill="#1d1918" opacity="1.00" d=" M 258.93 172.85 C 259.27 171.93 259.66 171.03 260.10 170.15 C 260.68 170.29 261.84 170.58 262.42 170.72 C 262.43 171.39 262.44 172.74 262.44 173.41 C 261.27 173.22 260.10 173.03 258.93 172.85 Z" />
<path fill="#1d1918" opacity="1.00" d=" M 296.47 175.15 C 297.70 174.16 298.90 173.14 300.11 172.12 C 300.33 172.97 300.78 174.67 301.00 175.52 C 299.49 175.37 297.97 175.27 296.47 175.15 Z" />
<path fill="#1d1918" opacity="1.00" d=" M 310.74 173.44 C 313.91 173.48 311.70 176.38 311.32 177.96 C 310.47 177.72 308.76 177.23 307.90 176.98 C 308.67 176.07 309.61 175.30 310.22 174.26 L 310.74 173.44 Z" />
<path fill="#1d1918" opacity="1.00" d=" M 272.70 263.77 C 279.43 260.32 287.77 259.87 294.55 263.42 C 302.13 267.33 306.68 275.09 309.90 282.68 C 313.60 291.80 315.56 301.51 316.98 311.21 C 317.82 315.78 317.57 320.56 319.01 325.00 C 320.06 327.86 323.31 328.46 326.01 328.39 C 364.00 328.41 402.00 328.36 440.00 328.43 C 442.72 328.30 446.07 328.40 447.92 326.01 C 449.52 323.62 450.15 320.75 451.04 318.06 C 451.68 315.70 452.79 313.26 452.03 310.79 C 452.78 305.24 455.56 300.21 457.47 294.99 C 460.90 287.04 464.91 279.19 470.59 272.58 C 474.29 268.43 479.09 264.45 484.92 264.25 C 490.41 263.87 495.69 266.88 498.90 271.22 C 504.29 278.40 506.37 287.36 508.07 296.01 C 507.37 296.05 505.98 296.13 505.29 296.17 C 503.15 287.46 499.54 278.34 491.98 272.95 C 487.10 269.29 479.85 269.21 474.99 272.97 C 467.17 278.79 463.42 288.41 461.48 297.66 C 458.60 311.93 459.36 327.27 465.40 340.66 C 467.78 345.85 471.22 350.80 476.16 353.85 C 480.81 356.73 487.16 356.59 491.62 353.36 L 491.25 354.18 C 510.19 354.33 529.13 354.73 548.06 355.45 C 552.78 355.70 557.55 355.67 562.22 356.59 C 559.92 357.52 557.40 357.48 554.97 357.64 C 532.34 358.76 509.67 359.02 487.02 359.39 C 427.68 360.22 368.34 360.47 308.99 360.44 C 245.99 360.47 183.00 360.07 120.02 359.14 C 102.32 358.56 84.60 358.60 66.94 357.36 C 65.81 357.27 64.72 356.95 63.65 356.63 C 73.04 355.09 82.61 355.54 92.08 354.95 C 109.12 354.51 126.17 354.17 143.22 354.08 C 133.29 348.65 127.23 338.29 124.53 327.58 C 147.02 327.63 169.51 327.70 192.01 327.73 C 198.08 327.52 204.15 328.32 210.21 327.75 C 215.44 327.41 220.67 327.61 225.90 327.58 C 230.01 327.08 235.35 329.08 238.49 325.63 C 240.38 321.12 240.90 316.16 242.45 311.52 C 245.50 301.46 249.33 291.58 254.60 282.45 C 259.11 275.00 264.80 267.81 272.70 263.77 M 269.69 274.65 C 263.03 279.31 258.99 286.71 256.34 294.22 C 251.23 309.34 252.42 326.71 260.30 340.67 C 263.70 346.80 269.02 351.98 275.61 354.55 C 281.62 356.92 288.60 356.11 294.17 352.94 C 309.57 352.95 324.97 352.70 340.36 353.10 C 335.18 348.03 331.29 341.78 329.13 334.85 C 322.32 334.85 315.52 334.85 308.71 334.83 C 314.91 318.96 314.25 300.16 305.75 285.24 C 302.12 278.68 296.16 273.34 289.01 270.94 C 282.46 269.05 275.10 270.49 269.69 274.65 M 184.98 353.50 C 206.64 353.29 228.30 353.29 249.96 353.07 C 243.14 348.84 238.32 342.12 235.23 334.82 C 223.68 334.83 212.12 334.94 200.57 334.76 C 197.05 342.19 192.26 349.30 184.98 353.50 M 383.00 353.17 C 405.64 353.26 428.28 353.31 450.91 353.66 C 444.58 349.11 440.87 342.00 438.32 334.82 C 423.78 334.85 409.24 334.85 394.70 334.82 C 392.34 341.77 388.72 348.42 383.00 353.17 Z" />
</g>
<g id="#fe664dff">
<path fill="#fe664d" opacity="1.00" d=" M 494.57 175.57 C 495.03 173.75 495.51 171.94 496.00 170.13 C 498.27 174.72 500.41 179.37 502.61 183.99 C 503.51 185.95 504.44 187.91 505.40 189.86 C 507.25 193.74 509.10 197.63 510.91 201.54 C 510.40 201.92 509.36 202.69 508.84 203.08 C 509.59 204.75 510.33 206.43 511.08 208.11 C 509.76 207.17 508.46 206.23 507.17 205.27 C 507.45 203.20 507.29 201.10 505.96 199.39 C 505.46 201.08 505.00 202.79 504.59 204.51 C 504.05 203.71 503.48 202.95 502.89 202.21 C 498.11 201.57 493.27 202.05 488.47 202.16 C 488.06 204.23 487.63 206.30 487.26 208.38 C 486.84 198.08 486.61 187.77 486.05 177.47 C 487.07 176.63 488.13 175.81 489.18 174.98 C 490.96 175.24 492.76 175.43 494.57 175.57 Z" />
</g>
<g id="#fe6349ff">
<path fill="#fe6349" opacity="1.00" d=" M 311.61 200.62 C 316.41 191.44 320.36 181.84 324.88 172.52 C 325.29 175.63 325.11 179.41 328.43 180.97 C 328.64 180.33 329.06 179.05 329.28 178.41 C 329.62 178.74 330.32 179.40 330.67 179.73 C 330.65 178.41 330.64 177.10 330.63 175.80 C 331.69 176.96 332.74 178.12 333.80 179.29 C 329.65 189.92 327.10 201.12 325.47 212.40 C 326.07 212.30 327.27 212.11 327.87 212.01 C 328.59 211.91 330.01 211.70 330.72 211.60 C 331.08 209.04 331.37 206.46 331.86 203.92 C 332.73 203.40 333.60 202.88 334.48 202.37 C 334.70 202.99 335.16 204.24 335.38 204.86 C 347.08 205.04 358.83 205.50 370.49 204.48 C 370.59 207.81 370.17 211.36 368.14 214.12 C 365.39 217.30 361.13 218.77 357.02 218.93 C 349.22 219.41 341.37 219.14 333.61 218.39 C 329.78 218.11 326.71 215.70 324.39 212.83 C 324.26 213.71 324.02 215.46 323.89 216.34 C 323.26 214.89 322.55 213.48 321.85 212.07 C 321.32 212.99 320.80 213.91 320.28 214.83 C 320.10 214.22 319.76 212.99 319.58 212.38 C 316.75 212.28 313.90 211.95 311.29 210.77 C 308.29 212.89 305.12 214.93 301.39 215.36 C 301.66 214.68 301.94 213.99 302.22 213.31 C 301.79 212.59 301.36 211.87 300.94 211.16 C 306.41 210.23 309.20 205.04 311.61 200.62 Z" />
</g>
<g id="#8e2b01ff">
<path fill="#8e2b01" opacity="1.00" d=" M 416.00 174.10 C 418.54 173.56 421.13 173.31 423.73 173.27 C 423.66 173.78 423.52 174.79 423.45 175.30 C 421.15 175.47 418.86 175.79 416.57 175.75 C 416.42 175.34 416.14 174.51 416.00 174.10 Z" />
</g>
<g id="#f29f6dff">
<path fill="#f29f6d" opacity="1.00" d=" M 316.78 173.90 C 317.40 174.24 318.64 174.92 319.26 175.26 C 319.23 175.77 319.17 176.80 319.14 177.31 C 318.97 177.63 318.63 178.27 318.46 178.59 C 317.89 179.02 316.75 179.89 316.18 180.32 C 315.48 179.60 314.78 178.88 314.08 178.16 C 314.98 176.74 315.88 175.32 316.78 173.90 Z" />
</g>
<g id="#a03500ff">
<path fill="#a03500" opacity="1.00" d=" M 248.23 178.44 C 249.83 177.55 251.42 176.65 253.01 175.74 C 253.38 176.15 254.11 176.96 254.47 177.36 C 254.98 179.37 255.53 181.37 256.26 183.32 C 254.50 188.27 249.51 191.19 246.46 195.35 C 246.87 191.66 247.06 187.95 247.47 184.26 C 247.64 182.87 247.83 181.48 248.02 180.10 C 248.09 179.54 248.16 178.99 248.23 178.44 Z" />
</g>
<g id="#ffb27cff">
<path fill="#ffb27c" opacity="1.00" d=" M 363.79 178.39 C 369.24 179.41 374.77 178.14 379.60 175.57 C 379.59 176.48 379.56 178.29 379.54 179.20 C 375.82 180.58 371.84 180.97 368.07 182.17 C 366.77 183.09 365.86 184.44 364.83 185.62 C 364.81 183.17 364.64 180.70 363.79 178.39 Z" />
</g>
<g id="#942e00ff">
<path fill="#942e00" opacity="1.00" d=" M 289.78 179.44 C 290.87 178.87 291.97 178.32 293.09 177.78 L 293.18 179.15 C 292.38 183.81 297.75 184.94 299.55 188.36 C 296.47 187.11 293.23 186.32 289.97 185.75 C 289.88 183.86 289.79 181.97 289.71 180.09 L 289.78 179.44 Z" />
</g>
<g id="#010202ff">
<path fill="#010202" opacity="1.00" d=" M 418.63 179.38 C 419.90 178.24 421.42 178.38 422.67 179.55 L 422.54 179.94 C 421.75 181.73 422.15 184.94 419.36 184.42 C 418.08 182.97 418.46 181.11 418.63 179.38 Z" />
</g>
<g id="#8ba3a7ff">
<path fill="#8ba3a7" opacity="1.00" d=" M 483.59 177.83 C 483.73 179.88 484.19 181.99 483.70 184.03 C 480.32 193.17 477.25 202.43 474.35 211.74 C 471.55 212.19 468.72 212.35 465.89 212.32 C 464.94 209.32 462.58 206.25 463.99 203.00 C 466.46 195.36 468.43 187.56 471.10 179.98 C 474.49 179.90 478.40 179.64 480.76 182.60 C 481.29 183.06 481.84 183.52 482.41 183.96 C 483.69 182.20 483.44 179.89 483.59 177.83 Z" />
</g>
<g id="#7b2104ff">
<path fill="#7b2104" opacity="1.00" d=" M 316.18 180.32 C 316.75 179.89 317.89 179.02 318.46 178.59 C 316.95 183.13 314.77 187.41 312.72 191.72 C 311.14 191.34 309.56 190.98 307.99 190.62 C 307.79 189.75 307.60 188.88 307.42 188.02 C 309.22 187.38 311.33 187.21 312.82 185.94 C 314.08 184.15 314.94 182.12 316.18 180.32 Z" />
</g>
<g id="#6b9b64ff">
<path fill="#6b9b64" opacity="1.00" d=" M 358.83 179.81 C 360.26 179.33 361.69 178.83 363.12 178.30 C 363.29 178.32 363.63 178.36 363.79 178.39 C 364.64 180.70 364.81 183.17 364.83 185.62 C 365.86 184.44 366.77 183.09 368.07 182.17 C 371.84 180.97 375.82 180.58 379.54 179.20 C 380.24 179.40 380.95 179.60 381.66 179.79 C 382.03 181.10 382.42 182.42 382.81 183.73 C 378.16 184.94 373.57 186.34 368.99 187.75 C 368.03 187.26 367.09 186.77 366.15 186.28 C 365.57 186.68 365.00 187.08 364.44 187.48 C 364.30 186.94 364.03 185.85 363.90 185.31 C 362.68 185.46 361.46 185.62 360.25 185.77 C 359.77 183.79 359.29 181.80 358.83 179.81 Z" />
</g>
<g id="#feffffff">
<path fill="#feffff" opacity="1.00" d=" M 261.90 180.21 C 264.62 180.57 267.34 180.98 270.05 181.42 C 268.94 185.62 261.31 184.97 261.90 180.21 Z" />
</g>
<g id="#3e403fff">
<path fill="#3e403f" opacity="1.00" d=" M 289.52 185.96 C 289.58 184.00 289.50 182.04 289.71 180.09 C 289.79 181.97 289.88 183.86 289.97 185.75 C 293.23 186.32 296.47 187.11 299.55 188.36 C 301.77 189.83 304.10 191.11 306.28 192.65 C 307.71 193.76 309.05 194.99 310.40 196.20 C 309.62 197.63 308.83 199.05 308.01 200.46 C 304.70 201.10 301.38 201.62 298.04 202.00 C 300.30 202.93 302.56 203.88 304.81 204.86 C 301.58 208.07 296.84 208.08 292.61 208.50 C 281.05 209.31 269.53 210.57 257.95 211.12 C 255.43 211.25 252.76 211.78 250.37 210.66 C 252.90 208.43 255.27 206.03 257.57 203.57 C 257.70 203.54 257.95 203.48 258.08 203.45 C 258.75 203.30 260.09 203.00 260.76 202.85 C 265.73 201.99 270.77 201.52 275.75 200.66 C 275.49 198.87 275.22 197.08 275.05 195.28 C 275.27 190.18 280.01 187.77 283.97 185.75 C 283.99 185.31 284.03 184.42 284.04 183.98 L 284.00 183.20 C 284.89 183.96 285.78 184.72 286.70 185.46 C 287.40 185.58 288.82 185.84 289.52 185.96 M 284.18 192.22 C 282.35 193.44 281.75 195.65 281.01 197.59 C 285.81 198.28 290.66 198.48 295.48 197.90 C 298.44 197.66 301.40 197.32 304.31 196.69 C 301.37 193.14 296.66 191.95 292.41 190.77 C 289.65 190.82 286.52 190.42 284.18 192.22 Z" />
</g>
<g id="#8fcf85ff">
<path fill="#8fcf85" opacity="1.00" d=" M 356.70 180.08 C 357.23 180.01 358.29 179.88 358.83 179.81 C 359.29 181.80 359.77 183.79 360.25 185.77 C 361.46 185.62 362.68 185.46 363.90 185.31 C 364.03 185.85 364.30 186.94 364.44 187.48 C 365.00 187.08 365.57 186.68 366.15 186.28 C 367.09 186.77 368.03 187.26 368.99 187.75 C 373.57 186.34 378.16 184.94 382.81 183.73 C 385.52 185.81 388.95 187.52 390.24 190.90 C 392.80 197.50 394.76 204.33 397.55 210.84 L 397.41 212.26 C 392.43 213.86 387.32 215.15 382.10 215.61 C 382.14 216.01 382.22 216.82 382.26 217.22 C 379.60 217.31 376.94 217.36 374.28 217.38 C 375.97 211.17 374.06 204.59 370.32 199.52 C 366.94 195.56 362.23 192.56 357.00 191.91 C 349.71 190.97 341.29 191.10 335.84 196.80 C 335.44 195.62 335.04 194.44 334.65 193.27 C 340.04 189.79 345.12 185.87 350.29 182.09 C 352.42 181.41 354.54 180.69 356.70 180.08 Z" />
</g>
<g id="#ffa978ff">
<path fill="#ffa978" opacity="1.00" d=" M 407.20 179.92 L 408.20 179.57 C 409.32 180.04 410.46 180.52 411.57 181.05 C 412.93 185.53 413.89 191.12 418.69 193.23 C 424.08 196.30 430.31 194.04 435.93 192.97 C 435.63 193.47 435.02 194.48 434.72 194.99 C 431.82 195.41 428.89 195.64 425.97 195.88 C 422.99 196.09 420.03 196.40 417.07 196.67 C 416.39 196.72 415.03 196.81 414.34 196.86 C 413.54 194.37 412.31 192.05 410.99 189.80 C 409.02 189.55 406.08 190.28 405.17 187.90 C 404.19 185.19 405.51 182.08 407.20 179.92 Z" />
</g>
<g id="#8aa2a7ff">
<path fill="#8aa2a7" opacity="1.00" d=" M 452.99 180.17 C 456.72 180.04 460.46 179.90 464.20 180.02 L 464.74 180.04 C 463.02 185.53 461.90 191.19 460.07 196.64 C 457.02 191.48 455.47 185.61 452.99 180.17 Z" />
</g>
<g id="#050808ff">
<path fill="#050808" opacity="1.00" d=" M 429.48 180.48 C 430.46 180.48 432.41 180.47 433.38 180.47 C 433.23 181.33 432.92 183.05 432.77 183.90 C 431.52 184.66 430.42 184.42 429.47 183.18 C 429.47 182.51 429.48 181.15 429.48 180.48 Z" />
</g>
<g id="#696a6dff">
<path fill="#696a6d" opacity="1.00" d=" M 331.63 194.88 C 333.92 186.78 342.04 181.68 350.29 182.09 C 345.12 185.87 340.04 189.79 334.65 193.27 C 333.66 193.84 332.64 194.35 331.63 194.88 Z" />
</g>
<g id="#ad8c7cff">
<path fill="#ad8c7c" opacity="1.00" d=" M 256.26 183.32 C 256.38 183.52 256.64 183.93 256.76 184.13 C 258.32 186.72 262.26 189.10 260.06 192.47 C 257.39 192.93 254.65 193.08 252.08 193.94 C 249.90 195.46 248.15 197.50 246.26 199.34 C 246.16 198.55 245.94 196.97 245.83 196.18 C 245.99 195.97 246.31 195.56 246.46 195.35 C 249.51 191.19 254.50 188.27 256.26 183.32 Z" />
</g>
<g id="#4d4f4eff">
<path fill="#4d4f4e" opacity="1.00" d=" M 502.61 183.99 C 510.54 182.62 518.91 184.69 525.21 189.72 C 533.91 196.34 538.73 206.72 541.19 217.13 L 541.04 217.72 C 539.55 222.97 538.73 228.46 536.25 233.38 C 533.79 238.77 529.90 243.28 526.38 247.98 C 526.26 246.92 526.14 245.86 526.03 244.81 C 525.40 239.79 524.98 234.74 523.95 229.80 C 523.46 228.43 522.93 227.08 522.35 225.76 C 523.34 218.35 520.68 211.01 517.70 204.35 C 514.74 198.75 511.15 192.92 505.40 189.86 C 504.44 187.91 503.51 185.95 502.61 183.99 Z" />
</g>
<g id="#6a6a6aff">
<path fill="#6a6a6a" opacity="1.00" d=" M 236.48 204.89 C 235.70 196.58 239.83 187.96 247.47 184.26 C 247.06 187.95 246.87 191.66 246.46 195.35 C 246.31 195.56 245.99 195.97 245.83 196.18 C 243.13 198.94 240.56 201.82 238.23 204.90 L 236.48 204.89 Z" />
</g>
<g id="#b38b7cff">
<path fill="#b38b7c" opacity="1.00" d=" M 275.18 185.07 C 276.41 185.86 277.64 186.66 278.88 187.45 C 275.96 189.50 273.20 191.76 270.34 193.89 L 269.59 194.07 C 269.32 192.77 269.05 191.47 268.79 190.17 C 271.02 188.60 273.23 186.98 275.18 185.07 Z" />
</g>
<g id="#fffdfcff">
<path fill="#fffdfc" opacity="1.00" d=" M 419.89 189.33 C 422.88 189.59 425.88 189.71 428.88 189.61 C 428.44 190.55 428.77 192.08 427.69 192.57 C 424.69 193.15 421.89 191.40 419.89 189.33 Z" />
</g>
<g id="#2f3031ff">
<path fill="#2f3031" opacity="1.00" d=" M 505.40 189.86 C 511.15 192.92 514.74 198.75 517.70 204.35 C 520.68 211.01 523.34 218.35 522.35 225.76 C 518.42 217.74 514.76 209.60 510.91 201.54 C 509.10 197.63 507.25 193.74 505.40 189.86 Z" />
</g>
<g id="#696b6bff">
<path fill="#696b6b" opacity="1.00" d=" M 284.18 192.22 C 286.52 190.42 289.65 190.82 292.41 190.77 C 293.53 193.10 294.56 195.48 295.48 197.90 C 290.66 198.48 285.81 198.28 281.01 197.59 C 281.75 195.65 282.35 193.44 284.18 192.22 Z" />
</g>
<g id="#ff627cff">
<path fill="#ff627c" opacity="1.00" d=" M 292.41 190.77 C 296.66 191.95 301.37 193.14 304.31 196.69 C 301.40 197.32 298.44 197.66 295.48 197.90 C 294.56 195.48 293.53 193.10 292.41 190.77 Z" />
</g>
<g id="#e85e73ff">
<path fill="#e85e73" opacity="1.00" d=" M 307.99 190.62 C 309.56 190.98 311.14 191.34 312.72 191.72 C 311.97 193.22 311.20 194.72 310.40 196.20 C 309.05 194.99 307.71 193.76 306.28 192.65 C 306.71 192.14 307.56 191.13 307.99 190.62 Z" />
</g>
<g id="#fab0a9ff">
<path fill="#fab0a9" opacity="1.00" d=" M 252.08 193.94 C 254.65 193.08 257.39 192.93 260.06 192.47 C 258.65 195.87 257.25 199.29 256.39 202.87 C 256.81 203.02 257.66 203.30 258.08 203.45 C 257.95 203.48 257.70 203.54 257.57 203.57 C 252.28 204.32 246.97 205.54 241.60 204.90 C 243.06 202.97 244.63 201.13 246.26 199.34 C 248.15 197.50 249.90 195.46 252.08 193.94 Z" />
</g>
<g id="#fe6b53ff">
<path fill="#fe6b53" opacity="1.00" d=" M 335.84 196.80 C 341.29 191.10 349.71 190.97 357.00 191.91 C 362.23 192.56 366.94 195.56 370.32 199.52 C 370.37 201.17 370.45 202.82 370.49 204.48 C 358.83 205.50 347.08 205.04 335.38 204.86 C 335.16 204.24 334.70 202.99 334.48 202.37 C 333.60 202.88 332.73 203.40 331.86 203.92 C 332.04 203.41 332.38 202.40 332.56 201.89 C 333.51 200.11 334.61 198.40 335.84 196.80 Z" />
</g>
<g id="#6d9b63ff">
<path fill="#6d9b63" opacity="1.00" d=" M 331.63 194.88 C 332.64 194.35 333.66 193.84 334.65 193.27 C 335.04 194.44 335.44 195.62 335.84 196.80 C 334.61 198.40 333.51 200.11 332.56 201.89 C 331.79 200.97 331.03 200.06 330.27 199.16 C 330.65 197.71 331.12 196.29 331.63 194.88 Z" />
</g>
<g id="#ffbb8aff">
<path fill="#ffbb8a" opacity="1.00" d=" M 436.50 195.01 C 437.92 194.01 439.45 193.19 441.03 192.47 C 441.93 193.00 442.81 193.57 443.67 194.16 C 443.93 195.51 444.13 196.88 444.28 198.25 C 442.05 198.53 439.81 198.79 437.58 199.05 C 437.29 197.68 436.91 196.34 436.50 195.01 Z" />
</g>
<g id="#f56c57ff">
<path fill="#f56c57" opacity="1.00" d=" M 260.76 202.85 C 263.62 199.85 266.70 197.06 269.59 194.07 L 270.34 193.89 C 271.92 194.31 273.48 194.80 275.05 195.28 C 275.22 197.08 275.49 198.87 275.75 200.66 C 270.77 201.52 265.73 201.99 260.76 202.85 Z" />
</g>
<g id="#6b8a8eff">
<path fill="#6b8a8e" opacity="1.00" d=" M 443.67 194.16 C 445.98 194.16 449.49 192.59 450.87 195.24 C 454.05 200.51 456.37 206.32 457.68 212.33 C 453.36 213.55 448.86 213.41 444.42 213.59 C 444.42 208.48 444.55 203.36 444.28 198.25 C 444.13 196.88 443.93 195.51 443.67 194.16 Z" />
</g>
<g id="#9bc2c6ff">
<path fill="#9bc2c6" opacity="1.00" d=" M 425.97 195.88 C 428.89 195.64 431.82 195.41 434.72 194.99 C 434.38 197.93 434.16 200.89 433.97 203.86 C 432.27 203.39 430.58 202.91 428.85 202.59 C 428.98 200.97 429.11 199.36 429.25 197.75 C 428.40 197.72 426.70 197.65 425.85 197.61 C 425.88 197.18 425.94 196.31 425.97 195.88 Z" />
</g>
<g id="#6a898bff">
<path fill="#6a898b" opacity="1.00" d=" M 434.72 194.99 C 435.17 194.99 436.06 195.00 436.50 195.01 C 436.91 196.34 437.29 197.68 437.58 199.05 C 437.63 201.02 437.59 202.99 437.57 204.96 C 436.36 204.59 435.16 204.22 433.97 203.86 C 434.16 200.89 434.38 197.93 434.72 194.99 Z" />
</g>
<g id="#ffbd8cff">
<path fill="#ffbd8c" opacity="1.00" d=" M 405.20 197.95 C 406.58 194.44 410.46 195.15 412.97 196.95 C 412.57 198.50 412.15 200.04 411.64 201.56 C 410.02 201.53 408.41 201.46 406.80 201.39 C 406.26 200.24 405.72 199.09 405.20 197.95 Z" />
</g>
<g id="#d2d6d0ff">
<path fill="#d2d6d0" opacity="1.00" d=" M 417.07 196.67 C 420.03 196.40 422.99 196.09 425.97 195.88 C 425.94 196.31 425.88 197.18 425.85 197.61 C 425.77 199.19 425.68 200.77 425.58 202.35 C 425.44 203.63 425.25 204.90 425.08 206.18 L 423.91 205.68 C 422.02 205.50 420.11 205.54 418.22 205.53 C 418.33 206.25 418.44 206.97 418.56 207.69 C 418.20 207.81 417.48 208.04 417.13 208.15 L 416.64 207.50 C 416.93 204.06 417.12 200.61 417.05 197.15 L 417.07 196.67 Z" />
</g>
<g id="#7b999bff">
<path fill="#7b999b" opacity="1.00" d=" M 238.23 204.90 C 240.56 201.82 243.13 198.94 245.83 196.18 C 245.94 196.97 246.16 198.55 246.26 199.34 C 244.63 201.13 243.06 202.97 241.60 204.90 C 246.97 205.54 252.28 204.32 257.57 203.57 C 255.27 206.03 252.90 208.43 250.37 210.66 C 244.76 212.46 238.70 211.40 232.91 211.85 C 234.72 209.57 236.48 207.24 238.23 204.90 Z" />
</g>
<g id="#648c8aff">
<path fill="#648c8a" opacity="1.00" d=" M 412.97 196.95 C 413.32 196.93 414.00 196.88 414.34 196.86 C 415.03 196.81 416.39 196.72 417.07 196.67 L 417.05 197.15 C 416.47 197.30 415.31 197.58 414.73 197.72 C 414.48 199.77 414.24 201.83 413.94 203.87 C 413.22 203.81 411.76 203.69 411.04 203.63 C 411.19 203.11 411.49 202.08 411.64 201.56 C 412.15 200.04 412.57 198.50 412.97 196.95 Z" />
</g>
<g id="#3f403eff">
<path fill="#3f403e" opacity="1.00" d=" M 179.42 208.36 C 182.21 204.89 185.12 201.52 188.09 198.20 C 187.40 199.92 186.82 201.69 186.24 203.45 C 188.61 204.04 191.04 204.29 193.48 204.32 C 195.56 204.41 197.64 204.58 199.72 204.76 C 198.49 206.24 197.24 207.72 196.00 209.20 C 195.33 209.72 194.65 210.23 193.97 210.74 C 189.12 209.92 184.25 209.24 179.42 208.36 Z" />
</g>
<g id="#6a8c91ff">
<path fill="#6a8c91" opacity="1.00" d=" M 399.11 198.17 C 401.07 197.94 403.03 197.73 405.00 197.53 C 404.61 203.89 403.82 210.22 402.57 216.46 C 401.63 215.93 401.13 215.13 401.07 214.07 C 400.42 208.77 399.37 203.51 399.11 198.17 Z" />
</g>
<g id="#bcbbaaff">
<path fill="#bcbbaa" opacity="1.00" d=" M 405.00 197.53 L 405.20 197.95 C 405.72 199.09 406.26 200.24 406.80 201.39 C 408.41 201.46 410.02 201.53 411.64 201.56 C 411.49 202.08 411.19 203.11 411.04 203.63 C 410.39 207.70 409.78 211.77 409.09 215.84 C 406.94 216.31 404.75 216.41 402.57 216.46 C 403.82 210.22 404.61 203.89 405.00 197.53 Z" />
</g>
<g id="#bdbdabff">
<path fill="#bdbdab" opacity="1.00" d=" M 414.73 197.72 C 415.31 197.58 416.47 197.30 417.05 197.15 C 417.12 200.61 416.93 204.06 416.64 207.50 C 415.72 206.31 414.82 205.09 413.94 203.87 C 414.24 201.83 414.48 199.77 414.73 197.72 Z" />
</g>
<g id="#738e8cff">
<path fill="#738e8c" opacity="1.00" d=" M 425.85 197.61 C 426.70 197.65 428.40 197.72 429.25 197.75 C 429.11 199.36 428.98 200.97 428.85 202.59 C 428.03 202.53 426.40 202.41 425.58 202.35 C 425.68 200.77 425.77 199.19 425.85 197.61 Z" />
</g>
<g id="#bdbaa7ff">
<path fill="#bdbaa7" opacity="1.00" d=" M 437.58 199.05 C 439.81 198.79 442.05 198.53 444.28 198.25 C 444.55 203.36 444.42 208.48 444.42 213.59 C 442.23 213.88 440.02 214.05 437.82 214.13 C 437.62 211.08 437.50 208.02 437.57 204.96 C 437.59 202.99 437.63 201.02 437.58 199.05 Z" />
</g>
<g id="#ff4e6bff">
<path fill="#ff4e6b" opacity="1.00" d=" M 298.04 202.00 C 301.38 201.62 304.70 201.10 308.01 200.46 C 307.04 202.00 305.98 203.48 304.81 204.86 C 302.56 203.88 300.30 202.93 298.04 202.00 Z" />
</g>
<g id="#fdc498ff">
<path fill="#fdc498" opacity="1.00" d=" M 330.27 199.16 C 331.03 200.06 331.79 200.97 332.56 201.89 C 332.38 202.40 332.04 203.41 331.86 203.92 C 331.37 206.46 331.08 209.04 330.72 211.60 C 330.01 211.70 328.59 211.91 327.87 212.01 C 328.67 207.72 329.23 203.39 330.27 199.16 Z" />
</g>
<g id="#f03c29ff">
<path fill="#f03c29" opacity="1.00" d=" M 370.32 199.52 C 374.06 204.59 375.97 211.17 374.28 217.38 C 373.66 218.25 372.97 219.07 372.30 219.90 C 371.06 220.86 369.77 221.78 368.35 222.44 C 363.05 222.38 357.67 221.57 352.45 222.86 C 344.26 222.63 336.04 222.44 327.86 223.20 C 327.28 223.24 326.11 223.33 325.52 223.37 C 324.79 221.07 324.25 218.72 323.89 216.34 C 324.02 215.46 324.26 213.71 324.39 212.83 C 326.71 215.70 329.78 218.11 333.61 218.39 C 341.37 219.14 349.22 219.41 357.02 218.93 C 361.13 218.77 365.39 217.30 368.14 214.12 C 370.17 211.36 370.59 207.81 370.49 204.48 C 370.45 202.82 370.37 201.17 370.32 199.52 Z" />
</g>
<g id="#fe5f45ff">
<path fill="#fe5f45" opacity="1.00" d=" M 504.59 204.51 C 505.00 202.79 505.46 201.08 505.96 199.39 C 507.29 201.10 507.45 203.20 507.17 205.27 C 508.46 206.23 509.76 207.17 511.08 208.11 C 510.33 206.43 509.59 204.75 508.84 203.08 C 509.36 202.69 510.40 201.92 510.91 201.54 C 514.76 209.60 518.42 217.74 522.35 225.76 C 522.93 227.08 523.46 228.43 523.95 229.80 C 507.57 231.25 491.11 231.65 474.73 232.95 C 473.42 229.54 471.97 226.19 470.43 222.88 C 470.31 223.61 470.06 225.07 469.93 225.80 C 469.56 225.76 468.83 225.68 468.46 225.64 C 466.83 223.88 465.76 220.93 463.02 220.75 C 460.56 220.41 458.95 222.55 457.31 223.98 C 457.46 224.54 457.75 225.65 457.89 226.21 C 455.78 227.37 453.20 228.31 452.06 230.60 C 453.59 231.25 455.17 231.74 456.78 232.16 C 457.06 232.63 457.61 233.56 457.89 234.03 C 441.21 234.59 424.62 236.51 407.96 237.16 C 407.21 230.83 405.99 224.57 405.60 218.20 C 426.10 217.07 446.60 215.82 467.11 214.86 C 467.65 216.55 468.20 218.25 468.76 219.94 C 468.28 218.22 467.79 216.50 467.31 214.79 C 473.70 214.33 480.12 214.30 486.49 213.57 C 486.75 211.84 487.01 210.11 487.26 208.38 C 487.63 206.30 488.06 204.23 488.47 202.16 C 493.27 202.05 498.11 201.57 502.89 202.21 C 503.48 202.95 504.05 203.71 504.59 204.51 Z" />
</g>
<g id="#ced6afff">
<path fill="#ced6af" opacity="1.00" d=" M 425.58 202.35 C 426.40 202.41 428.03 202.53 428.85 202.59 C 430.58 202.91 432.27 203.39 433.97 203.86 C 433.75 205.18 433.52 206.50 433.36 207.84 C 431.40 207.84 429.44 207.86 427.49 207.90 C 426.83 207.91 425.51 207.94 424.85 207.96 C 424.91 207.51 425.02 206.63 425.08 206.18 C 425.25 204.90 425.44 203.63 425.58 202.35 Z" />
</g>
<g id="#7a989aff">
<path fill="#7a989a" opacity="1.00" d=" M 193.48 204.32 C 195.63 204.18 197.79 204.09 199.95 204.17 C 205.99 204.51 212.04 204.62 218.08 204.46 L 217.90 204.61 C 215.44 206.69 213.14 208.96 211.03 211.40 C 205.82 211.69 200.61 211.22 195.42 210.70 C 195.57 210.33 195.86 209.57 196.00 209.20 C 197.24 207.72 198.49 206.24 199.72 204.76 C 197.64 204.58 195.56 204.41 193.48 204.32 Z" />
</g>
<g id="#b9ba65ff">
<path fill="#b9ba65" opacity="1.00" d=" M 411.04 203.63 C 411.76 203.69 413.22 203.81 413.94 203.87 C 414.82 205.09 415.72 206.31 416.64 207.50 L 417.13 208.15 C 415.38 208.44 413.63 208.74 411.90 209.04 C 411.70 211.21 411.52 213.39 411.21 215.54 C 410.68 215.62 409.62 215.76 409.09 215.84 C 409.78 211.77 410.39 207.70 411.04 203.63 Z" />
</g>
<g id="#b9b76aff">
<path fill="#b9b76a" opacity="1.00" d=" M 433.97 203.86 C 435.16 204.22 436.36 204.59 437.57 204.96 C 437.50 208.02 437.62 211.08 437.82 214.13 C 436.30 214.20 434.79 214.28 433.29 214.37 C 433.26 212.19 433.24 210.01 433.36 207.84 C 433.52 206.50 433.75 205.18 433.97 203.86 Z" />
</g>
<g id="#3d4040ff">
<path fill="#3d4040" opacity="1.00" d=" M 211.03 211.40 C 213.14 208.96 215.44 206.69 217.90 204.61 C 224.10 204.62 230.29 204.70 236.48 204.89 L 238.23 204.90 C 236.48 207.24 234.72 209.57 232.91 211.85 C 229.27 211.92 225.64 211.76 222.00 211.82 C 218.34 211.85 214.59 212.71 211.03 211.40 Z" />
</g>
<g id="#d2e9e3ff">
<path fill="#d2e9e3" opacity="1.00" d=" M 418.22 205.53 C 420.11 205.54 422.02 205.50 423.91 205.68 C 423.95 208.66 424.03 211.64 424.17 214.62 L 424.18 214.86 C 421.71 215.09 419.24 215.26 416.76 215.37 C 416.85 212.96 416.92 210.55 417.13 208.15 C 417.48 208.04 418.20 207.81 418.56 207.69 C 418.44 206.97 418.33 206.25 418.22 205.53 Z" />
</g>
<g id="#bdd6caff">
<path fill="#bdd6ca" opacity="1.00" d=" M 423.91 205.68 L 425.08 206.18 C 425.02 206.63 424.91 207.51 424.85 207.96 C 425.51 207.94 426.83 207.91 427.49 207.90 C 427.36 210.20 427.19 212.50 427.03 214.81 C 426.32 214.76 424.88 214.66 424.17 214.62 C 424.03 211.64 423.95 208.66 423.91 205.68 Z" />
</g>
<g id="#bbd5cbff">
<path fill="#bbd5cb" opacity="1.00" d=" M 411.90 209.04 C 413.63 208.74 415.38 208.44 417.13 208.15 C 416.92 210.55 416.85 212.96 416.76 215.37 C 414.91 215.44 413.06 215.52 411.21 215.54 C 411.52 213.39 411.70 211.21 411.90 209.04 Z" />
</g>
<g id="#d2eae2ff">
<path fill="#d2eae2" opacity="1.00" d=" M 427.49 207.90 C 429.44 207.86 431.40 207.84 433.36 207.84 C 433.24 210.01 433.26 212.19 433.29 214.37 C 431.20 214.51 429.11 214.65 427.03 214.81 C 427.19 212.50 427.36 210.20 427.49 207.90 Z" />
</g>
<g id="#fe5c41ff">
<path fill="#fe5c41" opacity="1.00" d=" M 301.39 215.36 C 305.12 214.93 308.29 212.89 311.29 210.77 C 313.90 211.95 316.75 212.28 319.58 212.38 C 319.76 212.99 320.10 214.22 320.28 214.83 C 320.80 213.91 321.32 212.99 321.85 212.07 C 322.55 213.48 323.26 214.89 323.89 216.34 C 324.25 218.72 324.79 221.07 325.52 223.37 C 325.04 224.87 324.54 226.37 324.05 227.87 C 327.52 227.43 330.97 226.81 334.34 225.84 C 332.27 224.75 330.13 223.76 327.86 223.20 C 336.04 222.44 344.26 222.63 352.45 222.86 C 347.24 225.11 341.46 225.02 336.02 226.45 C 343.92 229.25 352.07 231.24 359.96 234.06 C 363.66 235.24 368.08 237.34 371.65 234.68 C 373.68 233.53 373.80 231.02 374.43 229.03 C 377.98 229.98 381.55 230.83 385.15 231.63 C 381.10 232.89 376.64 233.81 373.53 236.92 C 376.31 237.71 379.14 238.42 382.04 238.66 L 381.61 239.78 C 365.95 240.64 350.38 242.64 334.85 244.74 C 329.42 245.98 323.57 245.76 318.51 248.27 C 329.82 248.74 341.14 247.43 352.44 248.23 C 346.41 249.84 340.16 248.72 334.03 249.41 C 331.06 249.71 328.06 249.40 325.09 249.61 C 322.05 250.31 319.20 251.71 316.09 252.14 C 315.19 250.61 312.80 249.32 313.51 247.31 C 315.88 240.75 320.22 235.07 322.27 228.36 C 318.97 232.05 317.30 236.77 314.93 241.04 C 313.76 243.55 312.05 246.02 312.02 248.88 C 312.74 250.45 313.83 251.82 314.87 253.20 C 322.83 262.94 326.36 275.50 327.92 287.79 C 326.63 286.59 325.35 285.37 324.08 284.17 C 325.29 293.12 325.96 302.11 325.75 311.15 C 322.82 311.15 319.90 311.17 316.98 311.21 C 315.56 301.51 313.60 291.80 309.90 282.68 C 313.61 282.00 317.58 281.42 321.02 283.40 C 322.88 276.76 318.92 270.57 315.80 265.04 C 311.24 258.45 305.74 251.90 298.06 248.94 C 292.60 246.86 286.95 244.51 280.97 245.09 C 271.97 245.81 262.74 248.66 256.03 254.93 C 250.17 259.52 245.80 265.62 241.78 271.82 C 239.51 275.30 237.46 279.38 238.58 283.64 C 241.69 281.79 245.42 281.30 248.63 283.21 C 249.30 282.10 249.97 280.99 250.65 279.89 C 251.30 280.42 251.96 280.96 252.63 281.49 C 252.94 281.17 253.58 280.53 253.89 280.21 C 254.07 280.77 254.42 281.89 254.60 282.45 C 249.33 291.58 245.50 301.46 242.45 311.52 C 242.03 310.44 241.64 309.37 241.23 308.29 C 238.36 308.70 235.46 308.89 232.56 308.91 C 232.19 307.26 231.82 305.62 231.45 303.97 C 231.20 305.55 230.96 307.12 230.71 308.70 C 230.19 308.46 229.15 307.97 228.63 307.73 C 229.18 305.62 229.84 303.53 230.54 301.46 C 230.64 301.16 230.85 300.55 230.96 300.24 C 230.56 299.67 230.17 299.10 229.78 298.53 C 232.45 295.17 232.25 290.67 233.92 286.87 C 234.77 284.30 237.09 281.16 234.37 278.95 C 233.79 271.31 234.41 263.65 234.13 256.01 C 234.09 254.29 233.79 251.83 231.58 251.76 C 226.05 251.23 220.48 251.62 214.94 251.44 C 217.57 248.40 221.72 247.80 225.15 246.06 C 248.87 234.53 272.78 223.34 296.42 211.64 C 297.92 211.48 299.44 211.36 300.94 211.16 C 301.36 211.87 301.79 212.59 302.22 213.31 C 301.94 213.99 301.66 214.68 301.39 215.36 M 287.98 228.16 C 275.63 231.16 263.13 233.71 251.03 237.68 C 256.78 238.37 262.34 236.41 268.02 235.93 C 285.89 233.06 303.87 230.91 321.69 227.81 C 322.81 225.79 323.72 223.66 324.09 221.37 C 312.08 223.75 299.94 225.49 287.98 228.16 Z" />
</g>
<g id="#fd7962ff">
<path fill="#fd7962" opacity="1.00" d=" M 174.06 212.09 C 175.13 211.63 176.19 211.08 177.35 210.87 C 184.92 212.31 192.55 213.42 200.24 213.97 C 182.48 226.09 163.40 236.21 146.08 248.98 C 148.68 248.48 151.28 247.80 153.65 246.58 C 166.02 240.23 178.58 234.26 190.96 227.94 C 199.48 223.56 208.33 219.76 216.47 214.67 C 243.15 215.15 269.84 213.89 296.42 211.64 C 272.78 223.34 248.87 234.53 225.15 246.06 C 221.72 247.80 217.57 248.40 214.94 251.44 C 210.93 251.45 206.92 251.38 202.92 251.72 C 202.62 251.75 202.01 251.81 201.71 251.84 C 197.60 250.06 193.15 251.38 188.89 251.66 C 170.63 253.05 152.31 253.55 134.00 253.37 C 125.88 253.28 117.59 251.64 110.55 247.41 C 109.03 246.56 108.22 244.93 107.19 243.60 C 129.07 232.26 151.64 222.31 174.06 212.09 Z" />
</g>
<g id="#6c9c65ff">
<path fill="#6c9c65" opacity="1.00" d=" M 397.55 210.84 C 398.90 212.85 399.99 215.04 399.90 217.53 C 395.50 218.39 391.25 219.81 386.93 220.95 C 385.48 221.46 384.02 221.04 382.63 220.65 C 382.49 219.50 382.36 218.36 382.26 217.22 C 382.22 216.82 382.14 216.01 382.10 215.61 C 387.32 215.15 392.43 213.86 397.41 212.26 L 397.55 210.84 Z" />
</g>
<g id="#ff8f7dff">
<path fill="#ff8f7d" opacity="1.00" d=" M 200.24 213.97 C 205.64 214.33 211.06 214.54 216.47 214.67 C 208.33 219.76 199.48 223.56 190.96 227.94 C 178.58 234.26 166.02 240.23 153.65 246.58 C 151.28 247.80 148.68 248.48 146.08 248.98 C 163.40 236.21 182.48 226.09 200.24 213.97 Z" />
</g>
<g id="#424d4fff">
<path fill="#424d4f" opacity="1.00" d=" M 372.30 219.90 C 372.97 219.07 373.66 218.25 374.28 217.38 C 376.94 217.36 379.60 217.31 382.26 217.22 C 382.36 218.36 382.49 219.50 382.63 220.65 C 379.21 220.08 375.74 220.10 372.30 219.90 Z" />
</g>
<g id="#ffbb8eff">
<path fill="#ffbb8e" opacity="1.00" d=" M 386.93 220.95 C 391.25 219.81 395.50 218.39 399.90 217.53 L 400.02 218.57 C 401.02 223.04 403.13 227.84 400.43 232.15 C 395.43 234.05 390.16 232.70 385.15 231.63 C 381.55 230.83 377.98 229.98 374.43 229.03 C 367.53 227.15 360.66 225.17 353.77 223.28 C 358.62 222.74 363.54 223.31 368.35 222.44 C 369.77 221.78 371.06 220.86 372.30 219.90 C 375.74 220.10 379.21 220.08 382.63 220.65 C 384.02 221.04 385.48 221.46 386.93 220.95 Z" />
</g>
<g id="#d4432bff">
<path fill="#d4432b" opacity="1.00" d=" M 404.04 218.30 C 404.43 218.28 405.21 218.23 405.60 218.20 C 405.99 224.57 407.21 230.83 407.96 237.16 C 408.32 240.42 408.67 243.68 409.03 246.94 C 411.28 266.49 412.38 286.22 411.23 305.89 C 411.14 307.64 411.06 309.40 410.98 311.16 C 410.49 311.16 409.51 311.16 409.02 311.16 C 409.16 309.45 409.30 307.76 409.46 306.06 C 410.58 294.74 410.19 283.34 409.64 272.00 C 409.19 262.63 408.35 253.28 407.38 243.94 C 407.16 241.68 406.80 239.45 406.48 237.21 C 405.58 230.92 404.78 224.61 404.04 218.30 Z" />
<path fill="#d4432b" opacity="1.00" d=" M 373.53 236.92 C 376.64 233.81 381.10 232.89 385.15 231.63 C 390.16 232.70 395.43 234.05 400.43 232.15 C 401.50 232.79 402.56 233.44 403.63 234.11 C 401.51 235.24 399.33 236.31 396.99 236.90 C 392.03 237.64 387.04 238.22 382.04 238.66 C 379.14 238.42 376.31 237.71 373.53 236.92 Z" />
</g>
<g id="#393b3aff">
<path fill="#393b3a" opacity="1.00" d=" M 541.04 217.72 C 544.40 234.13 540.19 252.71 528.10 264.70 C 527.58 259.12 527.04 253.54 526.38 247.98 C 529.90 243.28 533.79 238.77 536.25 233.38 C 538.73 228.46 539.55 222.97 541.04 217.72 Z" />
</g>
<g id="#ff5d43ff">
<path fill="#ff5d43" opacity="1.00" d=" M 400.02 218.57 C 401.35 218.48 402.69 218.39 404.04 218.30 C 404.78 224.61 405.58 230.92 406.48 237.21 C 403.48 237.66 400.48 238.07 397.45 238.22 L 396.99 236.90 C 399.33 236.31 401.51 235.24 403.63 234.11 C 402.56 233.44 401.50 232.79 400.43 232.15 C 403.13 227.84 401.02 223.04 400.02 218.57 Z" />
</g>
<g id="#ff7862ff">
<path fill="#ff7862" opacity="1.00" d=" M 287.98 228.16 C 299.94 225.49 312.08 223.75 324.09 221.37 C 323.72 223.66 322.81 225.79 321.69 227.81 C 303.87 230.91 285.89 233.06 268.02 235.93 C 262.34 236.41 256.78 238.37 251.03 237.68 C 263.13 233.71 275.63 231.16 287.98 228.16 Z" />
</g>
<g id="#ed4e33ff">
<path fill="#ed4e33" opacity="1.00" d=" M 457.31 223.98 C 458.95 222.55 460.56 220.41 463.02 220.75 C 465.76 220.93 466.83 223.88 468.46 225.64 C 464.93 225.58 461.39 225.77 457.89 226.21 C 457.75 225.65 457.46 224.54 457.31 223.98 Z" />
</g>
<g id="#f64d37ff">
<path fill="#f64d37" opacity="1.00" d=" M 352.45 222.86 C 357.67 221.57 363.05 222.38 368.35 222.44 C 363.54 223.31 358.62 222.74 353.77 223.28 C 360.66 225.17 367.53 227.15 374.43 229.03 C 373.80 231.02 373.68 233.53 371.65 234.68 C 368.08 237.34 363.66 235.24 359.96 234.06 C 352.07 231.24 343.92 229.25 336.02 226.45 C 341.46 225.02 347.24 225.11 352.45 222.86 Z" />
</g>
<g id="#ff7763ff">
<path fill="#ff7763" opacity="1.00" d=" M 325.52 223.37 C 326.11 223.33 327.28 223.24 327.86 223.20 C 330.13 223.76 332.27 224.75 334.34 225.84 C 330.97 226.81 327.52 227.43 324.05 227.87 C 324.54 226.37 325.04 224.87 325.52 223.37 Z" />
</g>
<g id="#d4442cff">
<path fill="#d4442c" opacity="1.00" d=" M 470.43 222.88 C 471.97 226.19 473.42 229.54 474.73 232.95 C 476.29 237.06 477.89 241.17 479.43 245.29 C 475.78 246.38 472.55 248.45 469.70 250.93 C 455.84 260.97 448.84 277.80 446.34 294.26 C 446.28 294.55 446.16 295.12 446.10 295.40 L 444.91 296.45 C 445.88 283.26 450.94 270.39 458.79 259.78 C 462.65 254.26 468.29 250.44 473.42 246.21 C 474.96 245.71 476.51 245.21 478.06 244.70 C 476.37 239.37 474.10 234.25 471.53 229.28 C 470.62 229.57 469.71 229.87 468.81 230.15 C 464.90 231.32 460.85 231.91 456.78 232.16 C 455.17 231.74 453.59 231.25 452.06 230.60 C 453.20 228.31 455.78 227.37 457.89 226.21 C 461.39 225.77 464.93 225.58 468.46 225.64 C 468.83 225.68 469.56 225.76 469.93 225.80 C 470.06 225.07 470.31 223.61 470.43 222.88 Z" />
</g>
<g id="#e5422bff">
<path fill="#e5422b" opacity="1.00" d=" M 314.93 241.04 C 317.30 236.77 318.97 232.05 322.27 228.36 C 320.22 235.07 315.88 240.75 313.51 247.31 C 312.80 249.32 315.19 250.61 316.09 252.14 C 322.07 258.97 325.23 267.68 327.65 276.29 C 328.80 281.01 328.72 286.03 330.47 290.58 C 336.23 296.40 343.45 300.76 351.00 303.89 C 356.70 306.26 362.98 305.95 369.03 305.97 C 382.51 306.01 395.98 305.96 409.46 306.06 C 409.30 307.76 409.16 309.45 409.02 311.16 C 381.26 311.10 353.50 311.21 325.75 311.15 C 325.96 302.11 325.29 293.12 324.08 284.17 C 325.35 285.37 326.63 286.59 327.92 287.79 C 326.36 275.50 322.83 262.94 314.87 253.20 C 313.83 251.82 312.74 250.45 312.02 248.88 C 312.05 246.02 313.76 243.55 314.93 241.04 Z" />
</g>
<g id="#ff7761ff">
<path fill="#ff7761" opacity="1.00" d=" M 468.81 230.15 C 469.71 229.87 470.62 229.57 471.53 229.28 C 474.10 234.25 476.37 239.37 478.06 244.70 C 476.51 245.21 474.96 245.71 473.42 246.21 C 470.62 246.03 467.82 245.74 465.02 245.79 C 449.68 246.33 434.32 246.43 418.96 246.41 C 415.64 246.40 412.33 246.59 409.03 246.94 C 408.67 243.68 408.32 240.42 407.96 237.16 C 424.62 236.51 441.21 234.59 457.89 234.03 C 459.12 235.63 460.78 237.29 463.02 236.87 C 466.51 236.72 467.71 232.84 468.81 230.15 Z" />
<path fill="#ff7761" opacity="1.00" d=" M 474.73 232.95 C 491.11 231.65 507.57 231.25 523.95 229.80 C 524.98 234.74 525.40 239.79 526.03 244.81 C 510.50 244.45 494.97 245.60 479.43 245.29 C 477.89 241.17 476.29 237.06 474.73 232.95 Z" />
<path fill="#ff7761" opacity="1.00" d=" M 397.45 238.22 C 400.48 238.07 403.48 237.66 406.48 237.21 C 406.80 239.45 407.16 241.68 407.38 243.94 C 407.33 244.67 407.23 246.13 407.18 246.86 C 398.12 246.77 389.08 247.75 380.02 247.62 C 370.83 247.80 361.62 247.55 352.44 248.23 C 341.14 247.43 329.82 248.74 318.51 248.27 C 323.57 245.76 329.42 245.98 334.85 244.74 C 350.38 242.64 365.95 240.64 381.61 239.78 C 385.41 245.47 394.59 244.20 397.45 238.22 Z" />
</g>
<g id="#ef4c32ff">
<path fill="#ef4c32" opacity="1.00" d=" M 456.78 232.16 C 460.85 231.91 464.90 231.32 468.81 230.15 C 467.71 232.84 466.51 236.72 463.02 236.87 C 460.78 237.29 459.12 235.63 457.89 234.03 C 457.61 233.56 457.06 232.63 456.78 232.16 Z" />
</g>
<g id="#ed4d33ff">
<path fill="#ed4d33" opacity="1.00" d=" M 382.04 238.66 C 387.04 238.22 392.03 237.64 396.99 236.90 L 397.45 238.22 C 394.59 244.20 385.41 245.47 381.61 239.78 L 382.04 238.66 Z" />
</g>
<g id="#fe604bff">
<path fill="#fe604b" opacity="1.00" d=" M 93.48 250.95 C 97.95 248.31 102.54 245.90 107.19 243.60 C 108.22 244.93 109.03 246.56 110.55 247.41 C 117.59 251.64 125.88 253.28 134.00 253.37 C 152.31 253.55 170.63 253.05 188.89 251.66 C 193.15 251.38 197.60 250.06 201.71 251.84 C 194.81 253.61 187.86 255.22 180.93 256.88 C 175.95 257.32 170.97 256.85 165.99 256.83 C 153.01 257.36 140.02 256.68 127.03 257.16 C 119.83 257.52 112.62 256.40 105.45 257.20 C 101.62 254.79 97.03 253.80 93.48 250.95 Z" />
</g>
<g id="#fe583dff">
<path fill="#fe583d" opacity="1.00" d=" M 407.38 243.94 C 408.35 253.28 409.19 262.63 409.64 272.00 C 382.53 272.13 355.42 271.75 328.32 272.17 C 328.07 273.54 327.85 274.91 327.65 276.29 C 325.23 267.68 322.07 258.97 316.09 252.14 C 319.20 251.71 322.05 250.31 325.09 249.61 C 328.06 249.40 331.06 249.71 334.03 249.41 C 340.16 248.72 346.41 249.84 352.44 248.23 C 361.62 247.55 370.83 247.80 380.02 247.62 C 389.08 247.75 398.12 246.77 407.18 246.86 C 407.23 246.13 407.33 244.67 407.38 243.94 Z" />
</g>
<g id="#fd654dff">
<path fill="#fd654d" opacity="1.00" d=" M 256.03 254.93 C 262.74 248.66 271.97 245.81 280.97 245.09 C 286.95 244.51 292.60 246.86 298.06 248.94 C 305.74 251.90 311.24 258.45 315.80 265.04 C 318.92 270.57 322.88 276.76 321.02 283.40 C 317.58 281.42 313.61 282.00 309.90 282.68 C 306.68 275.09 302.13 267.33 294.55 263.42 C 287.77 259.87 279.43 260.32 272.70 263.77 C 264.80 267.81 259.11 275.00 254.60 282.45 C 254.42 281.89 254.07 280.77 253.89 280.21 C 253.58 280.53 252.94 281.17 252.63 281.49 C 251.96 280.96 251.30 280.42 250.65 279.89 C 249.97 280.99 249.30 282.10 248.63 283.21 C 245.42 281.30 241.69 281.79 238.58 283.64 C 237.46 279.38 239.51 275.30 241.78 271.82 C 245.80 265.62 250.17 259.52 256.03 254.93 Z" />
<path fill="#fd654d" opacity="1.00" d=" M 469.70 250.93 C 475.56 249.10 481.74 247.34 487.94 248.22 C 494.13 249.58 499.98 253.11 503.66 258.34 C 510.05 267.06 513.67 277.59 514.66 288.31 C 515.03 290.59 515.46 292.87 515.88 295.15 C 513.29 295.53 510.68 295.84 508.07 296.01 C 506.37 287.36 504.29 278.40 498.90 271.22 C 495.69 266.88 490.41 263.87 484.92 264.25 C 479.09 264.45 474.29 268.43 470.59 272.58 C 464.91 279.19 460.90 287.04 457.47 294.99 C 453.75 294.94 450.03 294.71 446.34 294.26 C 448.84 277.80 455.84 260.97 469.70 250.93 Z" />
</g>
<g id="#fe583cff">
<path fill="#fe583c" opacity="1.00" d=" M 479.43 245.29 C 494.97 245.60 510.50 244.45 526.03 244.81 C 526.14 245.86 526.26 246.92 526.38 247.98 C 527.04 253.54 527.58 259.12 528.10 264.70 C 528.57 270.09 528.74 275.49 529.12 280.88 C 528.61 280.62 527.58 280.09 527.06 279.83 C 523.38 283.28 519.16 286.07 514.66 288.31 C 513.67 277.59 510.05 267.06 503.66 258.34 C 499.98 253.11 494.13 249.58 487.94 248.22 C 481.74 247.34 475.56 249.10 469.70 250.93 C 472.55 248.45 475.78 246.38 479.43 245.29 Z" />
</g>
<g id="#fe563bff">
<path fill="#fe563b" opacity="1.00" d=" M 409.03 246.94 C 412.33 246.59 415.64 246.40 418.96 246.41 C 434.32 246.43 449.68 246.33 465.02 245.79 C 467.82 245.74 470.62 246.03 473.42 246.21 C 468.29 250.44 462.65 254.26 458.79 259.78 C 450.94 270.39 445.88 283.26 444.91 296.45 C 441.81 299.24 438.66 302.17 434.65 303.59 C 427.24 306.74 419.06 305.72 411.23 305.89 C 412.38 286.22 411.28 266.49 409.03 246.94 Z" />
</g>
<g id="#eeebdeff">
<path fill="#eeebde" opacity="1.00" d=" M 93.04 250.62 L 93.48 250.95 C 97.03 253.80 101.62 254.79 105.45 257.20 C 105.98 258.49 106.48 259.80 106.93 261.12 C 107.38 265.34 107.51 269.58 107.84 273.81 C 106.27 275.65 104.70 277.88 102.11 278.27 C 97.49 279.22 92.73 278.64 88.05 278.77 C 88.17 272.61 87.47 266.30 89.29 260.31 C 90.00 256.89 91.78 253.85 93.04 250.62 Z" />
<path fill="#eeebde" opacity="1.00" d=" M 180.93 256.88 C 187.86 255.22 194.81 253.61 201.71 251.84 C 202.01 251.81 202.62 251.75 202.92 251.72 C 206.80 251.45 210.69 251.65 214.56 251.98 C 211.59 261.16 210.52 270.84 210.54 280.47 C 206.60 278.66 202.19 279.51 198.02 279.27 C 193.23 279.04 188.42 279.05 183.67 278.38 C 179.81 277.89 178.51 273.63 176.10 271.16 C 176.17 270.67 176.30 269.69 176.37 269.20 L 176.51 268.10 C 176.56 267.61 176.64 266.63 176.68 266.13 C 176.80 264.84 176.93 263.55 177.10 262.27 C 177.87 260.15 179.24 258.35 180.93 256.88 Z" />
</g>
<g id="#eddfa2ff">
<path fill="#eddfa2" opacity="1.00" d=" M 202.92 251.72 C 206.92 251.38 210.93 251.45 214.94 251.44 C 220.48 251.62 226.05 251.23 231.58 251.76 C 233.79 251.83 234.09 254.29 234.13 256.01 C 234.41 263.65 233.79 271.31 234.37 278.95 C 232.70 279.79 230.96 280.69 229.02 280.54 C 222.86 280.58 216.70 280.48 210.54 280.47 C 210.52 270.84 211.59 261.16 214.56 251.98 C 210.69 251.65 206.80 251.45 202.92 251.72 Z" />
</g>
<g id="#303133ff">
<path fill="#303133" opacity="1.00" d=" M 105.45 257.20 C 112.62 256.40 119.83 257.52 127.03 257.16 C 140.02 256.68 153.01 257.36 165.99 256.83 C 170.97 256.85 175.95 257.32 180.93 256.88 C 179.24 258.35 177.87 260.15 177.10 262.27 C 156.07 262.63 135.03 262.24 114.00 262.45 C 111.60 262.37 108.93 262.73 106.93 261.12 C 106.48 259.80 105.98 258.49 105.45 257.20 Z" />
</g>
<g id="#4c4e4eff">
<path fill="#4c4e4e" opacity="1.00" d=" M 106.93 261.12 C 108.93 262.73 111.60 262.37 114.00 262.45 C 135.03 262.24 156.07 262.63 177.10 262.27 C 176.93 263.55 176.80 264.84 176.68 266.13 C 176.48 265.69 176.09 264.79 175.89 264.34 C 153.18 264.11 130.46 264.56 107.75 264.10 C 107.81 265.35 107.88 266.60 107.95 267.85 C 126.98 267.66 146.02 267.83 165.05 267.75 C 168.87 267.72 172.70 267.86 176.51 268.10 L 176.37 269.20 C 168.28 269.72 160.17 269.26 152.07 269.40 C 137.40 269.31 122.72 269.65 108.05 269.22 C 108.06 270.50 108.06 271.79 108.07 273.07 C 130.63 273.42 153.20 272.84 175.75 273.39 C 175.71 273.72 175.64 274.37 175.60 274.70 C 156.08 274.52 136.57 274.75 117.05 274.58 C 113.99 274.58 110.73 274.20 107.91 275.70 C 107.89 275.23 107.86 274.28 107.84 273.81 C 107.51 269.58 107.38 265.34 106.93 261.12 Z" />
<path fill="#4c4e4e" opacity="1.00" d=" M 107.51 291.45 C 109.37 289.31 112.30 288.64 115.02 288.71 C 134.30 288.76 153.58 288.73 172.86 288.74 C 180.88 294.68 181.46 305.39 185.01 313.97 C 166.01 313.80 146.99 313.72 127.99 313.58 C 130.83 313.42 133.66 313.09 136.42 312.35 C 132.11 311.72 127.63 312.12 123.49 310.59 C 116.24 308.87 107.70 309.21 101.85 303.94 C 103.27 299.60 104.52 295.01 107.51 291.45 Z" />
</g>
<g id="#2a2a2aff">
<path fill="#2a2a2a" opacity="1.00" d=" M 107.75 264.10 C 130.46 264.56 153.18 264.11 175.89 264.34 C 176.09 264.79 176.48 265.69 176.68 266.13 C 176.64 266.63 176.56 267.61 176.51 268.10 C 172.70 267.86 168.87 267.72 165.05 267.75 C 146.02 267.83 126.98 267.66 107.95 267.85 C 107.88 266.60 107.81 265.35 107.75 264.10 Z" />
<path fill="#2a2a2a" opacity="1.00" d=" M 108.05 269.22 C 122.72 269.65 137.40 269.31 152.07 269.40 C 160.17 269.26 168.28 269.72 176.37 269.20 C 176.30 269.69 176.17 270.67 176.10 271.16 C 176.01 271.72 175.84 272.83 175.75 273.39 C 153.20 272.84 130.63 273.42 108.07 273.07 C 108.06 271.79 108.06 270.50 108.05 269.22 Z" />
</g>
<g id="#48494eff">
<path fill="#48494e" opacity="1.00" d=" M 269.69 274.65 C 275.10 270.49 282.46 269.05 289.01 270.94 C 296.16 273.34 302.12 278.68 305.75 285.24 C 314.25 300.16 314.91 318.96 308.71 334.83 C 305.69 342.07 300.92 348.76 294.17 352.94 C 288.60 356.11 281.62 356.92 275.61 354.55 C 269.02 351.98 263.70 346.80 260.30 340.67 C 252.42 326.71 251.23 309.34 256.34 294.22 C 258.99 286.71 263.03 279.31 269.69 274.65 M 283.18 288.41 C 274.08 291.79 269.83 302.00 269.39 311.08 C 268.98 320.07 271.67 330.27 279.38 335.68 C 282.48 338.08 286.50 337.92 290.18 337.44 C 297.57 335.03 301.77 327.37 303.21 320.15 C 305.01 310.45 303.36 299.22 296.04 292.09 C 292.70 288.69 287.78 287.56 283.18 288.41 Z" />
<path fill="#48494e" opacity="1.00" d=" M 474.99 272.97 C 479.85 269.21 487.10 269.29 491.98 272.95 C 499.54 278.34 503.15 287.46 505.29 296.17 C 507.50 306.66 507.98 317.68 505.68 328.19 C 503.52 337.60 499.82 347.59 491.62 353.36 C 487.16 356.59 480.81 356.73 476.16 353.85 C 471.22 350.80 467.78 345.85 465.40 340.66 C 459.36 327.27 458.60 311.93 461.48 297.66 C 463.42 288.41 467.17 278.79 474.99 272.97 M 475.97 299.01 C 472.69 307.38 472.56 316.94 475.36 325.45 C 477.05 330.34 480.23 335.75 485.81 336.63 C 491.10 336.58 494.72 332.02 496.59 327.55 C 500.22 318.52 500.28 308.09 496.78 299.02 C 495.05 294.56 491.73 290.23 486.77 289.30 C 481.41 289.76 477.77 294.33 475.97 299.01 Z" />
<path fill="#48494e" opacity="1.00" d=" M 481.38 298.41 C 482.99 295.50 486.22 293.73 489.56 294.37 C 495.70 298.32 497.26 306.21 497.36 313.00 C 497.27 319.76 495.70 327.56 489.73 331.61 C 484.38 333.00 480.77 327.91 479.38 323.50 C 476.78 315.37 476.95 305.88 481.38 298.41 M 485.70 310.06 C 484.99 314.56 485.65 320.11 489.92 322.68 C 494.66 320.98 495.43 315.21 494.95 310.87 C 494.48 308.04 493.40 304.13 490.03 303.75 C 487.28 304.51 486.15 307.52 485.70 310.06 Z" />
</g>
<g id="#dfd9b5ff">
<path fill="#dfd9b5" opacity="1.00" d=" M 176.10 271.16 C 178.51 273.63 179.81 277.89 183.67 278.38 C 188.42 279.05 193.23 279.04 198.02 279.27 C 202.19 279.51 206.60 278.66 210.54 280.47 L 209.98 280.48 C 199.66 280.75 189.34 280.53 179.02 280.61 C 177.66 279.75 176.48 278.64 175.48 277.39 C 175.51 276.72 175.57 275.37 175.60 274.70 C 175.64 274.37 175.71 273.72 175.75 273.39 C 175.84 272.83 176.01 271.72 176.10 271.16 Z" />
</g>
<g id="#fe5337ff">
<path fill="#fe5337" opacity="1.00" d=" M 328.32 272.17 C 355.42 271.75 382.53 272.13 409.64 272.00 C 410.19 283.34 410.58 294.74 409.46 306.06 C 395.98 305.96 382.51 306.01 369.03 305.97 C 362.98 305.95 356.70 306.26 351.00 303.89 C 343.45 300.76 336.23 296.40 330.47 290.58 C 328.72 286.03 328.80 281.01 327.65 276.29 C 327.85 274.91 328.07 273.54 328.32 272.17 Z" />
</g>
<g id="#dedcc7ff">
<path fill="#dedcc7" opacity="1.00" d=" M 107.84 273.81 C 107.86 274.28 107.89 275.23 107.91 275.70 C 107.84 276.27 107.71 277.43 107.64 278.01 C 107.25 278.88 106.81 279.74 106.38 280.60 C 100.48 280.54 94.58 280.53 88.68 280.55 L 88.15 280.56 C 88.13 280.11 88.08 279.22 88.05 278.77 C 92.73 278.64 97.49 279.22 102.11 278.27 C 104.70 277.88 106.27 275.65 107.84 273.81 Z" />
</g>
<g id="#2b2b2bff">
<path fill="#2b2b2b" opacity="1.00" d=" M 107.91 275.70 C 110.73 274.20 113.99 274.58 117.05 274.58 C 136.57 274.75 156.08 274.52 175.60 274.70 C 175.57 275.37 175.51 276.72 175.48 277.39 C 173.68 277.87 171.83 278.13 169.98 278.11 C 149.20 277.95 128.42 278.06 107.64 278.01 C 107.71 277.43 107.84 276.27 107.91 275.70 Z" />
</g>
<g id="#3a4340ff">
<path fill="#3a4340" opacity="1.00" d=" M 175.48 277.39 C 176.48 278.64 177.66 279.75 179.02 280.61 C 154.81 280.53 130.59 280.55 106.38 280.60 C 106.81 279.74 107.25 278.88 107.64 278.01 C 128.42 278.06 149.20 277.95 169.98 278.11 C 171.83 278.13 173.68 277.87 175.48 277.39 Z" />
</g>
<g id="#fd5236ff">
<path fill="#fd5236" opacity="1.00" d=" M 234.37 278.95 C 237.09 281.16 234.77 284.30 233.92 286.87 C 232.25 290.67 232.45 295.17 229.78 298.53 C 230.17 299.10 230.56 299.67 230.96 300.24 C 230.85 300.55 230.64 301.16 230.54 301.46 C 229.50 301.59 228.42 301.76 227.84 302.75 C 225.66 305.27 223.83 308.16 221.05 310.09 C 217.79 312.53 213.67 313.18 209.78 313.98 C 209.49 302.81 210.19 291.65 209.98 280.48 L 210.54 280.47 C 216.70 280.48 222.86 280.58 229.02 280.54 C 230.96 280.69 232.70 279.79 234.37 278.95 Z" />
</g>
<g id="#e6412aff">
<path fill="#e6412a" opacity="1.00" d=" M 514.66 288.31 C 519.16 286.07 523.38 283.28 527.06 279.83 C 527.58 280.09 528.61 280.62 529.12 280.88 C 529.17 285.05 529.08 289.23 528.94 293.40 C 524.58 293.92 520.23 294.51 515.88 295.15 C 515.46 292.87 515.03 290.59 514.66 288.31 Z" />
</g>
<g id="#fe6e56ff">
<path fill="#fe6e56" opacity="1.00" d=" M 88.68 280.55 C 94.58 280.53 100.48 280.54 106.38 280.60 C 130.59 280.55 154.81 280.53 179.02 280.61 C 189.34 280.53 199.66 280.75 209.98 280.48 C 210.19 291.65 209.49 302.81 209.78 313.98 C 202.43 314.33 195.09 313.80 187.78 313.05 C 185.03 306.17 184.15 298.42 179.77 292.27 C 178.25 289.91 175.59 288.82 172.86 288.74 C 153.58 288.73 134.30 288.76 115.02 288.71 C 112.30 288.64 109.37 289.31 107.51 291.45 C 104.52 295.01 103.27 299.60 101.85 303.94 C 100.83 307.26 99.81 310.58 98.62 313.83 C 98.52 314.06 98.34 314.53 98.25 314.76 C 94.75 314.54 91.25 314.56 87.75 314.71 C 88.37 308.53 88.20 302.31 88.45 296.12 C 89.23 297.56 90.07 298.98 90.95 300.37 C 92.15 301.09 93.40 302.82 94.95 302.04 C 98.07 301.30 99.47 297.98 99.90 295.11 C 100.55 291.12 99.76 286.26 96.23 283.79 C 94.37 282.68 92.25 283.55 90.90 285.01 C 90.10 285.80 89.36 286.64 88.66 287.53 C 88.64 285.20 88.66 282.88 88.68 280.55 M 185.09 290.09 C 185.07 292.42 184.99 294.87 185.95 297.04 C 187.61 301.29 193.16 303.56 197.19 301.19 C 203.24 298.18 203.61 288.61 198.11 284.85 C 193.62 281.21 185.91 284.48 185.09 290.09 Z" />
</g>
<g id="#fea752ff">
<path fill="#fea752" opacity="1.00" d=" M 90.90 285.01 C 92.69 284.76 94.92 284.14 96.26 285.80 C 99.40 289.49 99.40 295.61 96.39 299.37 C 95.14 301.26 92.78 300.44 90.95 300.37 C 90.07 298.98 89.23 297.56 88.45 296.12 C 87.03 293.46 87.77 290.24 88.66 287.53 C 89.36 286.64 90.10 285.80 90.90 285.01 Z" />
</g>
<g id="#fda953ff">
<path fill="#fda953" opacity="1.00" d=" M 185.09 290.09 C 186.52 284.84 193.38 283.03 197.48 286.43 C 197.23 289.18 197.38 292.03 196.52 294.69 C 194.71 297.82 190.56 297.90 187.48 298.91 C 187.10 298.44 186.34 297.51 185.95 297.04 C 184.99 294.87 185.07 292.42 185.09 290.09 Z" />
</g>
<g id="#ff8f39ff">
<path fill="#ff8f39" opacity="1.00" d=" M 197.48 286.43 C 200.29 289.78 200.82 295.27 197.60 298.53 C 195.05 301.53 190.34 301.40 187.48 298.91 C 190.56 297.90 194.71 297.82 196.52 294.69 C 197.38 292.03 197.23 289.18 197.48 286.43 Z" />
</g>
<g id="#bebebdff">
<path fill="#bebebd" opacity="1.00" d=" M 283.18 288.41 C 287.78 287.56 292.70 288.69 296.04 292.09 C 303.36 299.22 305.01 310.45 303.21 320.15 C 301.77 327.37 297.57 335.03 290.18 337.44 C 289.36 337.33 287.74 337.12 286.92 337.01 C 289.12 335.13 291.54 333.30 292.69 330.55 C 303.69 322.15 303.36 302.82 291.91 294.94 L 293.21 295.11 C 290.60 291.98 287.48 288.81 283.18 288.41 Z" />
</g>
<g id="#949797ff">
<path fill="#949797" opacity="1.00" d=" M 172.86 288.74 C 175.59 288.82 178.25 289.91 179.77 292.27 C 184.15 298.42 185.03 306.17 187.78 313.05 C 189.15 317.79 192.66 321.29 196.25 324.46 C 191.31 323.14 187.74 319.27 185.50 314.84 L 185.01 313.97 C 181.46 305.39 180.88 294.68 172.86 288.74 Z" />
</g>
<g id="#dededeff">
<path fill="#dedede" opacity="1.00" d=" M 269.39 311.08 C 269.83 302.00 274.08 291.79 283.18 288.41 C 287.48 288.81 290.60 291.98 293.21 295.11 L 291.91 294.94 C 288.82 294.33 285.37 293.73 282.61 295.69 C 276.62 299.54 274.44 307.21 274.63 313.99 C 274.87 320.37 277.34 327.53 283.31 330.71 C 286.22 332.39 289.74 331.82 292.69 330.55 C 291.54 333.30 289.12 335.13 286.92 337.01 C 287.74 337.12 289.36 337.33 290.18 337.44 C 286.50 337.92 282.48 338.08 279.38 335.68 C 271.67 330.27 268.98 320.07 269.39 311.08 Z" />
<path fill="#dedede" opacity="1.00" d=" M 475.97 299.01 C 477.77 294.33 481.41 289.76 486.77 289.30 C 487.69 290.99 488.63 292.68 489.56 294.37 C 486.22 293.73 482.99 295.50 481.38 298.41 C 476.95 305.88 476.78 315.37 479.38 323.50 C 480.77 327.91 484.38 333.00 489.73 331.61 C 488.55 333.38 487.26 335.07 485.81 336.63 C 480.23 335.75 477.05 330.34 475.36 325.45 C 472.56 316.94 472.69 307.38 475.97 299.01 Z" />
<path fill="#dedede" opacity="1.00" d=" M 289.20 304.34 C 293.90 302.15 297.58 307.94 297.59 312.06 C 298.14 316.48 295.34 323.20 289.95 322.05 C 283.29 319.13 283.14 307.97 289.20 304.34 Z" />
</g>
<g id="#bebebeff">
<path fill="#bebebe" opacity="1.00" d=" M 486.77 289.30 C 491.73 290.23 495.05 294.56 496.78 299.02 C 500.28 308.09 500.22 318.52 496.59 327.55 C 494.72 332.02 491.10 336.58 485.81 336.63 C 487.26 335.07 488.55 333.38 489.73 331.61 C 495.70 327.56 497.27 319.76 497.36 313.00 C 497.26 306.21 495.70 298.32 489.56 294.37 C 488.63 292.68 487.69 290.99 486.77 289.30 Z" />
</g>
<g id="#48484eff">
<path fill="#48484e" opacity="1.00" d=" M 282.61 295.69 C 285.37 293.73 288.82 294.33 291.91 294.94 C 303.36 302.82 303.69 322.15 292.69 330.55 C 289.74 331.82 286.22 332.39 283.31 330.71 C 277.34 327.53 274.87 320.37 274.63 313.99 C 274.44 307.21 276.62 299.54 282.61 295.69 M 289.20 304.34 C 283.14 307.97 283.29 319.13 289.95 322.05 C 295.34 323.20 298.14 316.48 297.59 312.06 C 297.58 307.94 293.90 302.15 289.20 304.34 Z" />
</g>
<g id="#ff573cff">
<path fill="#ff573c" opacity="1.00" d=" M 446.10 295.40 C 446.16 295.12 446.28 294.55 446.34 294.26 C 450.03 294.71 453.75 294.94 457.47 294.99 C 455.56 300.21 452.78 305.24 452.03 310.79 C 449.72 310.94 447.42 311.13 445.11 311.17 C 445.28 305.91 445.50 300.64 446.10 295.40 Z" />
</g>
<g id="#383838ff">
<path fill="#383838" opacity="1.00" d=" M 515.88 295.15 C 520.23 294.51 524.58 293.92 528.94 293.40 C 527.68 302.59 526.98 311.86 525.91 321.08 C 525.77 324.74 522.72 328.10 518.98 328.16 C 514.55 328.35 510.11 328.19 505.68 328.19 C 507.98 317.68 507.50 306.66 505.29 296.17 C 505.98 296.13 507.37 296.05 508.07 296.01 C 510.68 295.84 513.29 295.53 515.88 295.15 Z" />
</g>
<g id="#e6422bff">
<path fill="#e6422b" opacity="1.00" d=" M 434.65 303.59 C 438.66 302.17 441.81 299.24 444.91 296.45 L 446.10 295.40 C 445.50 300.64 445.28 305.91 445.11 311.17 C 433.73 311.18 422.36 311.13 410.98 311.16 C 411.06 309.40 411.14 307.64 411.23 305.89 C 419.06 305.72 427.24 306.74 434.65 303.59 Z" />
</g>
<g id="#e6412bff">
<path fill="#e6412b" opacity="1.00" d=" M 227.84 302.75 C 228.42 301.76 229.50 301.59 230.54 301.46 C 229.84 303.53 229.18 305.62 228.63 307.73 C 226.99 314.24 226.92 320.98 225.90 327.58 C 220.67 327.61 215.44 327.41 210.21 327.75 C 209.22 323.21 209.58 318.57 209.78 313.98 C 213.67 313.18 217.79 312.53 221.05 310.09 C 223.83 308.16 225.66 305.27 227.84 302.75 Z" />
</g>
<g id="#414342ff">
<path fill="#414342" opacity="1.00" d=" M 101.85 303.94 C 107.70 309.21 116.24 308.87 123.49 310.59 C 127.63 312.12 132.11 311.72 136.42 312.35 C 133.66 313.09 130.83 313.42 127.99 313.58 C 146.99 313.72 166.01 313.80 185.01 313.97 L 185.50 314.84 C 171.50 315.98 157.44 314.11 143.46 315.23 C 128.52 314.52 113.54 314.90 98.62 313.83 C 99.81 310.58 100.83 307.26 101.85 303.94 Z" />
</g>
<g id="#ff5136ff">
<path fill="#ff5136" opacity="1.00" d=" M 231.45 303.97 C 231.82 305.62 232.19 307.26 232.56 308.91 C 235.46 308.89 238.36 308.70 241.23 308.29 C 241.64 309.37 242.03 310.44 242.45 311.52 C 240.90 316.16 240.38 321.12 238.49 325.63 C 235.35 329.08 230.01 327.08 225.90 327.58 C 226.92 320.98 226.99 314.24 228.63 307.73 C 229.15 307.97 230.19 308.46 230.71 308.70 C 230.96 307.12 231.20 305.55 231.45 303.97 Z" />
</g>
<g id="#dfdfdeff">
<path fill="#dfdfde" opacity="1.00" d=" M 485.70 310.06 C 486.15 307.52 487.28 304.51 490.03 303.75 C 493.40 304.13 494.48 308.04 494.95 310.87 C 495.43 315.21 494.66 320.98 489.92 322.68 C 485.65 320.11 484.99 314.56 485.70 310.06 Z" />
</g>
<g id="#474747ff">
<path fill="#474747" opacity="1.00" d=" M 316.98 311.21 C 319.90 311.17 322.82 311.15 325.75 311.15 C 353.50 311.21 381.26 311.10 409.02 311.16 C 409.51 311.16 410.49 311.16 410.98 311.16 C 422.36 311.13 433.73 311.18 445.11 311.17 C 447.42 311.13 449.72 310.94 452.03 310.79 C 452.79 313.26 451.68 315.70 451.04 318.06 C 450.15 320.75 449.52 323.62 447.92 326.01 C 446.07 328.40 442.72 328.30 440.00 328.43 C 402.00 328.36 364.00 328.41 326.01 328.39 C 323.31 328.46 320.06 327.86 319.01 325.00 C 317.57 320.56 317.82 315.78 316.98 311.21 Z" />
</g>
<g id="#e6513dff">
<path fill="#e6513d" opacity="1.00" d=" M 187.78 313.05 C 195.09 313.80 202.43 314.33 209.78 313.98 C 209.58 318.57 209.22 323.21 210.21 327.75 C 205.96 327.14 201.67 326.57 197.57 325.25 C 197.24 325.05 196.58 324.66 196.25 324.46 C 192.66 321.29 189.15 317.79 187.78 313.05 Z" />
</g>
<g id="#be4f3cff">
<path fill="#be4f3c" opacity="1.00" d=" M 87.75 314.71 C 91.25 314.56 94.75 314.54 98.25 314.76 C 96.97 318.23 94.52 321.05 91.69 323.36 C 89.67 320.84 87.82 318.06 87.75 314.71 Z" />
</g>
<g id="#2e2f2fff">
<path fill="#2e2f2f" opacity="1.00" d=" M 98.25 314.76 C 98.34 314.53 98.52 314.06 98.62 313.83 C 113.54 314.90 128.52 314.52 143.46 315.23 C 145.90 315.83 148.38 316.27 150.89 316.43 C 149.21 316.81 147.54 317.24 145.88 317.69 C 151.43 318.59 157.26 317.13 162.62 319.17 C 167.94 320.95 173.39 322.25 179.01 322.40 C 185.07 323.97 191.20 326.10 197.57 325.25 C 201.67 326.57 205.96 327.14 210.21 327.75 C 204.15 328.32 198.08 327.52 192.01 327.73 C 169.51 327.70 147.02 327.63 124.53 327.58 C 116.70 327.55 108.87 327.68 101.05 327.53 C 97.49 327.45 94.36 325.55 91.69 323.36 C 94.52 321.05 96.97 318.23 98.25 314.76 Z" />
</g>
<g id="#353736ff">
<path fill="#353736" opacity="1.00" d=" M 143.46 315.23 C 157.44 314.11 171.50 315.98 185.50 314.84 C 187.74 319.27 191.31 323.14 196.25 324.46 C 196.58 324.66 197.24 325.05 197.57 325.25 C 191.20 326.10 185.07 323.97 179.01 322.40 C 173.39 322.25 167.94 320.95 162.62 319.17 C 157.26 317.13 151.43 318.59 145.88 317.69 C 147.54 317.24 149.21 316.81 150.89 316.43 C 148.38 316.27 145.90 315.83 143.46 315.23 Z" />
</g>
</svg>
