<svg xmlns="http://www.w3.org/2000/svg" width="7342.203" height="3710.412" viewBox="0 0 7342.203 3710.412">
  <g id="_1994784334656" transform="translate(-18388.926 -19924.945)">
    <g id="Group_16" data-name="Group 16">
      <path id="Path_76" data-name="Path 76" d="M21928,20131c463-182,648,470,268,625C21773,20929,21514,20294,21928,20131Zm2256,355c-113-266-666-595-1005-499-95,26-186,121-235,131-77,16-787-197-900-193-176,6-164,50-295,85-102,26-238,26-350,55-460,119-174-39-513-90-371-56-765,254-966,504,506,90,900,191,1225,599,468,587,361,880,389,1367,163-220,260-313,277-617,18-328-115-510-129-782l151-125c254,46,205,44,458,0l150,126c-12,285-157,455-126,816,24,283,117,375,273,579,18-599-16-867,390-1365C23289,20697,23700,20544,24184,20486Z" fill="#070707" fill-rule="evenodd"/>
      <path id="Path_77" data-name="Path 77" d="M18760,22282c-169-1405,2032-1706,2202-242,70,601-386,1180-985,1227C19357,23316,18833,22891,18760,22282Zm2546,141c139-780-380-1555-1162-1699-775-142-1577,373-1723,1145C18053,23819,20966,24333,21306,22423Z" fill="#070707" fill-rule="evenodd"/>
      <path id="Path_78" data-name="Path 78" d="M23966,21110c1396-403,1971,1709,605,2121C23202,23643,22518,21528,23966,21110Zm1727,1383c186-788-330-1563-1080-1752-793-200-1581,302-1777,1075-198,781,307,1609,1083,1782C24729,23778,25505,23291,25693,22493Z" fill="#070707" fill-rule="evenodd"/>
      <path id="Path_79" data-name="Path 79" d="M23377,22187c124-66,56-26,112-184,269-761,1126-556,1201-597-91-258-710-173-932-39C23531,21503,23225,21933,23377,22187Z" fill="#070707" fill-rule="evenodd"/>
      <path id="Path_80" data-name="Path 80" d="M18994,22190c169-104,47-363,462-639,375-249,677-74,835-145-110-283-726-163-937-25C19133,21526,18843,21928,18994,22190Z" fill="#070707" fill-rule="evenodd"/>
      <path id="Path_81" data-name="Path 81" d="M22199,20546c89-301-192-320-271-202C21826,20494,21970,20704,22199,20546Z" fill="#070707" fill-rule="evenodd"/>
    </g>
  </g>
</svg>
