<svg xmlns="http://www.w3.org/2000/svg" width="7331.156" height="7323.36" viewBox="0 0 7331.156 7323.36">
  <g id="Group_21" data-name="Group 21" transform="translate(-30960.719 -5790.64)">
    <path id="Path_58" data-name="Path 58" d="M30966,12517l494-491c168-165,325-331,492-493,45-42,78-79,122-122,289-277,582-589,868-866,167-163,325-326,492-493l187-183c22-25,38-41,61-65l370-370c24-24,38-35,61-57l496-497c44-37,274-288,312-309-68-164-113-159-218-465-116-343-93-812,49-1145,123-288,109-225,240-437H31555c-264,0-483,129-562,380-50,158-27,407-27,605Z" fill="#1b9b58" fill-rule="evenodd"/>
    <path id="Path_59" data-name="Path 59" d="M34992,6524c-131,212-117,149-240,437-142,333-165,802-49,1145,105,306,150,301,218,465l248,348c40,61,84,107,127,168,23,33,39,52,65,86,22,29,41,59,65,84,19,33,50,69,75,104,159,217,232,328,369,557,236,397,410,931,472,1386,31,111,14,173,160,156,77-57,78-184,97-313,15-107,50-243,79-342,133-457,336-883,606-1262,38-53,239-338,271-363l216-286c92-122,226-320,304-462,175-323,253-674,201-1046-21-147-48-272-102-411-14-34-22-60-36-91-64-138-193-354-294-463l-131-131c-25-24-38-40-65-61-221-170-377-276-658-360-317-94-684-108-1007-17-305,87-511,207-748,405-41,35-87,86-127,126Z" fill="#d73d34" fill-rule="evenodd"/>
    <path id="Path_60" data-name="Path 60" d="M31562,13114h5399l-254-263c-28-29-58-51-87-81l-505-505c-30-30-50-57-83-86l-422-419c-449-451-895-899-1346-1346l-132,127c-16,18-22,26-40,44-167,166-437,450-591,587-56,50-176,185-252,252-27,24-55,59-82,86l-1101,1096c-28,33-50,58-82,86l-337,337C31622,13055,31579,13088,31562,13114Z" fill="#4e74b9" fill-rule="evenodd"/>
    <path id="Path_61" data-name="Path 61" d="M30966,12517c0,171,35,327,160,436,28,25,45,45,77,67l97,54c78,34,173,40,262,40,17-26,60-59,85-85l337-337c32-28,54-53,82-86l1101-1096c27-27,55-62,82-86,76-67,196-202,252-252,154-137,424-421,591-587,18-18,24-26,40-44l132-127,591-591,571-566c-24-25-43-55-65-84-26-34-42-53-65-86-43-61-87-107-127-168l-248-348c-38,21-268,272-312,309l-496,497c-23,22-37,33-61,57l-370,370c-23,24-39,40-61,65l-187,183c-167,167-325,330-492,493-286,277-579,589-868,866-44,43-77,80-122,122-167,162-324,328-492,493Z" fill="#fcd63b" fill-rule="evenodd"/>
    <path id="Path_62" data-name="Path 62" d="M34264,10414c451,447,897,895,1346,1346l422,419c33,29,53,56,83,86l505,505c29,30,59,52,87,81l254,263c153,0,310-32,415-138,147-149,179-240,179-462l-1053-1054c-146,17-129-45-160-156-69-65-124-126-188-189l-555-556c-14-13-715-723-744-736Z" fill="#f1f2f2" fill-rule="evenodd"/>
    <path id="Path_63" data-name="Path 63" d="M36502,11460l1053,1054V9180c-32,25-233,310-271,363-270,379-473,805-606,1262-29,99-64,235-79,342C36580,11276,36579,11403,36502,11460Z" fill="#cbccc9" fill-rule="evenodd"/>
    <path id="Path_64" data-name="Path 64" d="M36414,6985c-235,26-401,137-501,304-21,35-39,66-53,106-167,461,199,909,653,864,352-34,607-319,585-690C37079,7251,36770,6944,36414,6985Z" fill="#762523" fill-rule="evenodd"/>
    <path id="Path_65" data-name="Path 65" d="M34855,9823c29,13,730,723,744,736l555,556c64,63,119,124,188,189-62-455-236-989-472-1386-137-229-210-340-369-557-25-35-56-71-75-104Z" fill="#cbccc9" fill-rule="evenodd"/>
  </g>
</svg>
