<svg id="search" xmlns="http://www.w3.org/2000/svg" width="26.1" height="26.1" viewBox="0 0 26.1 26.1">
  <path id="Path_1473" data-name="Path 1473" d="M5.784,146.992l-.909,3.392-3.321.07a13.073,13.073,0,0,1-.1-12.186h0l2.956.542,1.3,2.938a7.788,7.788,0,0,0,.073,5.244Z" transform="translate(0 -131.22)" fill="#fbbb00"/>
  <path id="Path_1474" data-name="Path 1474" d="M274.163,208.176a13.045,13.045,0,0,1-4.652,12.615h0l-3.724-.19-.527-3.29a7.778,7.778,0,0,0,3.346-3.972h-6.978v-5.163h12.535Z" transform="translate(-248.291 -197.564)" fill="#518ef8"/>
  <path id="Path_1475" data-name="Path 1475" d="M50.173,316.863h0a13.054,13.054,0,0,1-19.665-3.992l4.229-3.462a7.761,7.761,0,0,0,11.184,3.974Z" transform="translate(-28.954 -293.636)" fill="#28b446"/>
  <path id="Path_1476" data-name="Path 1476" d="M48.545,3,44.317,6.465a7.76,7.76,0,0,0-11.441,4.063l-4.251-3.48h0A13.053,13.053,0,0,1,48.545,3Z" transform="translate(-27.165)" fill="#f14336"/>
</svg>
