<svg xmlns="http://www.w3.org/2000/svg" width="12872" height="19416.229" viewBox="0 0 12872 19416.229">
  <g id="Layer_x0020_1" transform="translate(0 0.365)">
    <g id="_2444770267728">
      <path id="Path_145" data-name="Path 145" d="M3121,13369c27-290-10-428,97-441l9,244c-6,80-9,179-26,248-5,3-12,5-16,6l-116,14c-53,1-96-1-150,3-3,67,11,114-23,159-75-21-44-60-47-161l-213-1c-17-179-13-166,30-183,66-26,38,2,68,89Zm-1343-624-190,35c0,363-22,652-22,1005,0,313,24,729-1,1029-31,380-22,1088-20,1525,0,194-22,309-22,510l169,10,8,767h12l3-767h318l6,752,13-2,1-753,457-4c0-155,17-228,21-385l129-2424c-1-226,22-322,22-408h429l1,1224c-1,142-23,222-23,385l-21,1595c109,54,347,12,495,23l322-4,14,768h11l1-769,144-7c0-154,24-375,40-515,26-238,30-867,61-1097l27-831c1-119,21-137,23-256,1-93-3-188-2-281,4-307,113-969,194-1257-196-47-501,32-665-25l-18-92c-114,18-298,99-425,140-136,44-305,77-456,104C2509,12797,2106,12805,1778,12745Z" fill="#c59b6c" fill-rule="evenodd"/>
      <path id="Path_146" data-name="Path 146" d="M3370,5522c-165,147-538,192-798,187l-101-153-148-322c45,1,57-4,97,10,54,20-3-23,35,35,34-68,29-46,139-50,389-13,571-25,974-93l-4,155,21-155,172-56C3733,5259,3508,5481,3370,5522ZM1851,4128c347-138,512,455,165,560C1684,4789,1500,4267,1851,4128Zm1902-361c30,166-134,175-165,78C3555,3743,3650,3681,3753,3767Zm-1453-26c40,138-46,225-137,136C2080,3795,2166,3698,2300,3741Zm-542-483c97-482,705-165,937,5l3,311c-77-29-128-86-204-134C2237,3278,2056,3201,1758,3258Zm-201,948-12,619c0,288,67,390,273,664,70,94,125,183,204,268l166,177c49,53,16-9,65,70,92,26,146,137,236,144l30,29a174.1,174.1,0,0,0,14,12c70,57,82,41,128,70,346,92,464,93,771-69l237-160,112-118c38-128,178-382,246-521,119-241,71-410,77-695-524,16-275-859,160-503,180-66,157-344,138-426-18-77-204-253-262-297l-863,130,114,1148-379-4c-22-184-6-461-6-656,0-345-5-255,134-507,57-105,57-114,188-157,259-85,563-154,805-42l-37-238c-393-52-610,73-931,175V3137c283-58,638-244,912-56,33-66-46-571-65-663l9-1-254-28c-162,168-728,242-1011,253l116-358c-61,34-114,94-201,143-219,127-552,194-814,211,35-101,110-196,153-291l-79,24c-14,40,6,17-17,89-129,399-287,615-323,1222C1582,3846,1617,4065,1557,4206Z" fill="#fda082" fill-rule="evenodd"/>
      <path id="Path_147" data-name="Path 147" d="M9337,5657c520-63,262,12,827-132C9973,5820,9495,5942,9337,5657Zm790-433c-138,154-607,280-877,276l-145-248-54-110c18-4,69-16,79-16,58-1,33-3,64,24,76-99,357-108,485-135,160-34,361-86,514-104l245-72c-46,139-119,212-204,301C10183,5194,10192,5188,10127,5224Zm355-771c-45-440,512-442,545-84C11066,4789,10518,4804,10482,4453Zm675-601c262-111,154,549-25,521l-7-28c0-3-1-11-1-14l99-197C11305,3905,11159,3959,11157,3852ZM8715,3638c-76-24-66-9-88-84,107,43,12,58,177,51,106-4,135,5,171,73,116,223-225,339-284,126-38-134,49-59-67-145l50-13C8701,3641,8692,3650,8715,3638Zm1858-17c-35,120-35-17-68,142-51,247-278,191-315,4-45-12-134,19-204,52-77,37-97,102-131,192-75,195,29,294,77,485l-383,197c-50-66-94-149-103-253l178-6,118-452,56,113c37-239-34-330,142-706,140-15,328-14,466,8,114,18,289,45,339,155Zm-470-516c-8-255,552-217,483-17l-129-17C10232,2982,10269,3160,10103,3105ZM9069,2584l-294,60-122,412c118-22,236-51,355,5,51,23,88,57,123,92,44,44,62,62,47,137-139,26-65-58-210-124-134-61-175-13-301-4l-18-66c-131,218-155,761-141,1030,241-63,419,105,374,346-32,167-217,297-403,190-5-3-11-7-15-9l-31-20c25,165,175,544,142,674,31,57,21,34,58,82,17,24,27,38,46,61,57,63,61,41,99,119,53,40,91,83,141,134,50,50,125,101,156,150,95,29,249,185,362,234,138,59,380-32,517-76,77-23,165-68,241-116,38-24,70-45,103-69,46-33,61-55,108-86,35-51,39-53,92-86,32-89,231-218,378-709,54-178-6-184,156-236,107-96,136-89,206-242l41-52c28-122,306-971-230-729l-49-110c-39-58-116-42-221-269-76-167-105-347-110-548l-829-194c51,88,311,245,374,339C9446,2875,9253,2600,9069,2584Z" fill="#fda183" fill-rule="evenodd"/>
      <path id="Path_148" data-name="Path 148" d="M3436,7620c5,58,10,118,27,175,28,98,24,47,78,122l-12,244c-21,157-56,729-117,772l-46,452-996-32,18,206,154,2801c-97,38-241,147-364,213-144,76-261,108-400,172,328,60,731,52,1056-5,151-27,320-60,456-104,127-41,311-122,425-140-76-485-60-3150-49-3795,6-390-19-883,18-1259-121,29-197,83-347,104C3418,7578,3404,7531,3436,7620Z" fill="#ecd8c3" fill-rule="evenodd"/>
      <path id="Path_149" data-name="Path 149" d="M3590,6719c106,12,77-18,120,96,17,46,28,79,46,125,31,82,79,176,83,266l44,33c46-47,93-113,138-181,123-184,55-144,161-152l-13,134,79-9,16,187-138-6c5,61-38,177-63,252-14,44-27,98-39,132-38,106,9,123-74,54l-2,4892c-87,18-120,45-215,46,164,57,469-22,665,25l429-8v-793c0-289-21-505-21-800L4691,9207l-13-98c-134-62-227-69-300-347-122-471-35-393-30-526l-169-10-166-290c9-61,69-137,97-185-46-41,0,1-42-24l-41-25c-2-7-10-5-13-9l54-135,196,1c74-220,79-393,175-617l-93-65c20-14-20,2,49-28,17-7,34-12,51-17,25-6,91-14,124-17l107-2v-43c-68-18-192-111-258-155-96-41-315-200-416-265-218-142-242-122-552-128Z" fill="#89d2cc" fill-rule="evenodd"/>
      <path id="Path_150" data-name="Path 150" d="M1352,9709c-111,310-214,1424-322,1607-3,133-63,336-86,474-22,134-83,342-86,466,70-139,229-918,278-1133,46-206,210-1012,279-1140,1,353-275,2053-214,2201,378,75,623,59,990,13-138,117-397,200-615,241-377,70-442-10-739-90,60,115,158,260,266,335,95,65,344,153,485,97l190-35c139-64,256-96,400-172,123-66,267-175,364-213L2388,9559l1,256c-169-18-351-43-524-64C1713,9734,1476,9669,1352,9709Z" fill="#8ad2cc" fill-rule="evenodd"/>
      <path id="Path_151" data-name="Path 151" d="M9230,15030l582,1772c70,209,336,974,337,1144,1,321,14,385,170,734,113,149,145,365,365,367,158-99,221-238,185-477,16-232-393-467-420-838-36-474,19-910-60-1507-43-330-19-870-128-1137l-264-706c-242-11-645-227-889-251-8,119-22,376,1,478C9142,14752,9223,14879,9230,15030Z" fill="#fe947a" fill-rule="evenodd"/>
      <path id="Path_152" data-name="Path 152" d="M10888,9455l9,126c-80,5-10-2-55-6-110-10-62,2-137,13-51-63-21-65-89-111l-57,10,48,587c10,222,80,647,44,848-14,79-24,25,4,117l6,26c70,129,7,364,66,484,460,42,829-286,1016-652,536-1053,286-3425-227-3994-48-53-58-73-131-90,99,428,190,853,288,1286,66,291,263,1033,257,1295Z" fill="#3a2313" fill-rule="evenodd"/>
      <path id="Path_153" data-name="Path 153" d="M8860,1295l313,56,98,10c19-81,18-124,61-191,138,51,248,151,373,193l48-87c109,8,301,53,405,100,58,26,22,28,83,28,110-52,261-55,394-29,8,72-25,120-52,195l680,114c114-225,75-826-120-1123-456-696-1585-693-1922-274C9016,543,8860,962,8860,1295Z" fill="#eeb55a" fill-rule="evenodd"/>
      <path id="Path_154" data-name="Path 154" d="M8654,18913c80,48,234,24,320-16,108-49,121-96,178-207,96-186,176-375,169-614,3-144-77-50-75-321,0-136,1-272,0-408,0-161,21-252,23-386,4-322,30-1376-41-1591-71-214-24-123,2-340-7-151-88-278-121-421-23-102-9-359-1-478l-12,5,4,262c-328-58-545-145-755-358-89-90-39-51-64-40,1,166,156,853,194,1287,54,627,316,1854,448,2512C9003,18199,8992,18617,8654,18913Z" fill="#e18470" fill-rule="evenodd"/>
      <path id="Path_155" data-name="Path 155" d="M10152,9523l-522-4,11,190c-135,110-521,264-709,351-175,81-590,252-712,357l-146-10c-65-24-65-33-123-54l-161,106,272,756c64,51,396,98,497,82l1289-901c123-68,545-24,719-31,13-133-39-203,40-291l-48-587C10423,9466,10297,9512,10152,9523Z" fill="#d3cbc2" fill-rule="evenodd"/>
      <path id="Path_156" data-name="Path 156" d="M1579,7754l-491,218,133,476,43,176c43,68,73,186,69,270-42,38-63,55-95,78-81,59-15,37-122,56,18,59,21,3-11,51L963,9192c-167,119-451-63-526-245-40-96-34-51-4-90-20-14-2-7-48-26-27-11-11-3-42-8-101,228-177,477-244,749-29,114-83,297-99,468v180c9,70,31,131,72,176-29-128-25-152,14-277,55,36,246,446,268,513,104-53,99-97,177-178,64-66,117-116,182-182,118-117,233-242,351-348,39-84,232-298,301-329,117-118,154-164,257-302,44-59,75-100,120-158,63-79,61-78,65-200l-51-446c59,23,41,28,107,39,45-129,150-278,156-411-60-52-134-135-176-206l-38-47c90-94,203-66,313-107-70-56-73-1-136-63l-33-21-33-60Z" fill="#fe947a" fill-rule="evenodd"/>
      <path id="Path_157" data-name="Path 157" d="M8303,2034c330,2,521-28,864,29,154,26,633,103,712,180-46,58-55,45-84,85,72,47,750,138,895,157l766,105c317,49,1141,129,1416-3-3-149-118-178-307-272-141-71-289-116-429-179-73,30-748-74-847-107-25,39,37,49-182,6l-666-119-59,151-381-150c-66,39-140,28-220,10-84-18-137-28-142-96l-367-49-15-89-114-28-287-51c15,67,16,58,52,99L7673,1535c-279,0-499,44-743,65,62,86,883,307,1012,339Z" fill="#eeb55a" fill-rule="evenodd"/>
      <path id="Path_158" data-name="Path 158" d="M7702,12113c37,75,97,654,129,796,883-75,1833-84,2724-101,31-43,50-278,58-338,17-113,49-267,49-370-528-46-960-96-1501-72C8705,12047,8136,12049,7702,12113Z" fill="#d56466" fill-rule="evenodd"/>
      <path id="Path_159" data-name="Path 159" d="M4013,7936l386,143,9,159c70,71,156,144,237,216,212,190,103,73,100,309-5,277,118,586,154,839,66,235,259,890,357,1094,150-35,304-40,468-69,190-34-33-73,369-167,0-378-148-735-266-1065-43-120-98-219-120-341l-67,30c17,17,52,2-42,130l-42,47c-49-55-53-55-55-112-66-22-187-252-234-333l-14-26-123-202c-81-78-134-228-198-273-88-41-125-20-227-30l4-559c8,6,28,26,45,42,74,67,25,45,59,28l-26-65c-59-47-79-101-98-174l-425,2-196-1-54,135c3,4,11,2,13,9l41,25c42,25-4-17,42,24C4082,7799,4022,7875,4013,7936Z" fill="#fe947a" fill-rule="evenodd"/>
      <path id="Path_160" data-name="Path 160" d="M7852,13052c7,84,81,533,107,574,194,39,339,131,521,175,172,42,455,56,638,59,495,9,834-78,1287-114,8-105,46-256,64-368,21-122,57-279,65-400Z" fill="#d56466" fill-rule="evenodd"/>
      <path id="Path_161" data-name="Path 161" d="M8277,2434c519,23,718-48,1191-132-4,4-11,5-13,13s-9,10-12,12c-17,15-14,15-38,32-32,22-58,33-83,45-55,27-102,53-158,79-222,105-544,167-794,122-116-21-267-64-350-147,145-317,861-334,997-265C8849,2133,8344,2310,8277,2434Zm501,3135c-38-78-42-56-99-119-19-23-29-37-46-61-37-48-27-25-58-82l-10,6c-174,91-423,246-534-30-53-133-108-622-31-733-91-171-142-296-175-525-40-287,11-411,290-361l158-726c54,48,49,52,59,125,18-70,27-156,42-236,26-141,24-116,164-131l237-52,294-60c101-47,252-66,368-106,135-47,242-101,358-150,29-40,38-27,84-85-79-77-558-154-712-180-343-57-534-27-864-29-95,45-515,72-515,553,196,131,98,88,364,150-53,80-55,108-99,200l-287,679c-177,448-532,1585-43,1932C7991,5739,8474,5701,8778,5569Z" fill="#cf6700" fill-rule="evenodd"/>
      <path id="Path_162" data-name="Path 162" d="M1287,2587Zm301-570c-176,98-308,99-580,291-231,162-289,249-407,472,167-14,527-180,686-193-20,87-49,114-70,229-12,60-33,190-37,264-10,197,11,418,51,579l57,235,37,85c97,85,92,252,232,227,60-141,25-360,34-524,36-607,194-823,323-1222,23-72,3-49,17-89l79-24c-43,95-118,190-153,291,262-17,595-84,814-211,87-49,140-109,201-143l-116,358c283-11,849-85,1011-253-243-90-1041-124-1193-228,149-35,98-43,255-2,402,104,534-122,648-215-121,66-216,259-616,182-378-74-379-231-482-338,54,193,83,149,139,250C2171,2016,1942,1994,1588,2017Z" fill="#3a2313" fill-rule="evenodd"/>
      <path id="Path_163" data-name="Path 163" d="M11085,3431c2-143,75-192,124-319,72-183,21-214,14-372,46,30,174,184,219,247C11765,3434,11378,3498,11085,3431Zm-416-672c5,201,34,381,110,548,105,227,182,211,221,269l49,110c536-242,258,607,230,729l180,163-23-470c88,105,457,1016,225,1314l-173-471c-15,372-202,608-415,731,59-184,141-314,188-547,27-137,79-543-23-668-70,153-99,146-206,242,38,62-1,273-11,341-38,249-166,735-523,604-53,33-57,35-92,86,217,106,1316,293,1468-419,114-538-273-1306-461-1662,307,0,450-172,357-485-83-278-284-482-314-584l-766-105Z" fill="#ce6600" fill-rule="evenodd"/>
      <path id="Path_164" data-name="Path 164" d="M7865,8234c166,124,174,63,383-38,266-131,977-506,1167-565l-2,196,228-106c-1,157,0,313,1,465,1,83,7,133-15,206-73,234,39,204-68,230l37-211,114,106c38,46,48,57,94,98,134,121,170,53,267,119,29,20,126,188,153,234,76,131,50,152,229,109,72-58,5,6,35-64,21-51-22,8,49-64l-34-110c-58-90-116-77-191-174-62-79-86-174-107-277-55-257-107-421-37-656-49-257-82-397-89-676-75,261,27,313-195,395-491,180-970,122-1405-126l42-299-7-17,71-770c-21-69-173-64-245-72l-102-11C8274,6692,8301,8024,7865,8234Z" fill="#ecd8c3" fill-rule="evenodd"/>
      <path id="Path_165" data-name="Path 165" d="M7680,11240c-50,84-18,668,22,737,450-65,1010-73,1480-98,457-24,1076-8,1502,94,0-126,34-303,43-424-59-120,4-355-66-484l6,83c-501,73-927,209-1470,244C8130,11462,8238,11306,7680,11240Z" fill="#d56466" fill-rule="evenodd"/>
      <path id="Path_166" data-name="Path 166" d="M10864,7627c4,99,205,528,260,656,67,155,235,505,267,654-89,35-442,80-545,73,17,118,61,143,63,228,4,175-72,74-21,217l1042-61c6-262-191-1004-257-1295-98-433-189-858-288-1286-6-79-44-201-72-285-43-127-62-141-200-173l-64,13-88-1,138,70C11154,6752,10895,7308,10864,7627Z" fill="#fe957b" fill-rule="evenodd"/>
      <path id="Path_167" data-name="Path 167" d="M1309,6855l-62,47c16,68-20,24,40,27l170,16c-47,43-154,124-213,135-40,75-174,166-241,243-195,221-471,589-607,842,41,36,752,272,825,283l-133-476,491-218c51-157-2-201-26-368-21-151-34-291-48-444,83,11,260,10,317,45,10,5,136,148,142,158,86,130-11,385-15,528l33,21,300-1-36-615c-4-97,6-74-28-145l-30-99c50-109,72-231,100-350,14-60,32-115,46-173,16-66,49-125-24-109-113,31-258,38-341,91-57,37-64,58-112,102l-441,375C1367,6819,1365,6822,1309,6855Z" fill="#8ad2cc" fill-rule="evenodd"/>
      <path id="Path_168" data-name="Path 168" d="M8345,9562l-26-257c-60-64,8,32-19-18-10-19-9-40,7-62,24-36,107-64,151-77-18,132-59,14-38,219C8433,9494,8458,9529,8345,9562Zm215-814c74-105-27-86,64-152l34,95c29,191,41,220-34,258-58-72,19-85-69-118-50,114,52,158-81,185-7-18-63-304,17-377,71,42-13-35,49,76Zm-292,17c52-60,94-75,165-89-21,134-63,17-42,218,13,123,36,130-46,190-29-30-8,15-26-41-4-12-2-50-2-63,0-110,4-107-24-166Zm567-255c-5,160-39,13-77,158l70,11c-14,69-30,29-63,108,44,16,52-5,88,21-13,95-86,100-171,107l10-342Zm578-683c-104,89-496,260-640,336-108,56-213,109-325,169-68,36-300,140-330,163l58,12c-13,369,112,1686,44,1910,122-105,537-276,712-357,188-87,574-241,709-351l-11-190-93-2c27,195-52,144-507,320-99,39-198,76-296,112-109,41-249,114-309,77l-86,4-8-333c52-40,94-78,160-35l49,41c22-86,55-100,63-145l48-96c-74-25,11,8-34-28l-29-19c-3,5-14,23-18,28-23,29,25,9-53,45-50-86-35-262-31-363,226-54,186-33,130,183l73,58c41-49,27-34,42-107,36-178,15-239,139-281l47,142c41-47,73,63,19-91l29-99c41-1,44,19,98,148l21-118c-43-72-32-44,5-140,98-9,181,48,275,79l-3-135c-59-59-21,7-48-62l60-83c-53,3-27,13-103-37l-31-28c-12,112-32,156-121,179-91-65-93-148-52-278,61-190,138-98,166-74,4,4,12,20,15,16,3-5,9,11,14,16,17-106,24-166,142-183,73,104,61,249,2,365l154,27c107-26-5,4,68-230,22-73,16-123,15-206-1-152-2-308-1-465Z" fill="#7ab6a0" fill-rule="evenodd"/>
      <path id="Path_169" data-name="Path 169" d="M3684,7442c-37,376-12,869-18,1259-11,645-27,3310,49,3795l18,92c95-1,128-28,215-46l2-4892c-15-132,7-111-85-175-70-50-109-81-179-103Z" fill="#e8f5f7" fill-rule="evenodd"/>
      <path id="Path_170" data-name="Path 170" d="M9083,6041l-18,253c-111,17-348-42-480-55l-71,770h1570c9-238,80-474,86-665-89,11-139,34-233,18-9-84-16-150,17-213V6011c-137,44-379,135-517,76-113-49-267-205-362-234Z" fill="#fe947a" fill-rule="evenodd"/>
      <path id="Path_171" data-name="Path 171" d="M1781,1278l128,8,200-544,344,7,11,292-94,6c222-5,520,68,704,119,192,53,413,198,573,217,91,14,21,7,46-19l-4-600,766,25-86,676,201,9c0-129,67-820,23-863L2145,506c-112-1-122-20-214-22C1910,527,1783,1202,1781,1278Z" fill="#f3c73f" fill-rule="evenodd"/>
      <path id="Path_172" data-name="Path 172" d="M2188,6834l30,99c34,71,24,48,28,145,70,42,118,129,194,191,71,59,129,105,224,162,220,130,532,106,618,153,21,0,68-1,86,2,54,11,36-3,68,34-32-89-18-42-99-74,150-21,226-75,347-104l2-70c26-62,92-134,153-166-4-90-52-184-83-266-18-46-29-79-46-125-43-114-14-84-120-96l35,94c-44,27,64,25-74,13l-239-65c-120-40-173-59-289-118-137-71-417-293-362-384-46-29-58-13-128-70a174.1,174.1,0,0,1-14-12l-30-29v56l-205,616Z" fill="#fe947a" fill-rule="evenodd"/>
      <path id="Path_173" data-name="Path 173" d="M8559,11297c271,78,834,17,1123-39,150-30,339-77,471-127,51-18,456-91,502-92-28-92-18-38-4-117,36-201-34-626-44-848-79,88-27,158-40,291-174,7-596-37-719,31Z" fill="#ecd8c3" fill-rule="evenodd"/>
      <path id="Path_174" data-name="Path 174" d="M4077,3081l19,63,37,238c-242-112-546-43-805,42-131,43-131,52-188,157-139,252-134,162-134,507,0,195-16,472,6,656l379,4L3277,3600l863-130c58,44,244,220,262,297,19,82,42,360-138,426l1,12c20,9,65,8,87,127,33,180-71,378-248,364-6,285,42,454-77,695-68,139-208,393-246,521,138-109,257-271,369-420,64-86,111-145,171-236,75-113,82-153,75-331l45-712c-47-146-20-341-31-512-11-162-34-320-71-479l-196-637c-45-116-38-114-131-167C4031,2510,4110,3015,4077,3081Z" fill="#fc804e" fill-rule="evenodd"/>
      <path id="Path_175" data-name="Path 175" d="M2217,8572c-108-553,711-679,797-164C3107,8962,2312,9061,2217,8572Zm942-513c110-89,217,77,126,153-88,75-199-2-167-103C3142,8037,3135,8077,3159,8059ZM1807,8935c137,34,399,11,552,7l1053-9c61-43,96-615,117-772l12-244c-282,37-570,55-859,54-168,0-281,0-449-20-133-16-234-43-390-40,42,71,116,154,176,206-6,133-111,282-156,411-66-11-48-16-107-39Z" fill="#773912" fill-rule="evenodd"/>
      <path id="Path_176" data-name="Path 176" d="M10225,6169l-55,175c-6,191-77,427-86,665H8514l7,17,1498-8c108,10,33-2,60,38,7,279,40,419,89,676l215-33c55,78,88,377,152,529,54,127,46,97,58,280,12,171,26,179-95,254l5,77,34,110,190-13c33,49,32,77,59,64,9-171-82-248-74-413-33-50-149-765-171-902-39-239,6-218,50-436,31-155,44-290,72-450l23-244c-67-100,37-217-25-407-72-106-241-95-385-129C10256,6062,10240,6109,10225,6169Z" fill="#b28f89" fill-rule="evenodd"/>
      <path id="Path_177" data-name="Path 177" d="M3325,18105l69-28-25,216c46-18,47-17,74-53,5,96-32,182-25,268,21,269,67-160,62,190,105-53,32-11,94,92,62,101,329,174,441,206,396,114,468,34,705-61-164-251-376-189-596-413-147-149-98-125-91-210l-57,4c-39-17,18-11-56-105-53-66-64-55-77-122-12-61,19-25-18-103-22-47-36-20-29-123,8-134,88-107,48-237l-283-13c-68-3-172-17-222,13C3303,17772,3325,17951,3325,18105Z" fill="#905a48" fill-rule="evenodd"/>
      <path id="Path_178" data-name="Path 178" d="M7141,9242l-34,129c-83,9-213,13-274,59l-12,193,967,624,163,106c58,21,58,30,123,54,7-209-107-790-112-1028l-22-19a87.047,87.047,0,0,1-11-9l-585-293-25,113Z" fill="#8dc0ad" fill-rule="evenodd"/>
      <path id="Path_179" data-name="Path 179" d="M6981,7864c61,99,419,299,528,412l-539-271-12,534,58-22-1-409,636,301,3-145,125,1,1,229,229,100v724l-670-322-15,44,20,18,585,293a87.047,87.047,0,0,0,11,9l22,19,94,33,9-756c-4-185-28-55-76-158l129-3c30-23,262-127,330-163,112-60,217-113,325-169,144-76,536-247,640-336l2-196c-190,59-901,434-1167,565-209,101-217,162-383,38l-122-90c-80-33-428-269-472-323-85-47-241-172-320-193C6951,7733,6966,7767,6981,7864Z" fill="#fcf8e6" fill-rule="evenodd"/>
      <path id="Path_180" data-name="Path 180" d="M4603,2477c-141,67-423-54-494-155-99-47-141-178-151-314-11-143,10-294,122-362,205-126,621,52,785,120,43,80,71,73,117,213C4953,2216,4821,2450,4603,2477Zm375-641c7-5,26-50,126-21,60,16,60,30,69,89C4929,1921,5005,1878,4978,1836ZM3498,1547c26,186-131,381-238,460-147,107-440,85-581-20-257-103-468-991,396-737,121,36,304,86,365,201l17-10c28-107,194-29,287-4-26,68-1,30-40,70-50,54-5-31-147,153C3478,1590,3529,1710,3498,1547ZM2390,1116c81-28,130-5,182,28-21,66-18,74-106,51C2394,1175,2397,1183,2390,1116Zm0,231-9,220-2,221c103,107,104,264,482,338,400,77,495-116,616-182,36-39,28-37,55-76,67-93,91-178,222-160,70,58,74,91,81,210l21,139c45,75,60,168,126,259,38,54,131,125,220,169,252,125,379,83,620,13,79-35,108-96,150-196,40-92,60-182,134-237,70-45,69-14,103-84,9-18,42-143,47-167-200-106-452-197-686-247-272-32-525-49-773-119l-150-65c-160-19-381-164-573-217-184-51-482-124-704-119-2,48-22,103-24,147C2341,1280,2360,1261,2390,1347Z" fill="#bd1d2c" fill-rule="evenodd"/>
      <path id="Path_181" data-name="Path 181" d="M1824,17970h264c28,240,4,257-63,435H1609c-108,55-24,113-343,272-67,33-130,62-200,100-101,54-108,71-165,158,136,47,147,105,321,110,133,4,259-15,384-49,107-29,378-109,439-208,60-98-7-147,94-91,0-71-10-62,17-106,47-79,32,76,44-84,6-83-26-180-26-270,38,38,26,32,77,55l-26-216,71,27-12-477-232-17-13,2-267,15c-19,89,4,89,30,150C1834,17852,1824,17867,1824,17970Z" fill="#8b5e3c" fill-rule="evenodd"/>
      <path id="Path_182" data-name="Path 182" d="M10079,7056c-27-40,48-28-60-38l-1498,8-42,299c435,248,914,306,1405,126C10106,7369,10004,7317,10079,7056Z" fill="#8ad2cc" fill-rule="evenodd"/>
      <path id="Path_183" data-name="Path 183" d="M9559,8622l-154-27-32,24-60,83c27,69-11,3,48,62l248,88-35,124-210-77c-94-31-177-88-275-79-37,96-48,68-5,140l63,57c141,84-23,107,146,325,139,179,142,148,326,166,12-80,26-85,78-142,44-48,57-73,97-118,66-77,151-173,196-249l260,114-98,410c145-11,271-57,407-36l57-10c-24-67-31-58-116-76l-47-324c-179,43-153,22-229-109-27-46-124-214-153-234-97-66-133,2-267-119-46-41-56-52-94-98l-114-106Z" fill="#ff947c" fill-rule="evenodd"/>
      <path id="Path_184" data-name="Path 184" d="M4021,2417l-9,1c93,53,86,51,131,167l196,637c37,159,60,317,71,479,11,171-16,366,31,512,126-6,171-151,231-250l44-78,68-226c0-107,23-148,22-278,0-100-1-201,0-301,1-221-33-351-108-493,29-16,24-12,64-22,18-18,40-40,60-67-241,70-368,112-620-13-89-44-182-115-220-169-66-91-81-184-126-259,10,83,22,136,56,201C3956,2343,3986,2348,4021,2417Z" fill="#3c2414" fill-rule="evenodd"/>
      <path id="Path_185" data-name="Path 185" d="M1365,9595l-13,114c124-40,361,25,513,42,173,21,355,46,524,64l-1-256-18-206-11-411c-153,4-415,27-552-7-4,122-2,121-65,200-45,58-76,99-120,158C1519,9431,1482,9477,1365,9595Z" fill="#7dbbbe" fill-rule="evenodd"/>
      <path id="Path_186" data-name="Path 186" d="M4787,7731l26,65c42,53,87,140,130,211,69,115,11,175-11,308,64,45,117,195,198,273,63-29,25-20,88-26,47-65,116-91,192-136,31-18,60-34,95-55,62-36,58-24,99-78-144-223-462-1074-619-1180-19,9,11,2-44,14-20,5-27,3-49,8Z" fill="#89d2cc" fill-rule="evenodd"/>
      <path id="Path_187" data-name="Path 187" d="M343,8823c31,5,15-3,42,8,46,19,28,12,48,26l149,12,616-32L644,8646l620-22-43-176c-73-11-784-247-825-283-79-15-101-37-181-43-37,76-81,210-110,297C74,8513,9,8636,0,8744,121,8754,241,8814,343,8823Z" fill="#e0eaec" fill-rule="evenodd"/>
      <path id="Path_188" data-name="Path 188" d="M858,12256l-21,92c297,80,362,160,739,90,218-41,477-124,615-241-367,46-612,62-990-13-61-148,215-1848,214-2201-69,128-233,934-279,1140C1087,11338,928,12117,858,12256Z" fill="#7cc6ca" fill-rule="evenodd"/>
      <path id="Path_189" data-name="Path 189" d="M1673,1676c-52-12-226-26-301-33-103-9-200-19-309-34-47-7-289-36-312-32-102,20-64,154-64,280l901,160c354-23,583-1,930,21-56-101-85-57-139-250l2-221-10,196Z" fill="#f3c73f" fill-rule="evenodd"/>
      <path id="Path_190" data-name="Path 190" d="M2832,8616Zm-615-44c95,489,890,390,797-164C2928,7893,2109,8019,2217,8572Z" fill="#f2b567" fill-rule="evenodd"/>
      <path id="Path_191" data-name="Path 191" d="M10712,8587c-8,165,83,242,74,413l60,10c103,7,456-38,545-73-32-149-200-499-267-654-55-128-256-557-260-656-75-71-65-165-139-248,38,188,50,435,73,634C10828,8281,10819,8358,10712,8587Z" fill="#3c2414" fill-rule="evenodd"/>
      <path id="Path_192" data-name="Path 192" d="M8538,2696c-121,193-204,769-236,1027-23,184-55,391-49,580,6,186,81,398,81,531,5,140,168,362,231,479l10-6c33-130-117-509-142-674l-52-229,150-122-23-156c-14-269,10-812,141-1030l4-40,122-412Z" fill="#fab7a6" fill-rule="evenodd"/>
      <path id="Path_193" data-name="Path 193" d="M3647,1383l150,65c108-47,428,9,572,17l86-676-766-25,4,600C3668,1390,3738,1397,3647,1383Z" fill="#edaa4c" fill-rule="evenodd"/>
      <path id="Path_194" data-name="Path 194" d="M9069,2584c184,16,377,291,1145,320-63-94-323-251-374-339l829,194,21-274c-145-19-823-110-895-157-116,49-223,103-358,150C9321,2518,9170,2537,9069,2584Z" fill="#fc804e" fill-rule="evenodd"/>
      <path id="Path_195" data-name="Path 195" d="M7831,12909c2,93,14,62,21,143l2682-74c8-74,21-64,21-170C9664,12825,8714,12834,7831,12909Z" fill="#fefefe" fill-rule="evenodd"/>
      <path id="Path_196" data-name="Path 196" d="M3339,17626c50-30,154-16,222-13l2-751c-148-11-386,31-495-23l-129,16,22,556C2958,17668,2908,17626,3339,17626Z" fill="#ad855e" fill-rule="evenodd"/>
      <path id="Path_197" data-name="Path 197" d="M7271,7821c44,54,392,290,472,323l66-335c-51-84-80-278-62-366-101-232,41-781,27-1059l-152,306c-54,125-90,236-132,362C7445,7188,7277,7704,7271,7821Z" fill="#fe957b" fill-rule="evenodd"/>
      <path id="Path_198" data-name="Path 198" d="M2370,9353l996,32,46-452-1053,9Z" fill="#d4c0b6" fill-rule="evenodd"/>
      <path id="Path_199" data-name="Path 199" d="M8218,6203c-48,267-184,525-210,794-13,138-19,305-40,440-14,92-38,117-73,192l-86,180-66,335,122,90c436-210,409-1542,373-2078Z" fill="#d3cbc2" fill-rule="evenodd"/>
      <path id="Path_200" data-name="Path 200" d="M7702,11977v136c434-64,1003-66,1459-85,541-24,973,26,1501,72,12-58,17-60,22-127-426-102-1045-118-1502-94C8712,11904,8152,11912,7702,11977Z" fill="#fefefe" fill-rule="evenodd"/>
      <path id="Path_201" data-name="Path 201" d="M8654,18913h-94c-138,206-245,149-257,300,64,43,28,30,124,48,203,37,621,41,710-179,62-151-47-192,131-233v171c156-13,102-56,107-215,7-224,242-293,38-637-44-75-19-55-92-92,7,239-73,428-169,614-57,111-70,158-178,207C8888,18937,8734,18961,8654,18913Z" fill="#e5bb0c" fill-rule="evenodd"/>
      <path id="Path_202" data-name="Path 202" d="M8068,4370c-132,39-325-535-33-529,27,130-4,18-61,112-53,88,12,217,60,298,1,2,31,50,33,54C8069,4311,8100,4301,8068,4370Zm264-1307-86,669-131-68c-279-50-330,74-290,361,33,229,84,354,175,525,65,64,53,90,149,143,33,18,81,32,103,46,75,46,19,31,82,95,0-133-75-345-81-531-6-189,26-396,49-580,32-258,115-834,236-1027-140,15-138-10-164,131C8359,2907,8350,2993,8332,3063Z" fill="#fda183" fill-rule="evenodd"/>
      <path id="Path_203" data-name="Path 203" d="M2052,17609l232,17c55,0,109,1,164,1l117-10c5-2,12-5,16-6l36-758-107-1-457,4Z" fill="#ad855e" fill-rule="evenodd"/>
      <path id="Path_204" data-name="Path 204" d="M10190,3767c7-104,46-159,152-166,153-10,73,49,221-49-21,130-1,31-89,109,61-7,55-15,99-40l172-69c-50-110-225-137-339-155-138-22-326-23-466-8-176,376-105,467-142,706l-56-113-118,452-178,6c9,104,53,187,103,253l383-197c-48-191-152-290-77-485,34-90,54-155,131-192C10056,3786,10145,3755,10190,3767Z" fill="#fc804e" fill-rule="evenodd"/>
      <path id="Path_205" data-name="Path 205" d="M11279,4415l-41,52c102,125,50,531,23,668-47,233-129,363-188,547,213-123,400-359,415-731l173,471c232-298-137-1209-225-1314l23,470Z" fill="#e28f00" fill-rule="evenodd"/>
      <path id="Path_206" data-name="Path 206" d="M5604,8293c-41,54-37,42-99,78-35,21-64,37-95,55-76,45-145,71-192,136l334-47c-36,65-87,98-132,135l-167,140,14,26,335-61-94,233,191-82c-77,142-137,95-198,243l139-65,67-30c98-46,303-184,386-203-21-88-92-241-126-325-41-102-107-234-132-340C5735,8194,5692,8267,5604,8293Z" fill="#c8dbe6" fill-rule="evenodd"/>
      <path id="Path_207" data-name="Path 207" d="M10686,6555l-23,244,62,580c74,83,64,177,139,248,31-319,290-875,235-1190l-138-70,88,1c-80-46-240-40-348-35Z" fill="#e39284" fill-rule="evenodd"/>
      <path id="Path_208" data-name="Path 208" d="M4264,7559l425-2c19,73,39,127,98,174l105-596c22-5,29-3,49-8,55-12,25-5,44-14-55-122-234-211-394-214-10-36-10-48-21-84-33,3-99,11-124,17-17,5-34,10-51,17-69,30-29,14-49,28l93,65C4343,7166,4338,7339,4264,7559Z" fill="#b38c86" fill-rule="evenodd"/>
      <path id="Path_209" data-name="Path 209" d="M3179,7664c31-7,67-19,101-25,4,0,40-4,48-3,51,3,16-25,30,14,46,58,46,135,51,211l-208,10-220,4-20-96c-1-26,4-55,6-81Zm-897,29-300,1c63,62,66,7,136,63-110,41-223,13-313,107l38,47c156-3,257,24,390,40,168,20,281,20,449,20,289,1,577-17,859-54-54-75-50-24-78-122-17-57-22-117-27-175-32-37-14-23-68-34-18-3-65-2-86-2-92,2-185,11-278,25-165,24-87,65-180,91C2766,7716,2374,7695,2282,7693Z" fill="#a65e30" fill-rule="evenodd"/>
      <path id="Path_210" data-name="Path 210" d="M2660,1840c-191-166,40-377,129-536,110,7,250,29,335,81-39,45-74,58-117,89-51,38-92,76-127,109C2804,1657,2735,1771,2660,1840Zm19,147c113-54,272-189,381-266,122-87,247-190,380-270-61-115-244-165-365-201C2211,996,2422,1884,2679,1987Z" fill="#231f20" fill-rule="evenodd"/>
      <path id="Path_211" data-name="Path 211" d="M10168,7732c-70,235-18,399,37,656,21,103,45,198,107,277,75,97,133,84,191,174l-5-77c121-75,107-83,95-254-12-183-4-153-58-280-64-152-97-451-152-529Z" fill="#d2b1a9" fill-rule="evenodd"/>
      <path id="Path_212" data-name="Path 212" d="M7981,13831c556,152,757,142,1365,146,188,3,357-6,543-27,109-12,425-71,495-60,2-93,14-63,21-144-453,36-792,123-1287,114-183-3-466-17-638-59-182-44-327-136-521-175C7959,13738,7979,13732,7981,13831Z" fill="#fefefe" fill-rule="evenodd"/>
      <path id="Path_213" data-name="Path 213" d="M7962,9379c5,238,119,819,112,1028l146,10c68-224-57-1541-44-1910l-58-12-129,3c48,103,72-27,76,158l-9,756Z" fill="#659985" fill-rule="evenodd"/>
      <path id="Path_214" data-name="Path 214" d="M2661,6259c-55,91,225,313,362,384,116,59,169,78,289,118l239,65c138,12,30,14,74-13l-35-94-139-497c-35-6-4,8-19-32C3125,6352,3007,6351,2661,6259Z" fill="#ff7658" fill-rule="evenodd"/>
      <path id="Path_215" data-name="Path 215" d="M4827,19137l-74,28c-112,69-819,45-964-10-86-33-194-162-304-210-116-50-262-91-374-138-28,56-20,21-22,106,137,32,296,63,375,183,129,199,38,144,336,243,284,95,191,67,512,67,246,0,346,25,515-64Z" fill="#d6d6d0" fill-rule="evenodd"/>
      <path id="Path_216" data-name="Path 216" d="M8839,9817c-78-63-92-105-59-230,27-104,61-141,170-136C9019,9581,9037,9810,8839,9817Zm279-395c21-118-4-77,96-80l-69,174c48,57,81,62,80,150-67,35-101-9-103-13-2-7-9-8-14-12,0,99,21,64-55,108l-37-369C9077,9377,9074,9381,9118,9422Zm-201-302c29,46,63,122,35,173-35,64-42,25-107-14-95-59,93,7-32-18-41,121,14,95-196,173,45,36-40,3,34,28l-48,96,120-9c58,149,61,233-21,362-173,26-170-42-162-208l-49-41c7,53,4,87,12,126,6,29,22,42,22,95,0,82-52,102-100,143,60,37,200-36,309-77,98-36,197-73,296-112,455-176,534-125,507-320l93,2-11-11c-184-18-187,13-326-166-169-218-5-241-146-325-6,45-13,119-22,160-19,82-8,61-72,92-112-79-29-151-117-240C8990,9183,8958,9073,8917,9120Z" fill="#8dc0ad" fill-rule="evenodd"/>
      <path id="Path_217" data-name="Path 217" d="M4691,9207c24-53,6-72,42-3,32,61,9,47,7,117-2,83,3,162,3,246,68,0,74-11,132-36l3,71h21c-36-253-159-562-154-839,3-236,112-119-100-309-81-72-167-145-237-216l-60-2c-5,133-92,55,30,526,73,278,166,285,300,347Z" fill="#d2b1a9" fill-rule="evenodd"/>
      <path id="Path_218" data-name="Path 218" d="M856,19149c-40-11-32-5-62-22v215c157,83,568,82,793,64l441-138c138-76,45-182,296-305,74-37,127-74,208-93l-22-57c-635,196-537,304-694,349C1748,19181,973,19265,856,19149Z" fill="#d6d6d0" fill-rule="evenodd"/>
      <path id="Path_219" data-name="Path 219" d="M8565,5313c-63-117-226-339-231-479-63-64-7-49-82-95-22-14-70-28-103-46-96-53-84-79-149-143-77,111-22,600,31,733C8142,5559,8391,5404,8565,5313Z" fill="#954902" fill-rule="evenodd"/>
      <path id="Path_220" data-name="Path 220" d="M3477,1944c-114,93-246,319-648,215-157-41-106-33-255,2,152,104,950,138,1193,228l254,28c-35-69-65-74-109-159-34-65-46-118-56-201l-21-139c-56,3-97-2-154-8l-114-23c-5-2-14-1-18-9-3-8-12-6-17-10C3505,1907,3513,1905,3477,1944Z" fill="#f3c63e" fill-rule="evenodd"/>
      <path id="Path_221" data-name="Path 221" d="M4716,3885c231,138,6,535-73,554-188,44,236-333,29-476-60,99-105,244-231,250l-45,712c3-4,5-18,7-15,4,13-17-50,114-102,85-34,85-33,145-91,97-95,135-175,187-306,71-179,191-682-65-752Z" fill="#ed9c79" fill-rule="evenodd"/>
      <path id="Path_222" data-name="Path 222" d="M10441,1916l666,119c219,43,157,33,182-6l-4-150c0-31,3-81,0-108-4-48,4,4-5-39-9-44-1-22-17-48l-680-114-48,77c-14,32-24,66-34,96C10482,1799,10458,1858,10441,1916Z" fill="#6ccbde" fill-rule="evenodd"/>
      <path id="Path_223" data-name="Path 223" d="M1579,7754l337-141,33,60c4-143,101-398,15-528-6-10-132-153-142-158-57-35-234-34-317-45,14,153,27,293,48,444C1577,7553,1630,7597,1579,7754Z" fill="#b28f89" fill-rule="evenodd"/>
      <path id="Path_224" data-name="Path 224" d="M9705,1363l-66,468c5,68,58,78,142,96,80,18,154,29,220-10,83-46,43,7,84-78,16-32,34-101,50-143,35-99,73-191,106-292-61,0-25-2-83-28-104-47-296-92-405-100Z" fill="#6bd7e3" fill-rule="evenodd"/>
      <path id="Path_225" data-name="Path 225" d="M9346,13977c-64,37-175,35-250,44v115l12-5c244,24,647,240,889,251v-382h344c18-38,25-71,43-110-70-11-386,48-495,60C9703,13971,9534,13980,9346,13977Z" fill="#ff6f51" fill-rule="evenodd"/>
      <path id="Path_226" data-name="Path 226" d="M8281,14000c25-11-25-50,64,40,210,213,427,300,755,358l-4-262v-115c75-9,186-7,250-44-608-4-809,6-1365-146C8037,14057,7984,14000,8281,14000Z" fill="#d35955" fill-rule="evenodd"/>
      <path id="Path_227" data-name="Path 227" d="M1309,6855c56-33,58-36,107-85l441-375c48-44,55-65,112-102,83-53,228-60,341-91l179,2v-56c-90-7-144-118-236-144-175,80-721,128-856,490C1361,6590,1309,6732,1309,6855Z" fill="#7a5e5a" fill-rule="evenodd"/>
      <path id="Path_228" data-name="Path 228" d="M901,18935c-21,43-31,76-43,129,189,26,802,80,957,11,88-39,75-89,319-195,117-52,255-103,355-153-20-48-29-100-46-155-15-49-34-101-54-161-29-88-86-224-93-308l-71-27,26,216c-51-23-39-17-77-55,0,90,32,187,26,270-12,160,3,5-44,84-27,44-17,35-17,106-101-56-34-7-94,91-61,99-332,179-439,208-125,34-251,53-384,49C1048,19040,1037,18982,901,18935Z" fill="#b77c55" fill-rule="evenodd"/>
      <path id="Path_229" data-name="Path 229" d="M3325,18105c-7,74-62,230-83,296-30,93-72,226-83,319,54,68,234,119,328,160,252,110,210,140,305,189,195,101,727-11,949,9l12,87,74-28c-40-77-37-35-82-142l-19-45c-1-3-3-10-6-15-237,95-309,175-705,61-112-32-379-105-441-206-62-103,11-145-94-92,5-350-41,79-62-190-7-86,30-172,25-268-27,36-28,35-74,53l25-216Z" fill="#b77c55" fill-rule="evenodd"/>
      <path id="Path_230" data-name="Path 230" d="M8277,2434c67-124,572-301,740-241-136-69-852-52-997,265,83,83,234,126,350,147,250,45,572-17,794-122,56-26,103-52,158-79,25-12,51-23,83-45,24-17,21-17,38-32,3-2,10-4,12-12s9-9,13-13C8995,2386,8796,2457,8277,2434Z" fill="#e28f00" fill-rule="evenodd"/>
      <path id="Path_231" data-name="Path 231" d="M7774,6384c14,278-128,827-27,1059,35-255-22-242,83-565,31-95,291-652,388-675l20-47,102,11-49-148c-134-87-244-97-360,15C7819,6142,7818,6206,7774,6384Z" fill="#b38c86" fill-rule="evenodd"/>
      <path id="Path_232" data-name="Path 232" d="M8559,11297c-101,16-433-31-497-82l-382-87v112c558,66,450,222,1517,152,543-35,969-171,1470-244l-6-83-6-26c-46,1-451,74-502,92-132,50-321,97-471,127C9393,11314,8830,11375,8559,11297Z" fill="#fdfbfa" fill-rule="evenodd"/>
      <path id="Path_233" data-name="Path 233" d="M1545,4825l12-619c-140,25-135-142-232-227l-31,21c-13,103,3,163,48,249,51,96,105,103,62,191-122-2-216-283-204-415,12-128,69-124,88-131l-57-235c-103,45-157,91-156,301C1076,4242,1222,4738,1545,4825Z" fill="#ed9c79" fill-rule="evenodd"/>
      <path id="Path_234" data-name="Path 234" d="M7683,8660l100,62-9,321c-92-23-184-78-271-121-217-107-232-77-208-156-17,8-33,13-52,30-46-53,2-54-50-33,48,62,28,146-4,210l135,67,15-44,670,322V8594l-229-100v161Z" fill="#addae3" fill-rule="evenodd"/>
      <path id="Path_235" data-name="Path 235" d="M7747,7443c-18,88,11,282,62,366l86-180c35-75,59-100,73-192,21-135,27-302,40-440,26-269,162-527,210-794-97,23-357,580-388,675C7725,7201,7782,7188,7747,7443Z" fill="#9e8c90" fill-rule="evenodd"/>
      <path id="Path_236" data-name="Path 236" d="M10712,8587c107-229,116-306,86-574-23-199-35-446-73-634l-62-580c-28,160-41,295-72,450-44,218-89,197-50,436C10563,7822,10679,8537,10712,8587Z" fill="#d9cdc3" fill-rule="evenodd"/>
      <path id="Path_237" data-name="Path 237" d="M10482,4453c36,351,584,336,545-84C10994,4011,10437,4013,10482,4453Z" fill="#fe8c82" fill-rule="evenodd"/>
      <path id="Path_238" data-name="Path 238" d="M4051,2093c41-113,213-325,276-386,160,17,204,65,317,98-67,109-273,143-454,416C4124,2195,4086,2156,4051,2093Zm58,229c63-4,306-202,373-252,82-61,333-213,383-304-164-68-580-246-785-120-112,68-133,219-122,362C3968,2144,4010,2275,4109,2322Z" fill="#231f20" fill-rule="evenodd"/>
      <path id="Path_239" data-name="Path 239" d="M1673,1676l698,87,10-196,9-220-609-35C1729,1416,1725,1596,1673,1676Z" fill="#e8f5f7" fill-rule="evenodd"/>
      <path id="Path_240" data-name="Path 240" d="M2455,5279l34,183c169,23,334,6,503-3,188-14,438-63,572-168l4-155c-403,68-585,80-974,93C2484,5233,2489,5211,2455,5279Z" fill="#f2ecda" fill-rule="evenodd"/>
      <path id="Path_241" data-name="Path 241" d="M1851,4128c-351,139-167,661,165,560C2363,4583,2198,3990,1851,4128Z" fill="#fe8c82" fill-rule="evenodd"/>
      <path id="Path_242" data-name="Path 242" d="M1700,17626l-8-767-169-10-171,5,22,535C1380,17702,1352,17626,1700,17626Z" fill="#ac855d" fill-rule="evenodd"/>
      <path id="Path_243" data-name="Path 243" d="M1064,9924c-21,451-55,529-56,1030,0,216,22,274,22,362,108-183,211-1297,322-1607l13-114C1296,9626,1103,9840,1064,9924Z" fill="#7a5e5a" fill-rule="evenodd"/>
      <path id="Path_244" data-name="Path 244" d="M3561,17613l283,13h55l-14-768-322,4Z" fill="#cdb7a1" fill-rule="evenodd"/>
      <path id="Path_245" data-name="Path 245" d="M10241,1404c-33,101-71,193-106,292-16,42-34,111-50,143-41,85-1,32-84,78l381,150,59-151c17-58,41-117,60-173,10-30,20-64,34-96l48-77c27-75,60-123,52-195C10502,1349,10351,1352,10241,1404Z" fill="#b4f2f7" fill-rule="evenodd"/>
      <path id="Path_246" data-name="Path 246" d="M1712,17626h60l267-15-6-752H1715Z" fill="#cdb7a1" fill-rule="evenodd"/>
      <path id="Path_247" data-name="Path 247" d="M1781,1278v34l609,35c-30-86-49-67-44-153,2-44,22-99,24-147l94-6-11-292-344-7-200,544Z" fill="#f8d44c" fill-rule="evenodd"/>
      <path id="Path_248" data-name="Path 248" d="M2679,1987c141,105,434,127,581,20,107-79,264-274,238-460l-41-106-17,10c-133,80-258,183-380,270C2951,1798,2792,1933,2679,1987Z" fill="#463e40" fill-rule="evenodd"/>
      <path id="Path_249" data-name="Path 249" d="M2282,7693c92,2,484,23,542,7,93-26,15-67,180-91,93-14,186-23,278-25-86-47-398-23-618-153-95-57-153-103-224-162-76-62-124-149-194-191Z" fill="#ecd8c3" fill-rule="evenodd"/>
      <path id="Path_250" data-name="Path 250" d="M1758,3258c298-57,479,20,736,182,76,48,127,105,204,134l-3-311C2463,3093,1855,2776,1758,3258Z" fill="#3c2414" fill-rule="evenodd"/>
      <path id="Path_251" data-name="Path 251" d="M4109,2322c71,101,353,222,494,155l-149,12c28-49,4-11,33-46l495-464c-46-140-74-133-117-213-50,91-301,243-383,304C4415,2120,4172,2318,4109,2322Z" fill="#463e40" fill-rule="evenodd"/>
      <path id="Path_252" data-name="Path 252" d="M10319,18680c16,179,230,616,532,691,410,101,110-720,18-801,36,239-27,378-185,477C10464,19045,10432,18829,10319,18680Z" fill="#e5bb0c" fill-rule="evenodd"/>
      <path id="Path_253" data-name="Path 253" d="M3910,17626c311,0,298,67,295-236-2-179,0-358,0-537l-150-3-144,7Z" fill="#ac855d" fill-rule="evenodd"/>
      <path id="Path_254" data-name="Path 254" d="M9271,1361l-14,332,15,89,367,49,66-468c-125-42-235-142-373-193C9289,1237,9290,1280,9271,1361Z" fill="#b4f2f7" fill-rule="evenodd"/>
      <path id="Path_255" data-name="Path 255" d="M8508,4126l23,156-150,122,52,229,31,20c4,2,10,6,15,9,186,107,371-23,403-190C8927,4231,8749,4063,8508,4126Z" fill="#fe8c82" fill-rule="evenodd"/>
      <path id="Path_256" data-name="Path 256" d="M7680,11128l382,87-272-756,161-106-163-106-215,835C7632,11096,7634,11100,7680,11128Z" fill="#ecd8c3" fill-rule="evenodd"/>
      <path id="Path_257" data-name="Path 257" d="M9619,9508l11,11,522,4,98-410-260-114c-45,76-130,172-196,249-40,45-53,70-97,118C9645,9423,9631,9428,9619,9508Z" fill="#e39284" fill-rule="evenodd"/>
      <path id="Path_258" data-name="Path 258" d="M10498,5654c357,131,485-355,523-604,10-68,49-279,11-341-162,52-102,58-156,236C10729,5436,10530,5565,10498,5654Z" fill="#954902" fill-rule="evenodd"/>
      <path id="Path_259" data-name="Path 259" d="M11085,3431c293,67,680,3,357-444-45-63-173-217-219-247,7,158,58,189-14,372C11160,3239,11087,3288,11085,3431Z" fill="#e28f00" fill-rule="evenodd"/>
      <path id="Path_260" data-name="Path 260" d="M9194,5150v61l45,83c241-26,398-66,611-120a1017.732,1017.732,0,0,0,222-88c84-45,119-63,121-175-153,18-354,70-514,104C9551,5042,9270,5051,9194,5150Z" fill="#f2ecda" fill-rule="evenodd"/>
      <path id="Path_261" data-name="Path 261" d="M6779,8973c-71,85-43,289-43,457h97c61-46,191-50,274-59l34-129c-7-50,8-25-18-53H6891c40-58,218-183,298-216,32-64,52-148,4-210-75,41-136,71-213,117C6912,8921,6866,8972,6779,8973Z" fill="#fe947a" fill-rule="evenodd"/>
      <path id="Path_262" data-name="Path 262" d="M8291,6019l49,148c72,8,224,3,245,72,132,13,369,72,480,55l18-253c-115,0-266-31-375-41-128-12-273-43-384-45C8309,6018,8331,5977,8291,6019Z" fill="#7d5e5b" fill-rule="evenodd"/>
      <path id="Path_263" data-name="Path 263" d="M9194,5211l-12,31-77,10,145,248c270,4,739-122,877-276-74,7-87-4-157-16-21-3-55-9-74-15-51-14-18,2-46-19-213,54-370,94-611,120Z" fill="#8e4b36" fill-rule="evenodd"/>
      <path id="Path_264" data-name="Path 264" d="M10663,9387c29-50-51-13,60-45,54-15,50-11,87,3-14,35,33,24-53,54C10680,9425,10692,9405,10663,9387Zm-116-257c5-1,13-6,16-1,20,35,212-63,257-67l61,235-298-129c-4-3-9-8-13-11Zm-94-53,47,324c85,18,92,9,116,76,68,46,38,48,89,111,75-11,27-23,137-13,45,4-25,11,55,6l-9-126c-51-143,25-42,21-217-2-85-46-110-63-228l-60-10c-27,13-26-15-59-64l-190,13c-71,72-28,13-49,64C10458,9083,10525,9019,10453,9077Z" fill="#463e40" fill-rule="evenodd"/>
      <path id="Path_265" data-name="Path 265" d="M7016,8517l167-63,24,131,87-31,1,212c46-50,34-160,16-220l-29-71c232,72,73,11,178,17,38,2,127,57,189,71l2-154-636-301Z" fill="#addae3" fill-rule="evenodd"/>
      <path id="Path_266" data-name="Path 266" d="M4104,4696l-3-354c45-43,99-80,164-137l-1-12C3829,3837,3580,4712,4104,4696Z" fill="#fe8c82" fill-rule="evenodd"/>
      <path id="Path_267" data-name="Path 267" d="M582,8869l534,159c107-19,41,3,122-56,32-23,53-40,95-78,4-84-26-202-69-270l-620,22,554,191Z" fill="#c8dbe6" fill-rule="evenodd"/>
      <path id="Path_268" data-name="Path 268" d="M7601,8858c-108,33-177-86-144-188C7573,8624,7652,8758,7601,8858Zm-306-92c-24,79-9,49,208,156,87,43,179,98,271,121l9-321-100-62-34-45v-52c-62-14-151-69-189-71-105-6,54,55-178-17l29,71C7329,8606,7341,8716,7295,8766Z" fill="#d4eef4" fill-rule="evenodd"/>
      <path id="Path_269" data-name="Path 269" d="M1116,9028,582,8869l-149-12c-30,39-36-6,4,90,75,182,359,364,526,245l142-113C1137,9031,1134,9087,1116,9028Z" fill="#ff7658" fill-rule="evenodd"/>
      <path id="Path_270" data-name="Path 270" d="M2471,5556l101,153c260,5,633-40,798-187l-378-63c-169,9-334,26-503,3,78,49,148,36,258,42C2652,5488,2576,5542,2471,5556Z" fill="#8e4b36" fill-rule="evenodd"/>
      <path id="Path_271" data-name="Path 271" d="M1609,18405h416c67-178,91-195,63-435H1824c-3,4-6,7-7,15C1800,18145,1659,18293,1609,18405Z" fill="#a98a5c" fill-rule="evenodd"/>
      <path id="Path_272" data-name="Path 272" d="M858,19064l-2,85c117,116,892,32,960,13,157-45,59-153,694-349-6-50-10-44-21-86-100,50-238,101-355,153-244,106-231,156-319,195C1660,19144,1047,19090,858,19064Z" fill="#0b0b0b" fill-rule="evenodd"/>
      <path id="Path_273" data-name="Path 273" d="M3839,7206c-61,32-127,104-153,166,70,22,109,53,179,103,92,64,70,43,85,175,83,69,36,52,74-54,12-34,25-88,39-132,25-75,68-191,63-252l43-172,13-134c-106,8-38-32-161,152-45,68-92,134-138,181Z" fill="#7dc7ca" fill-rule="evenodd"/>
      <path id="Path_274" data-name="Path 274" d="M3111,18807c112,47,258,88,374,138,110,48,218,177,304,210,145,55,852,79,964,10l-12-87c-222-20-754,92-949-9-95-49-53-79-305-189-94-41-274-92-328-160-25,24-14-2-33,36C3105,18799,3120,18765,3111,18807Z" fill="#0b0b0b" fill-rule="evenodd"/>
      <path id="Path_275" data-name="Path 275" d="M8689,1522l23,67,144,25,287,51,30-314-313-56c-34-12-88-17-150-17C8710,1386,8720,1442,8689,1522Z" fill="#6ccbde" fill-rule="evenodd"/>
      <path id="Path_276" data-name="Path 276" d="M4691,9207l115,1805c0-188,44-477,42-681l30-729-3-71c-58,25-64,36-132,36,0-84-5-163-3-246,2-70,25-56-7-117C4697,9135,4715,9154,4691,9207Z" fill="#7a5e5a" fill-rule="evenodd"/>
      <path id="Path_277" data-name="Path 277" d="M4051,2093c35,63,73,102,139,128,181-273,387-307,454-416-113-33-157-81-317-98C4264,1768,4092,1980,4051,2093Z" fill="#958e90" fill-rule="evenodd"/>
      <path id="Path_278" data-name="Path 278" d="M4096,3144l-19-63c-274-188-629-2-912,56v182C3486,3217,3703,3092,4096,3144Z" fill="#3c2414" fill-rule="evenodd"/>
      <path id="Path_279" data-name="Path 279" d="M7016,8517l-58,22-179,72c-51,17-36,14-85,26a1327.4,1327.4,0,0,0,13,180c17,109-18,103,72,113,57-58,360-258,437-285l-9-60-24-131Z" fill="#fe947a" fill-rule="evenodd"/>
      <path id="Path_280" data-name="Path 280" d="M2660,1840c75-69,144-183,220-257,35-33,76-71,127-109,43-31,78-44,117-89-85-52-225-74-335-81C2700,1463,2469,1674,2660,1840Z" fill="#fefefe" fill-rule="evenodd"/>
      <path id="Path_281" data-name="Path 281" d="M9373,8619l32-24c59-116,71-261-2-365-118,17-125,77-142,183-5-5-11-21-14-16-3,4-11-12-15-16-28-24-105-116-166,74-41,130-39,213,52,278,89-23,109-67,121-179l31,28C9346,8632,9320,8622,9373,8619Z" fill="#5e8777" fill-rule="evenodd"/>
      <path id="Path_282" data-name="Path 282" d="M3432,6190c15,40-16,26,19,32,310,6,334-14,552,128,101,65,320,224,416,265-20-69-14-37-58-87-251-282-315-321-692-498Z" fill="#7a5e5a" fill-rule="evenodd"/>
      <path id="Path_283" data-name="Path 283" d="M6758,8140c75,28,129,64,172,124,0-37-6-113-3-145,8-108,25-99,43-114l539,271c-109-113-467-313-528-412-110-47-146-98-245-150C6736,7885,6746,8001,6758,8140Z" fill="#7ab6a0" fill-rule="evenodd"/>
      <path id="Path_284" data-name="Path 284" d="M8617,9434c210-78,155-52,196-173,125,25-63-41,32,18,65,39,72,78,107,14,28-51-6-127-35-173l-47-142c-124,42-103,103-139,281-15,73-1,58-42,107l-73-58c56-216,96-237-130-183-4,101-19,277,31,363,78-36,30-16,53-45,4-5,15-23,18-28Z" fill="#cfe4db" fill-rule="evenodd"/>
      <path id="Path_285" data-name="Path 285" d="M9337,5657c158,285,636,163,827-132C9599,5669,9857,5594,9337,5657Z" fill="#fc804e" fill-rule="evenodd"/>
      <path id="Path_286" data-name="Path 286" d="M7673,1535l1235,178c-36-41-37-32-52-99l-144-25-23-67c-162-24-349-8-515-8-86,0-172-1-258-1C7796,1513,7768,1535,7673,1535Z" fill="#ce8e32" fill-rule="evenodd"/>
      <path id="Path_287" data-name="Path 287" d="M4932,8315c22-133,80-193,11-308-43-71-88-158-130-211-34,17,15,39-59-28-17-16-37-36-45-42l-4,559C4807,8295,4844,8274,4932,8315Z" fill="#e68878" fill-rule="evenodd"/>
      <path id="Path_288" data-name="Path 288" d="M3121,13369l-387-23c-30-87-2-115-68-89-43,17-47,4-30,183l213,1c3,101-28,140,47,161,34-45,20-92,23-159,54-4,97-2,150-3l116-14c4-1,11-3,16-6,17-69,20-168,26-248l-9-244C3111,12941,3148,13079,3121,13369Z" fill="#e3ba93" fill-rule="evenodd"/>
      <path id="Path_289" data-name="Path 289" d="M4104,4696c177,14,281-184,248-364-22-119-67-118-87-127-65,57-119,94-164,137Z" fill="#fa694c" fill-rule="evenodd"/>
      <path id="Path_290" data-name="Path 290" d="M10190,3767c37,187,264,243,315-4,33-159,33-22,68-142-44,25-38,33-99,40,88-78,68,21,89-109-148,98-68,39-221,49C10236,3608,10197,3663,10190,3767Z" fill="#3a2313" fill-rule="evenodd"/>
      <path id="Path_291" data-name="Path 291" d="M8715,3638c-23,12-14,3-41,8l-50,13c116,86,29,11,67,145,59,213,400,97,284-126-36-68-65-77-171-73-165,7-70-8-177-51C8649,3629,8639,3614,8715,3638Z" fill="#3c2414" fill-rule="evenodd"/>
      <path id="Path_292" data-name="Path 292" d="M11289,2029c99,33,774,137,847,107-141-38-267-93-415-136-116-34-332-113-436-121Z" fill="#ce8e32" fill-rule="evenodd"/>
      <path id="Path_293" data-name="Path 293" d="M4603,2477c218-27,350-261,379-498l-495,464c-29,35-5-3-33,46Z" fill="#231f20" fill-rule="evenodd"/>
      <path id="Path_294" data-name="Path 294" d="M6758,8140c0,183,21,318,21,471l179-72,12-534c-18,15-35,6-43,114-3,32,3,108,3,145C6887,8204,6833,8168,6758,8140Z" fill="#8dc0ad" fill-rule="evenodd"/>
      <path id="Path_295" data-name="Path 295" d="M8115,3664l131,68,86-669c-10-73-5-77-59-125Z" fill="#954902" fill-rule="evenodd"/>
      <path id="Path_296" data-name="Path 296" d="M10193,4911c-2,112-37,130-121,175a1017.732,1017.732,0,0,1-222,88c28,21-5,5,46,19,19,6,53,12,74,15,70,12,83,23,157,16,65-36,56-30,107-84,85-89,158-162,204-301Z" fill="#3c2414" fill-rule="evenodd"/>
      <path id="Path_297" data-name="Path 297" d="M3564,5291c-134,105-384,154-572,168l378,63c138-41,363-263,387-442l-172,56Z" fill="#3c2414" fill-rule="evenodd"/>
      <path id="Path_298" data-name="Path 298" d="M5267,8816c47,81,168,311,234,333,61-148,121-101,198-243l-191,82,94-233Z" fill="#e0eaec" fill-rule="evenodd"/>
      <path id="Path_299" data-name="Path 299" d="M8540,9703c-8,166-11,234,162,208,82-129,79-213,21-362l-120,9C8595,9603,8562,9617,8540,9703Z" fill="#cfe4db" fill-rule="evenodd"/>
      <path id="Path_300" data-name="Path 300" d="M72,10396c8,116,146,232,282,236-22-67-213-477-268-513C47,10244,43,10268,72,10396Z" fill="#ff7658" fill-rule="evenodd"/>
      <path id="Path_301" data-name="Path 301" d="M8839,9817c198-7,180-236,111-366-109-5-143,32-170,136C8747,9712,8761,9754,8839,9817Z" fill="#cfe4db" fill-rule="evenodd"/>
      <path id="Path_302" data-name="Path 302" d="M7141,9242l178-71,25-113-20-18-135-67c-80,33-258,158-298,216h232C7149,9217,7134,9192,7141,9242Z" fill="#6ba9b2" fill-rule="evenodd"/>
      <path id="Path_303" data-name="Path 303" d="M2188,6834l96-14,205-616-179-2c73-16,40,43,24,109-14,58-32,113-46,173C2260,6603,2238,6725,2188,6834Z" fill="#b4d0ca" fill-rule="evenodd"/>
      <path id="Path_304" data-name="Path 304" d="M8653,3056l-4,40,18,66c126-9,167-57,301,4,145,66,71,150,210,124,15-75-3-93-47-137-35-35-72-69-123-92C8889,3005,8771,3034,8653,3056Z" fill="#3a2313" fill-rule="evenodd"/>
      <path id="Path_305" data-name="Path 305" d="M4348,8236l60,2-9-159-386-143,166,290Z" fill="#e18470" fill-rule="evenodd"/>
      <path id="Path_306" data-name="Path 306" d="M8425,10026c48-41,100-61,100-143,0-53-16-66-22-95-8-39-5-73-12-126-66-43-108-5-160,35l8,333Z" fill="#cfe4db" fill-rule="evenodd"/>
      <path id="Path_307" data-name="Path 307" d="M10103,3105c166,55,129-123,354-34l129,17C10655,2888,10095,2850,10103,3105Z" fill="#3a2313" fill-rule="evenodd"/>
      <path id="Path_308" data-name="Path 308" d="M7207,8585l9,60c-77,27-380,227-437,285v43c87-1,133-52,201-93,77-46,138-76,213-117,52-21,4-20,50,33,19-17,35-22,52-30l-1-212Z" fill="#77bcca" fill-rule="evenodd"/>
      <path id="Path_309" data-name="Path 309" d="M8560,8748l-20-33c-62-111,22-34-49-76-80,73-24,359-17,377,133-27,31-71,81-185,88,33,11,46,69,118,75-38,63-67,34-258l-34-95C8533,8662,8634,8643,8560,8748Z" fill="#cfe4db" fill-rule="evenodd"/>
      <path id="Path_310" data-name="Path 310" d="M5218,8562c-63,6-25-3-88,26l123,202,167-140c45-37,96-70,132-135Z" fill="#e0eaec" fill-rule="evenodd"/>
      <path id="Path_311" data-name="Path 311" d="M4570,1567v-93l-201-9c-144-8-464-64-572-17C4045,1518,4298,1535,4570,1567Z" fill="#d4eef4" fill-rule="evenodd"/>
      <path id="Path_312" data-name="Path 312" d="M10170,6344l55-175c-119,0-140-22-271-20-33,63-26,129-17,213C10031,6378,10081,6355,10170,6344Z" fill="#7d5e5b" fill-rule="evenodd"/>
      <path id="Path_313" data-name="Path 313" d="M4672,3963c207,143-217,520-29,476,79-19,304-416,73-554Z" fill="#e45f25" fill-rule="evenodd"/>
      <path id="Path_314" data-name="Path 314" d="M9118,9422c-44-41-41-45-102-42l37,369c76-44,55-9,55-108,5,4,12,5,14,12,2,4,36,48,103,13,1-88-32-93-80-150l69-174C9114,9345,9139,9304,9118,9422Z" fill="#cfe4db" fill-rule="evenodd"/>
      <path id="Path_315" data-name="Path 315" d="M1325,3979l-37-85c-19,7-76,3-88,131-12,132,82,413,204,415,43-88-11-95-62-191-45-86-61-146-48-249Z" fill="#e45f25" fill-rule="evenodd"/>
      <path id="Path_316" data-name="Path 316" d="M10686,6555l15-222c108-5,268-11,348,35l64-13,25-77c-61-3-203-22-271-34-179-31-84-65-206-96C10723,6338,10619,6455,10686,6555Z" fill="#8b6456" fill-rule="evenodd"/>
      <path id="Path_317" data-name="Path 317" d="M7651,8409l-2,154v52l34,45,97-5V8494l-1-229-125-1Z" fill="#efb037" fill-rule="evenodd"/>
      <path id="Path_318" data-name="Path 318" d="M11132,4373c179,28,287-632,25-521,2,107,148,53,66,282l-99,197c0,3,1,11,1,14Z" fill="#e45f25" fill-rule="evenodd"/>
      <path id="Path_319" data-name="Path 319" d="M3532,1868c5,4,14,2,17,10,4,8,13,7,18,9l114,23c57,6,98,11,154,8-7-119-11-152-81-210C3623,1690,3599,1775,3532,1868Z" fill="#d8e8e5" fill-rule="evenodd"/>
      <path id="Path_320" data-name="Path 320" d="M8068,4370c32-69,1-59-1-65-2-4-32-52-33-54-48-81-113-210-60-298,57-94,88,18,61-112C7743,3835,7936,4409,8068,4370Z" fill="#e45f25" fill-rule="evenodd"/>
      <path id="Path_321" data-name="Path 321" d="M3457,1441l41,106c31,163-20,43,59,113,142-184,97-99,147-153,39-40,14-2,40-70C3651,1412,3485,1334,3457,1441Z" fill="#e63953" fill-rule="evenodd"/>
      <path id="Path_322" data-name="Path 322" d="M8692,8573l-10,342c85-7,158-12,171-107-36-26-44-5-88-21,33-79,49-39,63-108l-70-11c38-145,72,2,77-158Z" fill="#cfe4db" fill-rule="evenodd"/>
      <path id="Path_323" data-name="Path 323" d="M3179,7664c-42,70-42,49-99,105-79,78-64,39-99,106l220-4c28-48,33-60,77-119,27-36,49-59,80-102-14-39,21-11-30-14-8-1-44,3-48,3C3246,7645,3210,7657,3179,7664Z" fill="#f2dcc7" fill-rule="evenodd"/>
      <path id="Path_324" data-name="Path 324" d="M8936,9029c88,89,5,161,117,240,64-31,53-10,72-92,9-41,16-115,22-160l-63-57-21,118c-54-129-57-149-98-148Z" fill="#cfe4db" fill-rule="evenodd"/>
      <path id="Path_325" data-name="Path 325" d="M4822,2498c-20,27-42,49-60,67,83,7,70,22,172,22,36-75,57-170,89-255,29-78,75-162,83-267-74,55-94,145-134,237C4930,2402,4901,2463,4822,2498Z" fill="#f3c73f" fill-rule="evenodd"/>
      <path id="Path_326" data-name="Path 326" d="M8345,9562c113-33,88-68,75-195-21-205,20-87,38-219-44,13-127,41-151,77-16,22-17,43-7,62,27,50-41-46,19,18Z" fill="#cfe4db" fill-rule="evenodd"/>
      <path id="Path_327" data-name="Path 327" d="M2832,8616l-70,44c-153,42-131-134-119-151C2762,8427,2819,8459,2832,8616Zm-278-173c67-65,65,24,63,64C2575,8506,2501,8496,2554,8443Zm278,173Z" fill="#683a2d" fill-rule="evenodd"/>
      <path id="Path_328" data-name="Path 328" d="M10570,9157c4,3,9,8,13,11l298,129-61-235c-45,4-237,102-257,67-3-5-11,0-16,1Z" fill="#0b0b0b" fill-rule="evenodd"/>
      <path id="Path_329" data-name="Path 329" d="M9143,1665l114,28,14-332-98-10Z" fill="#5a989a" fill-rule="evenodd"/>
      <path id="Path_330" data-name="Path 330" d="M8268,8765l25,49c28,59,24,56,24,166,0,13-2,51,2,63,18,56-3,11,26,41,82-60,59-67,46-190-21-201,21-84,42-218C8362,8690,8320,8705,8268,8765Z" fill="#cfe4db" fill-rule="evenodd"/>
      <path id="Path_331" data-name="Path 331" d="M3159,8059c-24,18-17-22-41,50-32,101,79,178,167,103C3376,8136,3269,7970,3159,8059Z" fill="#a65e30" fill-rule="evenodd"/>
      <path id="Path_332" data-name="Path 332" d="M2832,8616c-13-157-70-189-189-107-12,17-34,193,119,151Z" fill="#d4c0b6" fill-rule="evenodd"/>
      <path id="Path_333" data-name="Path 333" d="M9364,8899l210,77,35-124-248-88Z" fill="#95c5b5" fill-rule="evenodd"/>
      <path id="Path_334" data-name="Path 334" d="M2471,5556c105-14,181-68,276-52-110-6-180,7-258-42l-34-183c-38-58,19-15-35-35-40-14-52-9-97-10Z" fill="#3c2414" fill-rule="evenodd"/>
      <path id="Path_335" data-name="Path 335" d="M7601,8858c51-100-28-234-144-188C7424,8772,7493,8891,7601,8858Z" fill="#addae3" fill-rule="evenodd"/>
      <path id="Path_336" data-name="Path 336" d="M2300,3741c-134-43-220,54-137,136C2254,3966,2340,3879,2300,3741Z" fill="#3a2313" fill-rule="evenodd"/>
      <path id="Path_337" data-name="Path 337" d="M3201,7871l208-10c-5-76-5-153-51-211-31,43-53,66-80,102C3234,7811,3229,7823,3201,7871Z" fill="#f1d696" fill-rule="evenodd"/>
      <path id="Path_338" data-name="Path 338" d="M3753,3767c-103-86-198-24-165,78C3619,3942,3783,3933,3753,3767Z" fill="#3a2313" fill-rule="evenodd"/>
      <path id="Path_339" data-name="Path 339" d="M2981,7875c35-67,20-28,99-106,57-56,57-35,99-105l-212,34c-2,26-7,55-6,81Z" fill="#f1d696" fill-rule="evenodd"/>
      <path id="Path_340" data-name="Path 340" d="M4126,7212l138,6-16-187-79,9Z" fill="#b7e7eb" fill-rule="evenodd"/>
      <path id="Path_341" data-name="Path 341" d="M5104,1815c-100-29-119,16-126,21,27,42-49,85,195,68C5164,1845,5164,1831,5104,1815Z" fill="#f2d06b" fill-rule="evenodd"/>
      <path id="Path_342" data-name="Path 342" d="M5501,9149c2,57,6,57,55,112l42-47c94-128,59-113,42-130Z" fill="#e45f25" fill-rule="evenodd"/>
      <path id="Path_343" data-name="Path 343" d="M1244,7080c59-11,166-92,213-135l-170-16C1266,6989,1275,7037,1244,7080Z" fill="#7a5e5a" fill-rule="evenodd"/>
      <path id="Path_344" data-name="Path 344" d="M2572,1144c-52-33-101-56-182-28,7,67,4,59,76,79C2554,1218,2551,1210,2572,1144Z" fill="#f8d44c" fill-rule="evenodd"/>
      <path id="Path_345" data-name="Path 345" d="M9105,5252l77-10,12-31v-61c-31-27-6-25-64-24-10,0-61,12-79,16Z" fill="#3c2414" fill-rule="evenodd"/>
      <path id="Path_346" data-name="Path 346" d="M10663,9387c29,18,17,38,94,12,86-30,39-19,53-54-37-14-33-18-87-3C10612,9374,10692,9337,10663,9387Z" fill="#a39ea2" fill-rule="evenodd"/>
      <path id="Path_347" data-name="Path 347" d="M2617,8507c2-40,4-129-63-64C2501,8496,2575,8506,2617,8507Z" fill="#d4c0b6" fill-rule="evenodd"/>
    </g>
  </g>
</svg>
