<svg xmlns="http://www.w3.org/2000/svg" width="3569.965" height="4343.201" viewBox="0 0 3569.965 4343.201">
  <g id="Group_20" data-name="Group 20" transform="translate(-36243 -19387.799)">
    <path id="Path_85" data-name="Path 85" d="M38028,22320c-130-61-504-425-611-544-227-253-637-782-419-1177,248-449,971-351,1022,132,17-33,20-81,36-118,153-371,772-431,1002-14,220,397-196,929-419,1177C38552,21874,38160,22257,38028,22320Zm-1785-1146c0,780,484,1385,1079,1641,66,28,132,44,198,71,33,14,42,45,59,76l249,432c33,56,174,314,200,337,24-21,232-391,268-455,44-79,89-151,133-229,101-180,65-145,172-181,1137-375,1579-1781,869-2746-458-622-1274-898-2039-630C36795,19714,36243,20341,36243,21174Z" fill="#2b2a29" fill-rule="evenodd"/>
    <path id="Path_86" data-name="Path 86" d="M38028,22320c132-63,524-446,611-544,223-248,639-780,419-1177-230-417-849-357-1002,14-16,37-19,85-36,118-51-483-774-581-1022-132-218,395,192,924,419,1177C37524,21895,37898,22259,38028,22320Z" fill="#fff" fill-rule="evenodd"/>
  </g>
</svg>
