<svg xmlns="http://www.w3.org/2000/svg" width="3962" height="13895" viewBox="0 0 3962 13895">
  <g id="_1994032586112" transform="translate(0 -6679)">
    <g id="Group_11" data-name="Group 11">
      <g id="Group_12" data-name="Group 12">
        <circle id="Ellipse_16" data-name="Ellipse 16" cx="1981" cy="1981" r="1981" transform="translate(0 6679)" fill="#e4eef8"/>
        <circle id="Ellipse_17" data-name="Ellipse 17" cx="1305" cy="1305" r="1305" transform="translate(676 7362)" fill="#fefefe"/>
        <circle id="Ellipse_18" data-name="Ellipse 18" cx="807" cy="807" r="807" transform="translate(1174 7852)" fill="#2e75b6"/>
        <circle id="Ellipse_19" data-name="Ellipse 19" cx="245" cy="245" r="245" transform="translate(1736 11878)" fill="#a2a1a1"/>
        <circle id="Ellipse_20" data-name="Ellipse 20" cx="245" cy="245" r="245" transform="translate(1736 13495)" fill="#a2a1a1"/>
        <circle id="Ellipse_21" data-name="Ellipse 21" cx="245" cy="245" r="245" transform="translate(1736 15145)" fill="#a2a1a1"/>
        <g id="Group_8" data-name="Group 8">
          <path id="Path_47" data-name="Path 47" d="M1617,16810c-19,10-159,47-271,107-435,231-727,664-743,1182-3,112,17,242,51,332,11,29,24,84,48,146,143,366,400,795,622,1114,53,76,105,151,156,226,26,38,56,75,82,113l101,136c72,107,214,275,296,384,11,15,11,18,29,24,10-19,26-36,39-53,16-19,26-35,43-54,52-60,201-259,251-326,222-301,421-591,616-916,83-139,180-317,250-469l13-27c5-23,27-68,37-92,103-232,146-452,106-712-109-723-779-1233-1512-1155C1751,16779,1690,16798,1617,16810Z" fill="#ed1a24" fill-rule="evenodd"/>
          <path id="Path_48" data-name="Path 48" d="M1980,20387c10-5,3,1,11-8l473-638c94-131,212-313,299-453,132-214,302-513,388-747,78-214,124-384,71-641-223-1075-1578-1389-2247-521-111,145-187,307-233,521-55,256-8,425,71,640,100,275,358,724,532,975,169,243,289,422,470,660,27,36,55,71,82,107Z" fill="#fff" fill-rule="evenodd"/>
          <path id="Path_49" data-name="Path 49" d="M1934,17303c-250,24-407,101-572,270-152,155-228,388-219,618,12,332,240,616,528,731,558,222,1183-199,1149-833-18-349-249-617-531-731C2192,17319,2052,17291,1934,17303Z" fill="#ed1a24" fill-rule="evenodd"/>
          <path id="Path_50" data-name="Path 50" d="M1933,17419c-123,12-189,33-283,78-90,43-139,95-205,158-50,47-110,152-137,222-191,483,180,1020,726,986,376-23,700-358,670-774-15-215-127-391-238-486C2323,17481,2137,17398,1933,17419Z" fill="#fff" fill-rule="evenodd"/>
          <path id="Path_51" data-name="Path 51" d="M2048,18613c-2,11-7,17-9,23-12,41-2,20,7,28,4,3,23-2,25-3,38-17,60-102,44-157-15-53-8-32-39-80-10-15-7-10-20-18-39-21,10-17-81-37-32-7-70-10-100,6l-44,21a2.151,2.151,0,0,1-2,2c-19,17-14,2-40,32s-46,97-31,149l22,53c1,1,2,2,2,3l3,3,57,51c40,13,118,14,140-1,7-5,3-4,10-10C2027,18645,2035,18668,2048,18613Z" fill="#fdfdfd" fill-rule="evenodd"/>
        </g>
      </g>
    </g>
  </g>
</svg>
