<svg xmlns="http://www.w3.org/2000/svg" width="3081.851" height="4762" viewBox="0 0 3081.851 4762">
  <g id="Group_13" data-name="Group 13" transform="translate(-513.088 -237)">
    <path id="Path_52" data-name="Path 52" d="M2018,4999h69c158-170,559-934,710-1192,224-384,444-855,616-1289,222-560,274-988-33-1523-164-285-463-537-767-652-106-40-317-74-387-106H1879c-163,75-328,25-691,267C982,642,862,777,725,994c-309,491-244,992-35,1526C865,2967,1681,4612,2018,4999Z" fill-rule="evenodd"/>
    <path id="Path_53" data-name="Path 53" d="M2056,4717c326-469,1021-1827,1202-2311,195-519,229-892-71-1366-481-760-1676-879-2279,11-294,435-240,874-56,1370C1012,2852,1746,4319,2056,4717Z" fill="#50a5dc" fill-rule="evenodd"/>
    <path id="Path_54" data-name="Path 54" d="M1888,988c-1071,234-713,1813,338,1592,399-84,715-468,624-951C2776,1232,2378,881,1888,988Z" fill-rule="evenodd"/>
    <path id="Path_55" data-name="Path 55" d="M1985,1163c-870,131-645,1355,154,1244,315-44,577-333,534-708C2638,1396,2333,1110,1985,1163Z" fill="#fff" fill-rule="evenodd"/>
    <path id="Path_56" data-name="Path 56" d="M883,1861l118,8c59-115,13-632,478-925,36-23,128-66,146-91,147-203-243-252-581,269C957,1257,775,1672,883,1861Z" fill-rule="evenodd"/>
    <path id="Path_57" data-name="Path 57" d="M2634,738c-71-57-731-304-671-41,21,93,260,75,376,111C2467,848,2640,983,2634,738Z" fill-rule="evenodd"/>
  </g>
</svg>
