<svg xmlns="http://www.w3.org/2000/svg" width="6220.402" height="2854.402" viewBox="0 0 6220.402 2854.402">
  <g id="Group_9" data-name="Group 9" transform="translate(-16414.299 -3123.299)">
    <rect id="Rectangle_6" data-name="Rectangle 6" width="6121" height="2755" rx="1377.5" transform="translate(16464 3173)" fill="#24be9b" stroke="#00b38b" stroke-width="99.402"/>
    <circle id="Ellipse_22" data-name="Ellipse 22" cx="1173" cy="1173" r="1173" transform="translate(16666 3378)" fill="#3ac5a5"/>
    <path id="Path_66" data-name="Path 66" d="M17530,4949c-710-710-468-223-111,170,178,250,400-352,638-577,329-377,671-499,505-618C18279,4118,17652,4600,17530,4949Z" fill="#fefefe" fill-rule="evenodd"/>
    <g id="_1994782258704">
      <path id="Path_67" data-name="Path 67" d="M20818,4410c-26-15-55-22-97-16-122,104-57,113-117,124-34-59-12-163,12-226,23-59,66-129,142-129,151,1,205,287,152,356C20858,4508,20899,4503,20818,4410Zm267-977h107c206,10,398,74,536,167,92,62,218,167,286,253,172,216,262,525,235,810-11,117-36,218-82,322-15,32-17,56-45,77-17-27-23-56-44-87-42-61-167-161-218-189l-14-94c-85-36-102,93-137,163-105,213-312,382-580,381-274,0-483-168-585-384-24-51-58-218-131-156-51,104,90,290,133,339,212,240,600,311,903,183,54-23,107-65,157-79,57,31,89,78,147,111,56,31,104,61,184,66-29,52-94,90-139,133-51,47-92,69-164,105-54,27-130,59-194,76-36,9-73,18-110,24-209,36-388,10-570-50-74-25-112-50-180-90-93-57-119-69-201-144l-17-17-4-4-38-38c-180-204-285-444-302-695V4474c9-138,45-279,111-416,60-126,102-167,175-254a21.813,21.813,0,0,1,4-5l44-48c92-92,201-163,321-218,65-29,113-48,193-68C20939,3447,21013,3437,21085,3433Zm331,995c-45,77-32,83-77,81-32-54-3-174,17-226,24-58,69-124,151-118,127,8,212,300,135,354-36-14-25-23-43-58-14-29-27-32-43-58-28-8-44-19-76-13C21440,4398,21446,4412,21416,4428Z" fill="#fad333" fill-rule="evenodd"/>
      <path id="Path_68" data-name="Path 68" d="M21871,5074c-33-266,281-123,92,61-41,40-101,135-175,80-33-23-48-53-30-91,12-24,15-20,31-29C21826,5073,21834,5074,21871,5074Zm-265,65c57,31,89,78,147,111,56,31,104,61,184,66,70,8,123-32,153-72,37-49,46-108,32-182-17-27-23-56-44-87-42-61-167-161-218-189-24-15-38-23-77-24-36,96-88,214-160,284C21580,5088,21583,5082,21606,5139Z" fill="#ea4d8b" fill-rule="evenodd"/>
      <path id="Path_69" data-name="Path 69" d="M21606,5139c-23-57-26-51,17-93,72-70,124-188,160-284,39,1,53,9,77,24l-14-94c-85-36-102,93-137,163-105,213-312,382-580,381-274,0-483-168-585-384-24-51-58-218-131-156-51,104,90,290,133,339,212,240,600,311,903,183C21503,5195,21556,5153,21606,5139Z" fill="#753a04" fill-rule="evenodd"/>
      <path id="Path_70" data-name="Path 70" d="M21871,5074c-37,0-45-1-82,21-16,9-19,5-31,29-18,38-3,68,30,91,74,55,134-40,175-80C22152,4951,21838,4808,21871,5074Z" fill="#f77fbe" fill-rule="evenodd"/>
      <path id="Path_71" data-name="Path 71" d="M21416,4428l-33-3c-7-92,28-194,124-184,64,7,107,96,109,127,2,27-4,44-16,59-27-10-17-12-44-24,16,26,29,29,43,58,18,35,7,44,43,58,77-54-8-346-135-354-82-6-127,60-151,118-20,52-49,172-17,226C21384,4511,21371,4505,21416,4428Z" fill="#753a04" fill-rule="evenodd"/>
      <path id="Path_72" data-name="Path 72" d="M20721,4394c-15-11-22,3-37,16l-42,23c-20-44-1-90,20-128,97-174,270,32,206,129-43-7-27-33-50-24,81,93,40,98,92,109,53-69-1-355-152-356-76,0-119,70-142,129-24,63-46,167-12,226C20664,4507,20599,4498,20721,4394Z" fill="#753a04" fill-rule="evenodd"/>
      <path id="Path_73" data-name="Path 73" d="M20721,4394c42-6,71,1,97,16,23-9,7,17,50,24,64-97-109-303-206-129-21,38-40,84-20,128l42-23C20699,4397,20706,4383,20721,4394Z" fill="#955803" fill-rule="evenodd"/>
      <path id="Path_74" data-name="Path 74" d="M21416,4428c30-16,24-30,64-38,32-6,48,5,76,13,27,12,17,14,44,24,12-15,18-32,16-59-2-31-45-120-109-127-96-10-131,92-124,184Z" fill="#955803" fill-rule="evenodd"/>
    </g>
  </g>
</svg>
