<svg xmlns="http://www.w3.org/2000/svg" xmlns:xlink="http://www.w3.org/1999/xlink" width="171.323" height="58.396" viewBox="0 0 171.323 58.396">
  <defs>
    <linearGradient id="linear-gradient" x1="3.538" y1="0.066" x2="0.096" y2="0.825" gradientUnits="objectBoundingBox">
      <stop offset="0" stop-color="#feb729"/>
      <stop offset="1" stop-color="#ffefba"/>
    </linearGradient>
  </defs>
  <g id="Group_85" data-name="Group 85" transform="translate(1999 -2467)">
    <g id="Group_81" data-name="Group 81" transform="translate(-1871.018 2467)">
      <path id="Path_1481" data-name="Path 1481" d="M7878,3.445a.9.9,0,0,0,.4.292,2.563,2.563,0,0,0,.51.109c.42.055.766,0,1.2.055.183,1.786.237,3.609.364,5.413.146,1.932-.729,4.52-.583,5.267l1,.055c1.33.036.273.346,2.022,1.13a9.408,9.408,0,0,0,2.5.674,31.229,31.229,0,0,0,6.926.292c.311-.018.584-.055.911-.073a1.8,1.8,0,0,0,.857-.182,10.059,10.059,0,0,1-.62-1.859c-1.039-3.062-2.843-6.306-1.841-9.824a8.023,8.023,0,0,1,1.841-3.153c2.771-.036,3.772,2.442,4.028,4.957.219,2.242-.383,8.293-.256,8.639a5.867,5.867,0,0,0,1.586.036c.675.018,1.058-.036,1.7,0-.164-.529-.528-1.112-.747-1.622-1.622-3.791-2.37-5.395-1.295-9.769.329-1.367.839-2.606,1.131-3.864-2.224-.091-9.387.146-11.209,1.021.109.456.819.6-1.531.492-1.531-.073-5.049.146-5.887,1.567C7879.878,3.044,7879.186,3.5,7878,3.445Z" transform="translate(-7862.398 0)" fill="#424141" fill-rule="evenodd"/>
      <path id="Path_1482" data-name="Path 1482" d="M7937.729,1365.173a38.89,38.89,0,0,1-.272,4.611,27.372,27.372,0,0,1-.456,4.593l.055-.055c.019.018.055-.018.055-.036a.271.271,0,0,1,.055-.036,3.711,3.711,0,0,1,1-.273l7.491-1.476a5.488,5.488,0,0,1,1.313-.219,9.621,9.621,0,0,0,.93,1.586,1.779,1.779,0,0,0,1.749.838,14.291,14.291,0,0,0,4.21-.747,3.091,3.091,0,0,0,1.623-.893c1.622-1.476,1.185-4.137,1.294-6.416.619-.109,1.239-.31,1.932-.383.675-.091,1.4-.182,2.06-.328,1.075-.2,2.734-.729,2.9-2h0a24.263,24.263,0,0,0-3.244-.456,47.876,47.876,0,0,0-5.8.164l-2.442.237c-.547.073-1.093.109-1.585.182-2.734.419-6.562.82-9.332,1.075A28.31,28.31,0,0,1,7937.729,1365.173Z" transform="translate(-7920.323 -1338.599)" fill="#cb8654" fill-rule="evenodd"/>
      <path id="Path_1483" data-name="Path 1483" d="M8977.92,16.255a2.188,2.188,0,0,0,1.186.146,1.878,1.878,0,0,0,.8-.474l.109-.109c2.206-2.533,1.933-9.04.4-12.157-.674-1.367-1.677-2.588-3.408-2.661-.292,1.258-.8,2.5-1.13,3.864-1.075,4.374-.328,5.978,1.294,9.769C8977.392,15.143,8977.756,15.727,8977.92,16.255Z" transform="translate(-8939.772 -0.982)" fill="#6ac6e2" fill-rule="evenodd"/>
      <path id="Path_1484" data-name="Path 1484" d="M8613.656,104.815l3.152-1.239c-.127-.346.475-6.4.256-8.639-.256-2.515-1.258-4.994-4.027-4.957a8.024,8.024,0,0,0-1.842,3.153c-1,3.518.8,6.762,1.842,9.824A9.989,9.989,0,0,0,8613.656,104.815Z" transform="translate(-8581.943 -88.338)" fill="#6ac6e2" fill-rule="evenodd"/>
      <path id="Path_1485" data-name="Path 1485" d="M7085.892,423.738c-.346-2.26.164-3.937.073-6.051a34.688,34.688,0,0,0-4.557.583c-.128,2.643.2,3.1.182,4.72,0,.857-.382.693,1.8.784C7084.8,423.848,7085.217,423.7,7085.892,423.738Z" transform="translate(-7080.296 -410.069)" fill="#424141" fill-rule="evenodd"/>
      <path id="Path_1486" data-name="Path 1486" d="M7022,1476.861a51.973,51.973,0,0,0,6.816-.747c.711-2.1.692-8.129,1.458-9.678a65.869,65.869,0,0,0-8.274.237Z" transform="translate(-7022 -1439.662)" fill="#cb8755" fill-rule="evenodd"/>
      <path id="Path_1487" data-name="Path 1487" d="M7027.668,148.4c.092,2.114-.419,3.791-.073,6.051l1.039,2.06a6.922,6.922,0,0,1,.784,2.333c.146,1.586-.966,6.015-1.094,8.858-.109,2.552-.747,2.953-.82,4.174a15.061,15.061,0,0,1-.091,1.567,12.541,12.541,0,0,0-.128,1.531c-.018.492-.273,1.112-.146,1.513-.474.966-.455,4.7-.911,6a33.229,33.229,0,0,1-4.229.474v16.221c.875,0,1.841-.036,3.025-.091,2.388-.128,6.379-.547,7.691-1.677a6.819,6.819,0,0,0,1.185-1.221,16.768,16.768,0,0,0,.93-1.476,40.007,40.007,0,0,0,2.88-7.017c.182-.583,1.148-3.426.966-3.937a27.271,27.271,0,0,0,.456-4.593,39.122,39.122,0,0,0,.274-4.611,19.3,19.3,0,0,0,.072-3.572l.037-2.388c.037-.8-.055-2.515,0-3.663v-2.369a9.1,9.1,0,0,1,0-1.221l-.018-5.978c-.146-.747.729-3.335.583-5.267-.128-1.8-.182-3.627-.364-5.413-.437-.055-.784,0-1.2-.055a2.547,2.547,0,0,1-.51-.109.889.889,0,0,1-.4-.292s-2.224-.583-3.263-.711c-2.1-.273-4.611-.219-5.887,1.659A5.291,5.291,0,0,0,7027.668,148.4Z" transform="translate(-7022 -140.778)" fill="#de9b67" fill-rule="evenodd"/>
    </g>
    <g id="Group_80" data-name="Group 80" transform="translate(-2081 2208)">
      <g id="Group_78" data-name="Group 78" transform="translate(82 262.66)">
        <path id="Path_1488" data-name="Path 1488" d="M2005.787,917.666c-1.476-4.848,6.871-22.473,10.717-18.755,2.26,2.187-2,9.441-3.208,11.227C2011.6,912.654,2008.5,917.211,2005.787,917.666ZM2039.87,901.5a46.032,46.032,0,0,1,1.112-5.6c-5.231-3.281-5.358-4.739-8.73,4.465a56.108,56.108,0,0,1-3.3,7.691,51.05,51.05,0,0,1-7,9.022,10.672,10.672,0,0,1-3.08,2.333c.674-9.186,7.509-15.091,8.111-23.347.036-.51-1.4-1.786-1.9-2.114-1.2-.857-1.64-.656-3.08-1.094a17.984,17.984,0,0,0-2.442,4.32,4.561,4.561,0,0,1-1.4-1.221c-7.965-7.928-13.269-.365-16.987,7.564a32.727,32.727,0,0,1-5.577,8.876l-1.75,1.8c-.711.656-1.094,1.148-1.786,1.768a18.9,18.9,0,0,1-3.973,3.08c-4.484,2.169-6.215.857-5.887-3.755.4-5.522,3.536-10.863,6.088-15.2,3.609-6.124,5.431-1.057,2.57,3.718-.31,1.057-1.112,2.843,1.823,3.426,4.01.073,3.773-3.882,4.885-7.4.237-3.226-3.408-7.126-6.58-7.363-3.39-.237-4.812.073-7.71,2.57a19.048,19.048,0,0,0-4.083,5.267c-2.9,5.049-9.332,19.848-1.385,24.313,6.16,3.481,13.141-1.695,17.1-6.124.6-.674.948-1.239,1.859-1.422.365,2.278-.109,3.828.82,5.923,1.2,2.661,4.885,3.481,7.327,2.734,2.552-.766,3.645-3.5,6.015-4.538.492,2.533,4.994,8.256,10.371,2.278,1.276-1.422,2.752-3.354,4.192-3.59-.255,3.445,1.713,6.288,5.213,6.543.638-4.064,3.9-9.587,6.069-12.9a62.52,62.52,0,0,1,6.215-7.91,7.491,7.491,0,0,1,2.643-2.023c-.565,7.892-8.475,15.838-4.666,20.814,2.132,2.77,5.577,2.825,8.147.6,2.807-2.424,11.008-13.815,12.9-17.552a18.879,18.879,0,0,0,2.315-6.525c-2.151.018-3.317,3.846-6.142,7.454-.784.984-1.294,1.768-2.059,2.752-1.7,2.187-6.087,8.621-9.332,9.131a60,60,0,0,1,1.987-5.869l5.869-13.688c1.294-3.281,1.44-4.228-.6-5.923-4.575-3.809-8.238.948-11.573,4.374A11.594,11.594,0,0,1,2039.87,901.5Z" transform="translate(-1938.005 -879.808)" fill-rule="evenodd" fill="url(#linear-gradient)"/>
        <path id="Path_1489" data-name="Path 1489" d="M12.847,211.518c-.711,9.733,13.177,14.362,12.631,21.78-.273,3.864-1.44,6.908-4.848,8.712-3.117,1.64-13.688,4.9-13.159-2.205.273-3.9,6.543-7.746,9.5-8.676,1.112-.346,1.586-.31,1.659-1.4.237-3.062-7.254-8.056-14.253-.656C-3.7,237.654.435,247.077,8.746,250.831a15.556,15.556,0,0,0,4.611,1.258l1.731.128a19.182,19.182,0,0,0,12.448-4.01c6.27-5.213,8.949-13,4.939-20.285l-3.044-3.991a52.848,52.848,0,0,0-5.741-6.543c-2.406-2.078-3.445-3.372-3.171-6.962.255-3.609,10.152-6.124,9.751-.474-.146,2.023.055,2.3-1.13,3.3a4.084,4.084,0,0,0-1.349,1.495c1.987,3.518,9.441,3.536,9.824-1.64.273-3.663-.474-6.179-3.153-8.548a14.362,14.362,0,0,0-7.655-3.627l-1.294-.091C18.916,200.692,13.266,205.85,12.847,211.518Z" transform="translate(-0.016 -200.834)" fill-rule="evenodd" fill="url(#linear-gradient)"/>
      </g>
    </g>
  </g>
</svg>
