<svg xmlns="http://www.w3.org/2000/svg" width="6987" height="6989.975" viewBox="0 0 6987 6989.975">
  <g id="Group_19" data-name="Group 19" transform="translate(-26986 -18050.025)">
    <path id="Path_82" data-name="Path 82" d="M31884,22965V21624c0-338-19-328,136-534,84-113,203-297,207-480,66,76,146,328,173,420,22,75,37,150,52,244,80,495-67,1008-334,1411C32073,22751,31943,22926,31884,22965Zm-3400-1419c0-258,70-566,146-758,60-149,241-477,353-552,0,127-23,685,13,752,12,24,161,161,195,195,53,53,43,44,42,144l-1,1763c-113-76-196-169-285-276C28654,22466,28484,22011,28484,21546Zm3134,1903c0,96-220,152-234-31l1-1404c0-285,44-675-57-879-158-319-318-260-318-743,0-234,121-564,257-710,25-28,51-45,82-74,111-106,254-52,328,23,221,225,220,265,306,615,116,472-234,742-297,868-117,234-68,807-68,1150v903C31596,23413,31618,23260,31618,23449Zm-873-3010c0,616,335,630,358,952,9,127,1,290,1,420v1638c-190,16-376,141-883,72-33-5-89-12-122-19-51-11-63-21-118-22V21250c0-49,65-75,144-152,77-76,105-52,105-207V19566c88,0,125-7,190-14,122-14,470,51,575,76C30984,19669,30745,20030,30745,20439Zm-2511,998c0,520,53,784,291,1222,73,134,171,274,275,380,40,41,58,81,102,116,54,43,67,58,116,103l187,141c67,69-4,115,94,233,139,169,346,215,512,99,51-36-4-47,170-1,676,175,1187-59,1232-47,60,16,39,109,296,109,156,0,297-143,348-276,31-80,12-118,31-188,12-46,131-130,210-210,327-330,628-936,628-1478,0-580-98-986-441-1446-133-179-67-31-146-260-111-324-477-781-861-551-77,46-51,22-208-17-293-73-646-66-949-66-191,0-140,152-140,484v873c0,280,38,167-192,401-69,70-58,111-58,239v1762c0,342,56,499-156,499-116,0-81-197-89-253-18-135,4-1789-3-2119-2-94-16-86-67-135-38-36-184-158-184-207V19644c0-69,5-154,1-220-5-100-50-124-141-124-228,0-28,482-143,606-174,188-176,162-341,408C28409,20612,28234,21051,28234,21437Z" fill="#2b2a29" fill-rule="evenodd"/>
    <path id="Path_83" data-name="Path 83" d="M27236,21546c0-211,43-526,87-724,97-440,259-769,496-1126,125-188,410-504,580-636,538-418,1004-641,1704-729,936-118,1738,170,2458,729,49,38,64,54,106,96,198,201,297,274,474,540,664,1000,751,2083,293,3183-82,198-182,349-293,517l-271,338c-91,89-194,209-309,299-82,63-144,116-231,174-787,522-1647,701-2574,496-234-51-409-119-608-202s-349-182-518-294c-87-58-150-111-231-174-170-132-455-449-580-637-237-357-399-685-496-1126-27-122-42-214-59-347C27252,21826,27236,21655,27236,21546Zm-250-125c0,622,76,1108,328,1607,215,426,375,663,698,986l218,203c76,68,154,125,236,186,471,347,1234,637,1889,637,624,0,1106-75,1607-328,546-275,806-486,1189-916,468-525,822-1380,822-2125,0-622-75-1107-327-1606-143-283-361-652-589-878l-210-210c-231-234-596-451-885-597-1078-544-2538-398-3496,310-286,210-322,258-556,489l-287,353C27275,20004,26986,20764,26986,21421Z" fill="#2b2a29" fill-rule="evenodd"/>
    <path id="Path_84" data-name="Path 84" d="M29482,19394v1435c0,125,249,125,249,0V19394C29731,19268,29482,19268,29482,19394Z" fill="#2b2a29" fill-rule="evenodd"/>
  </g>
</svg>
