<svg xmlns="http://www.w3.org/2000/svg" width="5611.919" height="4300.261" viewBox="0 0 5611.919 4300.261">
  <g id="Group_14" data-name="Group 14" transform="translate(-6109.834 -6328.416)">
    <path id="Path_87" data-name="Path 87" d="M8751,9440c-1338,764-2919-677-1993-2064,757-1134,2472-692,2643,717,13,107,10,264-49,522-45,193-153,374-211,456C9036,9216,8893,9332,8751,9440Zm655-53c617-873,539-1906-280-2612-1071-925-2942-235-3014,1320-64,1395,1301,2402,2662,1777,513-248,214-316,679,187,129,138,678,720,882,533,218-200-521-785-655-909C9578,9587,9492,9498,9406,9387Z" fill="#b9b8b8" fill-rule="evenodd"/>
    <path id="Path_88" data-name="Path 88" d="M9516,6611c151,234,691,149,940,152,161,2,547,2,571-220,30-270-845-209-1014-208C9832,6333,9450,6333,9516,6611Z" fill="#b9b8b8" fill-rule="evenodd"/>
    <path id="Path_89" data-name="Path 89" d="M10060,7361c151,234,690,149,939,153,162,2,547,1,572-221,30-270-845-208-1015-208C10375,7084,9994,7083,10060,7361Z" fill="#b9b8b8" fill-rule="evenodd"/>
    <path id="Path_90" data-name="Path 90" d="M10210,8098c151,234,690,149,939,152,162,2,547,2,572-220,30-270-845-209-1014-208C10525,7821,10144,7820,10210,8098Z" fill="#b9b8b8" fill-rule="evenodd"/>
  </g>
</svg>
