<svg xmlns="http://www.w3.org/2000/svg" width="3700.396" height="3700.096" viewBox="0 0 3700.396 3700.096">
  <g id="Group_15" data-name="Group 15" transform="translate(-12667.017 -20000.195)">
    <path id="Path_75" data-name="Path 75" d="M14077,20418c269-7,486,63,691,218l138,127c151,166,253,408,263,643,13,283-76,525-247,733-261,316-758,469-1190,290-63-27-123-56-173-91-28-20-48-32-76-53-50-39-64-54-103-96l-62-67c-238-264-300-711-159-1055,26-63,57-120,90-173,67-108,151-193,251-270C13653,20508,13873,20423,14077,20418Zm1259,1860c12-31,44-74,63-108,23-40,37-70,57-113,123-270,152-572,102-867-61-357-248-633-506-855-109-94-260-181-434-246-517-193-1143-48-1522,342-116,120-209,239-283,397-421,908,142,1905,1042,2064,419,74,794-27,1083-221,19,9,227,222,260,255l645,645c28,28,104,116,133,125l387-384c-11-29-99-108-126-135-44-45-85-85-129-129-87-88-170-171-258-258l-387-387C15423,22363,15379,22314,15336,22278Z" fill="#2b2a29" stroke="#2b2a29" stroke-width="7.574" fill-rule="evenodd"/>
  </g>
</svg>
