<svg xmlns="http://www.w3.org/2000/svg" width="18102" height="16223.25" viewBox="0 0 18102 16223.25">
  <g id="Layer_x0020_1" transform="translate(41 372)">
    <g id="_2130815347440">
      <text id="SEARCH_ALONG_ROUTE" data-name="SEARCH ALONG ROUTE" transform="translate(-41 1036)" fill="#2b2a29" font-size="1454.37" font-family="Montserrat-ExtraBold, Montserrat" font-weight="800"><tspan x="0" y="0">SEARCH ALONG ROUTE</tspan></text>
      <g id="Group_25" data-name="Group 25">
        <path id="Path_356" data-name="Path 356" d="M6427,13878c19-17,22-23,54-44,15-10,41-23,59-32l765-440c433-289,453-378,751-631,78,39,199,156,285,235-100,321-1137,1215-1668,1355-59-84-65-153-113-239C6512,13995,6477,13962,6427,13878Zm2136-1795c55-92,122-173,187-278,175-284,370-666,636-796l184,161c-30,53-11,26-55,74-9,9-52,46-62,56-255,252-421,765-602,1010C8746,12280,8617,12170,8563,12083Zm1485-1458c177-64,1132-315,1323-299l39,167c-203,48-410,97-611,154-183,52-410,137-594,178C10090,10740,10082,10707,10048,10625Zm1981-485c216-99,434-132,658-227,110-46,214-86,309-134,80-40,246-191,271-49,20,107-439,295-538,344-162,81-455,202-633,232Zm1711-913c134-242,326-359,408-855,54-327-9-271,90-325,36,43,25-33,42,90l-32,307c-47,262-220,784-425,872ZM4595,13655c-83,31-47,26-75,51,436,169,888,252,1199,656,515,670-152,1106-239,1260,1057-118,2384-751,3009-1370,363-360,666-709,951-1226,360-653,757-1576,1482-1751,898-217,1586-437,2377-897,829-483,1806-1472,1282-2789-121,1-232,47-372,59-136,11-295-10-420,12-9,114,29,278,10,450-88,789-1214,1308-1873,1485-1052,282-2256,69-3124,703-464,339-580,709-793,1148-386,796-1281,1426-2075,1756-233,96-432,170-703,267-122,44-226,69-362,110-72,22-91,36-170,54C4662,13641,4631,13641,4595,13655Z" fill="#4d4d4d" fill-rule="evenodd"/>
        <path id="Path_357" data-name="Path 357" d="M4643,10787c-363,1225-2313,762-1959-575,127-477,651-828,1249-689C4419,9637,4822,10184,4643,10787Zm-973,3412c201-147,753-1010,916-1287,275-469,541-987,693-1544,182-667,206-1273-149-1805-716-1075-2229-1035-2916-25-669,983-15,2470,520,3362C2907,13189,3494,14113,3670,14199Z" fill="#4a6dad" fill-rule="evenodd"/>
        <path id="Path_358" data-name="Path 358" d="M3641,14255c-286-112,58-571-1037-231-1562,485-974,1699,771,1817,1855,127,3008-955,1773-1643-248-138-852-339-1183-296-23,37-45,75-75,108-8,9-37,35-45,44-29,37-11,16-35,57C3753,14210,3748,14233,3641,14255Z" fill="#009a3c" fill-rule="evenodd"/>
        <path id="Path_359" data-name="Path 359" d="M14154,6530c-83,80-51,98-152,123l-91-127c-312-44-862,172-844,494,18,299,583,445,936,448,376,3,898-126,971-397C15067,6724,14490,6478,14154,6530Z" fill="#009a3c" fill-rule="evenodd"/>
        <path id="Path_360" data-name="Path 360" d="M14534,4867c-189,639-1207,397-1022-300,66-249,340-433,652-360C14417,4267,14628,4552,14534,4867Zm-507,1780c104-76,393-527,478-671,143-245,282-516,361-806,95-348,108-664-78-942-373-561-1163-540-1521-13-349,513-8,1289,271,1754C13628,6120,13935,6603,14027,6647Z" fill="#ed000a" fill-rule="evenodd"/>
      </g>
    </g>
  </g>
</svg>
